<?xml version="1.0" standalone="no"?>
<!DOCTYPE svg PUBLIC "-//W3C//DTD SVG 20010904//EN"
 "http://www.w3.org/TR/2001/REC-SVG-20010904/DTD/svg10.dtd">
<svg version="1.0" xmlns="http://www.w3.org/2000/svg"
 width="1860.000000pt" height="960.000000pt" viewBox="0 0 1860.000000 960.000000"
 preserveAspectRatio="xMidYMid meet">

<g transform="translate(0.000000,960.000000) scale(0.100000,-0.100000)"
fill="#000000" stroke="none">
<path d="M16419 9475 c-88 -28 -147 -124 -133 -216 8 -49 56 -115 104 -144 34
-19 51 -20 610 -23 398 -2 587 0 613 8 43 12 102 61 121 99 48 94 12 211 -79
263 l-40 23 -575 2 c-478 2 -583 0 -621 -12z m61 -115 c9 -17 21 -20 70 -20
32 0 61 -3 63 -7 3 -5 0 -24 -7 -43 -11 -34 -12 -35 -66 -35 l-55 0 -11 45
c-7 25 -15 53 -19 63 -10 24 12 22 25 -3z m968 -36 c-6 -24 -6 -45 1 -66 12
-34 6 -52 -9 -28 -11 17 -13 90 -4 114 12 31 22 15 12 -20z m126 20 c9 -24 7
-97 -4 -114 -14 -23 -22 -6 -10 25 6 15 8 37 4 49 -3 11 -8 29 -10 39 -7 21
12 23 20 1z m-779 -10 c21 -21 13 -29 -13 -13 -29 18 -52 5 -52 -30 0 -39 31
-59 55 -35 20 20 33 11 15 -11 -29 -35 -90 -7 -90 42 0 52 51 80 85 47z m265
6 c0 -5 -4 -10 -10 -10 -5 0 -10 5 -10 10 0 6 5 10 10 10 6 0 10 -4 10 -10z
m140 -8 c0 -13 7 -18 23 -18 20 1 22 -4 23 -49 2 -48 2 -48 -5 -10 -4 27 -12
41 -23 43 -15 3 -18 -4 -18 -32 0 -20 -4 -36 -10 -36 -6 0 -10 27 -10 60 0 33
4 60 10 60 6 0 10 -8 10 -18z m318 -44 l-2 -63 -3 53 c-4 45 -6 52 -19 42 -17
-15 -19 1 -2 18 23 23 28 12 26 -50z m-634 26 c11 -4 16 -19 16 -46 0 -38 -1
-39 -32 -36 -25 2 -33 8 -33 23 0 13 8 21 23 23 26 4 30 24 5 21 -31 -3 -39 1
-23 11 18 11 23 12 44 4z m86 -5 c0 -5 -7 -9 -15 -9 -10 0 -15 -11 -15 -35 0
-19 -4 -35 -10 -35 -5 0 -10 20 -10 44 0 40 2 44 25 44 14 0 25 -4 25 -9z m60
0 c0 -5 -7 -9 -15 -9 -10 0 -15 -11 -15 -35 0 -19 -4 -35 -10 -35 -5 0 -10 20
-10 44 0 40 2 44 25 44 14 0 25 -4 25 -9z m30 -34 c0 -25 -4 -45 -10 -45 -5 0
-10 20 -10 45 0 25 5 45 10 45 6 0 10 -20 10 -45z m87 -5 c1 -41 1 -42 -5 -10
-5 22 -14 36 -24 38 -15 3 -18 -4 -18 -32 0 -20 -4 -36 -10 -36 -5 0 -10 20
-10 44 0 44 0 44 33 43 31 -2 32 -4 34 -47z m203 36 c28 -35 -11 -93 -47 -70
-36 22 -23 84 17 84 10 0 23 -7 30 -14z m-832 -84 c2 -7 -6 -12 -17 -12 -21 0
-27 11 -14 24 9 9 26 2 31 -12z m82 3 c0 -8 -7 -15 -15 -15 -8 0 -15 7 -15 15
0 8 7 15 15 15 8 0 15 -7 15 -15z"/>
<path d="M16494 9304 c3 -9 6 -20 6 -25 0 -6 19 -9 43 -7 35 2 43 7 45 26 3
20 0 22 -48 22 -43 0 -51 -3 -46 -16z"/>
<path d="M16845 9261 c-3 -5 -1 -12 5 -16 12 -7 30 2 30 16 0 12 -27 12 -35 0z"/>
<path d="M17302 9273 c2 -17 9 -28 18 -28 9 0 16 11 18 28 3 22 -1 27 -18 27
-17 0 -21 -5 -18 -27z"/>
<path d="M623 9423 c-9 -3 -10 -9 -1 -23 14 -22 -5 -149 -24 -162 -39 -25 90
-37 147 -14 29 12 35 20 35 45 0 19 -8 35 -21 45 l-21 14 21 11 c32 17 29 69
-5 81 -26 10 -109 12 -131 3z m113 -38 c9 -21 -14 -45 -42 -45 -26 0 -27 3
-18 38 7 26 51 31 60 7z m-11 -110 c0 -27 -4 -30 -32 -33 -27 -3 -33 0 -33 17
0 38 12 52 39 49 22 -2 26 -8 26 -33z"/>
<path d="M1130 9419 c-19 -8 -21 -12 -11 -19 11 -6 13 -24 7 -77 -3 -37 -9
-78 -12 -90 -5 -18 -2 -23 13 -23 28 0 61 27 46 38 -9 6 -10 24 -3 72 17 115
15 121 -40 99z"/>
<path d="M18073 9385 c-34 -14 -63 -59 -63 -97 0 -38 35 -85 74 -98 69 -22
146 29 146 98 0 39 -29 83 -65 98 -42 17 -51 17 -92 -1z m108 -34 c30 -31 37
-67 18 -102 -10 -19 -10 -19 -28 3 -15 17 -16 26 -7 40 12 20 2 44 -27 62 -32
21 -81 -29 -61 -62 9 -14 8 -23 -7 -40 -18 -22 -18 -22 -28 -3 -30 55 16 131
79 131 22 0 41 -9 61 -29z m-36 -41 c0 -18 -6 -26 -23 -28 -24 -4 -38 18 -28
44 3 9 15 14 28 12 17 -2 23 -10 23 -28z m16 -71 c13 -25 -1 -39 -41 -39 -40
0 -54 14 -41 39 8 14 21 21 41 21 20 0 33 -7 41 -21z"/>
<path d="M813 9358 c-22 -11 -31 -28 -15 -28 5 0 7 -25 4 -55 -4 -46 -2 -56
13 -62 11 -3 30 0 45 9 24 14 28 14 36 0 8 -12 14 -13 32 -3 23 12 30 31 12
31 -6 0 -8 20 -4 55 6 51 5 55 -13 55 -21 0 -33 -24 -33 -67 0 -24 -27 -56
-41 -48 -5 3 -6 33 -2 65 6 62 3 66 -34 48z"/>
<path d="M1067 9364 c-4 -4 -4 -23 -1 -43 3 -20 1 -47 -4 -61 -8 -22 -11 -19
-29 35 -21 64 -47 82 -73 50 -9 -11 -9 -15 -1 -15 17 0 53 -86 49 -118 -3 -29
-38 -45 -38 -18 0 9 -7 16 -16 16 -10 0 -14 -7 -12 -22 4 -29 49 -36 84 -14
48 32 87 145 62 179 -8 10 -17 15 -21 11z"/>
<path d="M1190 9345 c-9 -11 -9 -15 -1 -15 17 0 53 -86 49 -118 -3 -29 -38
-45 -38 -18 0 9 -7 16 -15 16 -21 0 -19 -37 3 -49 26 -14 78 12 102 51 41 66
49 148 15 148 -11 0 -13 -10 -9 -44 4 -24 2 -51 -4 -61 -8 -15 -13 -8 -29 41
-21 63 -47 80 -73 49z"/>
<path d="M4260 9290 c0 -33 4 -60 10 -60 6 0 10 27 10 60 0 33 -4 60 -10 60
-6 0 -10 -27 -10 -60z"/>
<path d="M4406 9334 c-10 -27 -7 -104 5 -104 6 0 9 19 8 48 -1 26 1 53 5 60 4
7 3 12 -2 12 -6 0 -13 -7 -16 -16z"/>
<path d="M4530 9340 c0 -5 5 -10 10 -10 6 0 10 5 10 10 0 6 -4 10 -10 10 -5 0
-10 -4 -10 -10z"/>
<path d="M4927 9332 c-21 -23 -22 -66 -1 -86 20 -20 58 -21 74 -1 18 22 5 31
-15 11 -24 -24 -55 -4 -55 35 0 35 23 48 52 30 26 -16 34 -8 13 13 -22 21 -48
20 -68 -2z"/>
<path d="M5520 9340 c0 -5 5 -10 10 -10 6 0 10 5 10 10 0 6 -4 10 -10 10 -5 0
-10 -4 -10 -10z"/>
<path d="M6180 9290 l0 -60 35 0 c19 0 35 5 35 10 0 6 -11 10 -25 10 -23 0
-25 3 -25 50 0 28 -4 50 -10 50 -6 0 -10 -27 -10 -60z"/>
<path d="M6270 9340 c0 -5 5 -10 10 -10 6 0 10 5 10 10 0 6 -4 10 -10 10 -5 0
-10 -4 -10 -10z"/>
<path d="M6640 9331 c0 -14 -5 -18 -18 -14 -25 6 -44 -20 -40 -54 3 -25 7 -28
41 -30 l37 -1 0 59 c0 33 -4 59 -10 59 -5 0 -10 -9 -10 -19z m-2 -58 c-2 -17
-9 -28 -18 -28 -9 0 -16 11 -18 28 -3 22 1 27 18 27 17 0 21 -5 18 -27z"/>
<path d="M6810 9290 l0 -60 34 0 c37 0 66 28 66 62 0 28 -37 58 -70 58 l-30 0
0 -60z m70 25 c20 -24 4 -65 -25 -65 -22 0 -25 4 -25 40 0 32 4 40 19 40 10 0
24 -7 31 -15z"/>
<path d="M7200 9340 c0 -5 5 -10 10 -10 6 0 10 5 10 10 0 6 -4 10 -10 10 -5 0
-10 -4 -10 -10z"/>
<path d="M7670 9290 c0 -33 4 -60 10 -60 6 0 10 9 10 20 0 15 7 20 25 20 26 0
45 26 37 50 -7 21 -23 30 -54 30 -27 0 -28 -1 -28 -60z m65 20 c0 -8 -10 -16
-22 -18 -18 -3 -23 2 -23 18 0 16 5 21 23 18 12 -2 22 -10 22 -18z"/>
<path d="M7920 9331 c0 -14 -5 -18 -18 -14 -25 6 -44 -20 -40 -54 3 -25 7 -28
41 -30 l37 -1 0 59 c0 33 -4 59 -10 59 -5 0 -10 -9 -10 -19z m-2 -58 c-2 -17
-9 -28 -18 -28 -9 0 -16 11 -18 28 -3 22 1 27 18 27 17 0 21 -5 18 -27z"/>
<path d="M7960 9340 c0 -5 5 -10 10 -10 6 0 10 5 10 10 0 6 -4 10 -10 10 -5 0
-10 -4 -10 -10z"/>
<path d="M8060 9331 c0 -14 -5 -18 -18 -14 -25 6 -44 -20 -40 -54 3 -25 7 -28
41 -30 l37 -1 0 59 c0 33 -4 59 -10 59 -5 0 -10 -9 -10 -19z m-2 -58 c-2 -17
-9 -28 -18 -28 -9 0 -16 11 -18 28 -3 22 1 27 18 27 17 0 21 -5 18 -27z"/>
<path d="M5116 9325 c-3 -8 -4 -21 -2 -27 3 -7 7 -25 10 -40 4 -18 13 -28 24
-27 10 0 12 3 5 6 -17 6 -17 60 -1 65 9 3 8 9 -4 21 -20 21 -24 21 -32 2z"/>
<path d="M6396 9325 c-3 -8 -4 -21 -2 -27 3 -7 7 -25 10 -40 4 -18 13 -28 24
-27 10 0 12 3 5 6 -17 6 -17 60 -1 65 9 3 8 9 -4 21 -20 21 -24 21 -32 2z"/>
<path d="M4300 9274 c0 -24 5 -44 10 -44 6 0 10 16 10 36 0 28 3 35 18 32 10
-2 19 -16 24 -38 6 -32 6 -31 5 10 -2 43 -3 45 -34 47 -33 1 -33 1 -33 -43z"/>
<path d="M4452 9308 c-17 -17 -15 -53 3 -68 17 -14 69 -5 60 11 -5 7 -11 6
-20 -1 -19 -16 -35 -4 -35 27 0 22 4 25 25 20 16 -3 24 0 22 7 -5 16 -40 19
-55 4z"/>
<path d="M4530 9275 c0 -25 5 -45 10 -45 6 0 10 20 10 45 0 25 -4 45 -10 45
-5 0 -10 -20 -10 -45z"/>
<path d="M4580 9306 c-28 -35 11 -93 48 -70 35 22 22 84 -18 84 -10 0 -23 -7
-30 -14z m48 -33 c-2 -17 -9 -28 -18 -28 -9 0 -16 11 -18 28 -3 22 1 27 18 27
17 0 21 -5 18 -27z"/>
<path d="M5040 9310 c-16 -10 -8 -14 23 -11 25 3 21 -17 -5 -21 -15 -2 -23
-10 -23 -23 0 -15 8 -21 33 -23 31 -3 32 -2 32 36 0 48 -25 65 -60 42z m40
-49 c0 -14 -18 -23 -30 -16 -6 4 -8 11 -5 16 8 12 35 12 35 0z"/>
<path d="M5180 9306 c-30 -37 9 -89 52 -68 23 11 22 11 -6 9 -16 -1 -31 4 -33
11 -3 8 6 12 26 12 34 0 36 2 21 31 -13 22 -43 25 -60 5z m50 -16 c0 -5 -9
-10 -20 -10 -11 0 -20 5 -20 10 0 6 9 10 20 10 11 0 20 -4 20 -10z"/>
<path d="M5271 9307 c-27 -27 0 -86 34 -73 9 3 15 0 15 -11 0 -12 -7 -14 -32
-9 -24 5 -29 3 -21 -5 6 -6 23 -9 39 -7 28 3 29 6 32 59 3 56 3 56 -26 57 -16
0 -34 -4 -41 -11z m49 -32 c0 -18 -5 -25 -20 -25 -15 0 -20 7 -20 25 0 18 5
25 20 25 15 0 20 -7 20 -25z"/>
<path d="M5370 9306 c-28 -35 11 -93 48 -70 35 22 22 84 -18 84 -10 0 -23 -7
-30 -14z m48 -33 c-2 -17 -9 -28 -18 -28 -9 0 -16 11 -18 28 -3 22 1 27 18 27
17 0 21 -5 18 -27z"/>
<path d="M5460 9274 c0 -24 5 -44 10 -44 6 0 10 16 10 35 0 24 5 35 15 35 8 0
15 4 15 9 0 5 -11 9 -25 9 -23 0 -25 -4 -25 -44z"/>
<path d="M5520 9275 c0 -25 5 -45 10 -45 6 0 10 20 10 45 0 25 -4 45 -10 45
-5 0 -10 -20 -10 -45z"/>
<path d="M5570 9310 c-16 -10 -8 -14 23 -11 25 3 21 -17 -5 -21 -15 -2 -23
-10 -23 -23 0 -15 8 -21 33 -23 31 -3 32 -2 32 36 0 48 -25 65 -60 42z m40
-49 c0 -14 -18 -23 -30 -16 -6 4 -8 11 -5 16 8 12 35 12 35 0z"/>
<path d="M5663 9313 c-22 -8 -14 -33 12 -43 26 -10 34 -30 12 -30 -7 0 -19 6
-26 13 -11 10 -13 9 -9 -3 3 -9 17 -15 34 -15 22 0 29 5 29 20 0 13 -8 21 -22
23 -13 2 -23 8 -23 14 0 6 11 8 27 3 23 -5 25 -4 14 9 -14 16 -26 19 -48 9z"/>
<path d="M6270 9275 c0 -25 5 -45 10 -45 6 0 10 20 10 45 0 25 -4 45 -10 45
-5 0 -10 -20 -10 -45z"/>
<path d="M6323 9313 c-22 -8 -14 -33 12 -43 26 -10 34 -30 12 -30 -7 0 -19 6
-26 13 -11 10 -13 9 -9 -3 3 -9 17 -15 34 -15 22 0 29 5 29 20 0 13 -8 21 -22
23 -13 2 -23 8 -23 14 0 6 11 8 27 3 23 -5 25 -4 14 9 -14 16 -26 19 -48 9z"/>
<path d="M6460 9310 c-16 -10 -8 -14 23 -11 25 3 21 -17 -5 -21 -15 -2 -23
-10 -23 -23 0 -15 8 -21 33 -23 31 -3 32 -2 32 36 0 48 -25 65 -60 42z m40
-49 c0 -14 -18 -23 -30 -16 -6 4 -8 11 -5 16 8 12 35 12 35 0z"/>
<path d="M6690 9306 c-30 -37 9 -89 52 -68 23 11 22 11 -6 9 -16 -1 -31 4 -33
11 -3 8 6 12 26 12 34 0 36 2 21 31 -13 22 -43 25 -60 5z m50 -16 c0 -5 -9
-10 -20 -10 -11 0 -20 5 -20 10 0 6 9 10 20 10 11 0 20 -4 20 -10z"/>
<path d="M6940 9306 c-30 -37 9 -89 52 -68 23 11 22 11 -6 9 -16 -1 -31 4 -33
11 -3 8 6 12 26 12 34 0 36 2 21 31 -13 22 -43 25 -60 5z m50 -16 c0 -5 -9
-10 -20 -10 -11 0 -20 5 -20 10 0 6 9 10 20 10 11 0 20 -4 20 -10z"/>
<path d="M7033 9313 c-22 -8 -14 -33 12 -43 26 -10 34 -30 12 -30 -7 0 -19 6
-26 13 -11 10 -13 9 -9 -3 3 -9 17 -15 34 -15 22 0 29 5 29 20 0 13 -8 21 -22
23 -13 2 -23 8 -23 14 0 6 11 8 27 3 23 -5 25 -4 14 9 -14 16 -26 19 -48 9z"/>
<path d="M7120 9306 c-30 -37 9 -89 52 -68 23 11 22 11 -6 9 -16 -1 -31 4 -33
11 -3 8 6 12 26 12 34 0 36 2 21 31 -13 22 -43 25 -60 5z m50 -16 c0 -5 -9
-10 -20 -10 -11 0 -20 5 -20 10 0 6 9 10 20 10 11 0 20 -4 20 -10z"/>
<path d="M7198 9260 c-2 -37 1 -59 7 -57 13 5 19 117 6 117 -5 0 -11 -27 -13
-60z"/>
<path d="M7250 9306 c-28 -35 11 -93 48 -70 35 22 22 84 -18 84 -10 0 -23 -7
-30 -14z m48 -33 c-2 -17 -9 -28 -18 -28 -9 0 -16 11 -18 28 -3 22 1 27 18 27
17 0 21 -5 18 -27z"/>
<path d="M7353 9313 c-22 -8 -14 -33 12 -43 26 -10 34 -30 12 -30 -7 0 -19 6
-26 13 -11 10 -13 9 -9 -3 3 -9 17 -15 34 -15 22 0 29 5 29 20 0 13 -8 21 -22
23 -13 2 -23 8 -23 14 0 6 11 8 27 3 23 -5 25 -4 14 9 -14 16 -26 19 -48 9z"/>
<path d="M7780 9306 c-30 -37 9 -89 52 -68 23 11 22 11 -6 9 -16 -1 -31 4 -33
11 -3 8 6 12 26 12 34 0 36 2 21 31 -13 22 -43 25 -60 5z m50 -16 c0 -5 -9
-10 -20 -10 -11 0 -20 5 -20 10 0 6 9 10 20 10 11 0 20 -4 20 -10z"/>
<path d="M7960 9275 c0 -25 5 -45 10 -45 6 0 10 20 10 45 0 25 -4 45 -10 45
-5 0 -10 -20 -10 -45z"/>
<path d="M8110 9306 c-28 -35 11 -93 48 -70 35 22 22 84 -18 84 -10 0 -23 -7
-30 -14z m48 -33 c-2 -17 -9 -28 -18 -28 -9 0 -16 11 -18 28 -3 22 1 27 18 27
17 0 21 -5 18 -27z"/>
<path d="M8213 9313 c-22 -8 -14 -33 12 -43 26 -10 34 -30 12 -30 -7 0 -19 6
-26 13 -11 10 -13 9 -9 -3 3 -9 17 -15 34 -15 22 0 29 5 29 20 0 13 -8 21 -22
23 -13 2 -23 8 -23 14 0 6 11 8 27 3 23 -5 25 -4 14 9 -14 16 -26 19 -48 9z"/>
<path d="M5828 9290 l22 -24 23 24 22 24 -22 -18 c-22 -19 -24 -19 -45 0 l-23
18 23 -24z"/>
<path d="M4260 9165 c0 -13 25 -15 198 -13 123 2 197 7 197 13 0 6 -74 11
-197 13 -173 2 -198 0 -198 -13z"/>
<path d="M0 8005 c0 -562 4 -955 9 -955 5 0 80 16 166 35 87 20 160 34 162 31
3 -2 15 -53 29 -112 13 -59 25 -108 27 -109 1 -1 102 21 225 48 122 28 225 47
229 44 3 -4 16 -52 29 -108 12 -55 25 -103 28 -106 3 -3 50 5 105 17 54 13
105 20 113 18 7 -3 23 -50 36 -109 12 -57 25 -105 27 -107 3 -4 185 35 212 45
14 6 19 -13 73 -257 23 -102 44 -188 48 -192 6 -5 106 13 193 37 15 3 29 3 32
-2 7 -11 97 -416 97 -435 0 -11 -27 -22 -97 -37 -119 -27 -123 -28 -123 -39 0
-4 22 -106 50 -226 27 -120 50 -219 50 -221 0 -2 -44 -13 -97 -25 -54 -12
-105 -24 -114 -26 -15 -4 -15 -15 7 -116 13 -61 22 -113 20 -115 -2 -3 -48
-15 -103 -28 -160 -38 -234 -56 -298 -72 -33 -8 -90 -21 -126 -28 -36 -7 -85
-18 -108 -25 -46 -12 -45 -1 -15 -123 8 -32 14 -71 14 -87 0 -26 -4 -29 -65
-44 -35 -9 -67 -16 -70 -16 -3 0 -5 56 -5 125 0 69 -4 125 -8 125 -5 0 -123
-24 -263 -54 -140 -29 -268 -56 -286 -59 -35 -7 -33 -10 -53 83 -22 107 -25
106 -30 -10 l-5 -115 -55 -10 -55 -10 -3 -1299 c-2 -1029 1 -1302 10 -1314 10
-12 10 -16 0 -19 -7 -3 -12 -21 -12 -44 0 -39 0 -39 40 -39 36 0 40 -3 40 -24
0 -14 11 -33 25 -44 18 -15 25 -29 25 -56 0 -25 4 -36 15 -36 9 0 15 -9 15
-22 0 -12 7 -30 17 -40 15 -17 15 -18 0 -18 -28 0 -18 -23 23 -55 21 -16 39
-33 40 -38 0 -4 15 -21 33 -37 24 -22 28 -29 15 -30 -25 0 -22 -15 7 -38 14
-11 25 -25 25 -31 0 -6 7 -11 15 -11 11 0 15 -11 15 -40 0 -36 3 -40 25 -40
14 0 25 5 25 11 0 6 7 4 15 -5 8 -8 15 -30 15 -49 0 -38 -14 -47 -79 -47 -19
0 -31 -3 -27 -7 4 -5 150 -11 324 -14 312 -5 309 -5 -165 -7 l-483 -2 0 -620
0 -620 9300 0 9300 0 0 1416 c0 1343 -1 1415 -18 1410 -9 -3 -41 -10 -71 -16
-30 -6 -56 -12 -58 -14 -2 -2 4 -38 13 -80 10 -42 15 -78 13 -80 -2 -2 -49
-14 -104 -26 -55 -12 -126 -28 -157 -35 -63 -14 -73 -9 -81 35 -16 85 -20 101
-27 105 -4 3 -72 -9 -151 -26 -79 -17 -151 -32 -159 -33 -11 -1 -20 21 -33 76
l-19 78 -42 -6 c-22 -3 -56 -10 -74 -16 -36 -11 -62 2 -62 29 0 17 -60 276
-65 281 -1 2 -37 -3 -80 -11 -56 -11 -78 -12 -80 -3 -12 32 -72 312 -69 318 2
3 38 14 80 24 73 17 75 19 69 43 -4 15 -13 58 -20 96 -8 39 -28 135 -44 214
-17 79 -28 147 -26 151 2 3 33 12 69 20 36 7 70 16 76 20 8 5 6 29 -6 79 -9
40 -12 77 -8 81 5 4 77 23 159 41 83 18 152 34 154 36 2 1 -3 37 -13 80 -9 42
-13 79 -9 83 8 7 288 70 309 70 6 0 16 -26 23 -57 18 -79 28 -103 43 -98 39
13 294 65 303 61 6 -2 17 -33 24 -68 17 -89 17 -88 81 -74 l55 13 3 1411 c2
1208 0 1412 -12 1412 -8 0 -19 12 -25 28 -21 50 -42 83 -62 95 -10 6 -19 17
-19 24 0 7 -4 13 -9 13 -12 0 -71 59 -71 71 0 5 7 9 15 9 19 0 19 24 1 39 -11
10 -15 9 -18 -4 -3 -15 -6 -14 -30 5 -16 12 -28 30 -28 41 0 10 -4 19 -10 19
-5 0 -10 5 -10 12 0 6 -7 20 -17 30 -15 17 -15 18 0 18 10 0 17 5 17 10 0 6
-18 10 -40 10 -27 0 -40 4 -40 13 0 18 -32 47 -52 47 -9 0 -33 16 -52 35 -30
29 -35 39 -26 54 7 14 6 27 -5 48 -10 18 -15 22 -15 11 0 -12 -14 -3 -45 29
-25 25 -45 49 -45 54 0 5 -6 9 -13 9 -7 0 -18 10 -26 22 -14 22 -14 22 -21 3
-8 -20 -8 -20 -16 -1 -8 22 -40 56 -51 56 -20 0 -63 48 -67 75 -3 17 -15 36
-26 44 -11 7 -20 20 -20 27 0 8 -7 14 -15 14 -9 0 -18 7 -21 15 -3 8 -22 25
-42 37 -28 17 -33 24 -19 26 24 5 22 9 -23 51 -23 21 -40 46 -40 58 0 12 -4
25 -10 28 -5 3 -10 -2 -10 -11 0 -16 -1 -16 -20 1 -12 11 -20 31 -20 52 0 18
-4 33 -10 33 -5 0 -10 7 -10 15 0 13 -25 21 -52 16 -5 0 -8 10 -8 24 0 18 -5
25 -20 25 -10 0 -23 6 -27 13 -4 6 -17 17 -28 23 -12 7 -21 24 -23 43 -2 17
-7 31 -12 31 -20 0 -70 63 -70 87 0 15 -3 23 -6 20 -4 -3 -19 7 -34 23 -32 34
-40 37 -40 13 0 -14 -2 -15 -12 -4 -10 11 -10 14 0 18 30 11 -1 83 -36 83 -7
0 -12 4 -12 9 0 5 -9 12 -19 16 -11 3 -23 15 -26 25 -4 11 -16 23 -28 26 -32
8 -59 50 -63 100 -4 41 -3 44 23 50 16 3 33 7 38 9 6 2 -115 4 -268 4 -270 1
-278 0 -272 -18 3 -11 2 -22 -3 -25 -5 -3 -83 -22 -173 -42 -90 -20 -193 -43
-229 -51 -36 -8 -69 -18 -74 -23 -5 -5 -2 -36 8 -74 20 -83 20 -83 -6 -89 -13
-2 -85 -19 -161 -36 -75 -18 -141 -30 -145 -27 -5 3 -14 36 -22 73 -11 59 -16
69 -34 71 -12 1 -85 -12 -161 -28 -162 -33 -154 -36 -174 64 l-13 66 -32 -6
c-17 -3 -50 -10 -73 -16 -23 -5 -48 -8 -55 -6 -7 3 -20 40 -29 84 l-16 79
-5024 3 -5025 2 -18 -75 c-10 -41 -23 -75 -29 -75 -7 0 -49 9 -95 21 -45 12
-84 20 -86 18 -2 -2 -25 -85 -51 -184 -25 -99 -49 -183 -53 -186 -6 -6 -107
15 -168 35 -20 6 -23 0 -44 -84 -12 -50 -26 -93 -31 -95 -4 -3 -44 4 -89 16
-44 11 -95 22 -111 24 -17 3 -45 9 -62 14 -66 20 -283 71 -303 71 -5 0 -17
-35 -28 -78 -21 -86 -31 -105 -55 -98 -9 2 -90 23 -181 47 -91 23 -168 46
-171 51 -3 5 3 47 14 94 11 46 17 87 14 90 -5 6 -129 40 -271 75 -78 19 -110
34 -101 48 10 17 45 163 41 170 -3 5 -44 17 -91 27 -82 18 -85 20 -85 46 l0
28 -669 0 c-657 0 -669 0 -664 -19 4 -16 -3 -22 -39 -30 -23 -6 -77 -20 -118
-31 -74 -19 -213 -52 -278 -65 -18 -4 -36 -13 -38 -20 -3 -6 2 -41 10 -76 8
-35 12 -67 10 -70 -6 -11 -305 -81 -320 -75 -13 5 -26 46 -38 117 l-6 36 -158
-33 c-86 -19 -162 -32 -167 -30 -6 2 -17 33 -24 68 -18 90 -16 89 -86 74 -99
-20 -96 -22 -117 72 l-20 82 -154 0 -154 0 0 -955z m11695 -124 c22 -10 68
-42 103 -70 55 -45 69 -51 108 -51 58 0 100 38 110 99 6 37 9 41 35 41 25 0
29 -4 29 -30 0 -51 -30 -110 -73 -141 -32 -23 -50 -29 -94 -29 -63 0 -95 15
-178 82 -69 55 -112 68 -160 45 -33 -16 -65 -68 -65 -106 0 -17 -6 -21 -30
-21 -26 0 -30 4 -30 28 0 34 31 102 56 123 59 51 123 61 189 30z m1720 -212
c251 -42 434 -192 490 -405 18 -69 21 -209 5 -280 -47 -207 -225 -360 -488
-420 -103 -24 -327 -24 -432 -1 -110 24 -246 95 -317 165 -104 103 -153 227
-153 387 0 157 43 261 154 370 83 82 158 124 282 160 151 43 297 51 459 24z
m-1174 -539 c242 -545 251 -568 241 -573 -4 -3 -103 -6 -221 -8 l-214 -4 -27
75 -27 75 -74 3 c-41 2 -129 1 -196 -3 l-121 -7 -23 -78 -22 -79 -51 -5 c-28
-3 -126 -7 -218 -9 -138 -3 -168 -2 -168 10 0 7 38 113 84 236 46 122 134 357
196 522 62 165 114 302 117 305 5 5 319 17 431 16 l83 -1 210 -475z m-1646
432 c196 -52 344 -182 380 -333 l7 -27 -193 -46 c-105 -26 -193 -45 -194 -44
-1 2 -12 21 -24 43 -82 150 -329 137 -402 -20 -22 -48 -25 -161 -5 -208 32
-77 116 -128 222 -135 134 -9 244 49 280 146 10 26 18 48 19 50 3 4 389 -38
394 -43 9 -9 -20 -114 -46 -164 -33 -68 -114 -155 -186 -202 -71 -46 -203 -94
-282 -103 -99 -11 -115 -16 -115 -36 0 -13 11 -19 41 -24 61 -10 99 -52 99
-109 0 -79 -58 -124 -149 -115 -53 5 -111 39 -111 65 0 9 8 22 18 29 14 11 20
9 38 -7 49 -46 144 -32 144 21 0 41 -31 62 -90 62 l-50 0 0 49 0 49 -37 0
c-56 0 -212 26 -259 43 -195 71 -322 205 -364 385 -17 75 -15 220 5 289 63
219 232 354 500 399 102 17 268 11 360 -14z m-982 -99 c4 -38 7 -102 7 -144
l0 -77 -270 -7 -271 -8 3 -55 3 -55 160 3 c88 3 196 4 240 5 l80 0 3 -121 3
-121 -241 -8 -240 -7 0 -65 0 -64 203 6 c111 3 236 8 278 11 l76 5 6 -83 c4
-46 7 -111 7 -145 l0 -61 -62 -6 c-86 -8 -907 -30 -912 -25 -6 7 -37 1051 -32
1057 7 7 484 24 827 30 l126 2 6 -67z m-1551 -149 c4 -93 10 -258 14 -367 l6
-199 87 6 c47 3 156 7 241 8 l155 3 8 -159 c4 -88 4 -163 0 -167 -4 -4 -197
-12 -428 -18 -231 -7 -434 -13 -451 -15 l-31 -4 -6 146 c-15 348 -30 913 -24
918 6 6 386 23 412 19 6 -1 13 -71 17 -171z m-977 142 c232 -64 388 -215 431
-415 40 -190 -4 -355 -132 -491 -251 -266 -829 -281 -1099 -29 -149 140 -203
376 -131 574 70 192 234 318 486 370 91 19 364 14 445 -9z m-1485 -56 c103
-30 178 -72 244 -138 57 -57 116 -157 116 -196 0 -19 -18 -26 -187 -68 -110
-27 -189 -43 -192 -37 -10 29 -72 97 -106 117 -35 20 -51 22 -123 19 -72 -3
-88 -7 -125 -33 -65 -46 -92 -103 -91 -194 1 -126 50 -191 168 -225 68 -20
158 -16 219 10 54 22 114 80 128 123 6 20 15 41 19 45 9 10 344 -20 377 -33
21 -9 21 -11 9 -62 -34 -143 -136 -266 -278 -336 -317 -156 -761 -101 -955
118 -40 44 -94 158 -108 227 -39 182 4 364 114 486 88 98 212 162 372 192 105
20 301 13 399 -15z m12260 -336 c12 -42 15 -45 39 -40 187 41 174 43 185 -26
6 -35 9 -38 29 -32 12 5 35 8 52 9 27 0 30 -4 38 -43 8 -42 9 -43 43 -36 69
13 66 15 84 -72 24 -118 21 -113 74 -101 25 6 48 8 51 5 3 -2 14 -47 25 -98
21 -104 17 -120 -32 -120 -16 0 -31 -6 -34 -14 -5 -12 7 -87 28 -176 2 -8 -14
-17 -42 -25 l-45 -11 3 -52 c3 -47 1 -52 -20 -56 -13 -3 -77 -18 -143 -34
-107 -25 -120 -30 -116 -48 3 -10 5 -32 5 -48 1 -27 -3 -31 -49 -43 -27 -7
-72 -14 -99 -15 -53 -3 -48 -8 -71 68 -3 8 -30 6 -95 -7 -51 -10 -95 -17 -100
-14 -4 2 -10 23 -14 45 -7 43 -21 49 -70 31 -33 -13 -40 -3 -62 94 -9 44 -21
84 -25 89 -4 4 -24 3 -44 -4 -20 -7 -41 -8 -45 -4 -5 5 -18 49 -29 99 -22 97
-21 100 32 112 16 3 31 11 33 17 2 6 -3 43 -11 81 -25 111 -36 187 -31 201 2
6 23 15 46 19 l42 7 -7 37 c-13 65 -14 63 60 82 39 10 81 19 94 19 22 0 23 2
16 55 -3 30 -3 55 2 56 4 0 40 8 78 19 107 28 110 27 125 -26z m-14575 -172
c5 -22 12 -43 15 -45 3 -3 43 3 90 14 47 10 90 19 96 19 6 0 15 -19 20 -42 10
-45 17 -48 84 -37 22 4 26 -1 36 -41 12 -48 17 -51 80 -36 l30 7 18 -78 c29
-126 21 -116 77 -109 47 6 49 6 55 -21 3 -15 13 -54 21 -87 8 -32 12 -64 9
-71 -2 -7 -23 -16 -45 -20 -48 -8 -48 -8 -21 -120 10 -44 16 -82 14 -85 -3 -3
-24 -9 -47 -15 -37 -9 -42 -13 -38 -35 12 -72 14 -70 -94 -100 -55 -15 -117
-31 -139 -34 l-38 -7 6 -49 c4 -27 2 -51 -2 -54 -19 -11 -172 -38 -187 -32 -8
3 -15 15 -15 26 0 12 -4 29 -9 39 -9 17 -14 16 -98 -1 -48 -10 -93 -16 -99
-14 -6 2 -14 23 -18 46 l-6 41 -52 -3 -52 -3 -14 55 c-7 30 -18 71 -23 91 l-9
36 -42 -8 c-24 -4 -46 -4 -50 -1 -10 10 -49 182 -43 192 3 4 21 11 40 14 20 4
38 13 41 20 3 8 -4 53 -15 102 -11 49 -23 110 -26 136 l-6 47 45 12 c49 12 50
14 37 71 -10 42 -20 37 124 69 64 15 63 14 50 82 -7 34 -5 37 16 38 13 1 53 9
89 19 36 9 69 16 75 15 5 -1 14 -20 20 -43z m12179 -10 c3 -5 14 -48 25 -96
10 -48 22 -90 25 -93 3 -3 96 15 208 40 112 25 204 45 205 43 1 -1 12 -47 24
-101 12 -55 23 -101 24 -103 1 -1 40 7 86 18 129 31 122 34 143 -69 10 -48 21
-93 25 -100 5 -8 34 -5 104 11 53 12 100 19 103 15 3 -3 26 -95 50 -203 25
-109 46 -200 48 -201 2 -2 47 6 100 18 54 12 101 17 105 13 12 -13 93 -395 86
-402 -8 -9 -144 -41 -172 -42 -15 0 -23 -6 -23 -17 1 -10 20 -103 44 -208 24
-104 40 -193 37 -197 -3 -4 -46 -16 -95 -27 -48 -10 -92 -23 -97 -28 -4 -4 1
-46 12 -92 11 -47 18 -91 17 -99 -2 -10 -32 -22 -83 -33 -44 -10 -96 -23 -115
-29 -19 -5 -102 -26 -185 -45 -208 -49 -225 -54 -225 -68 0 -7 9 -50 20 -97
10 -47 16 -88 12 -91 -4 -4 -70 -21 -147 -39 -248 -56 -255 -58 -263 -46 -12
15 -29 81 -37 139 -9 57 -8 57 -185 17 -19 -4 -73 -15 -120 -24 -47 -10 -93
-19 -102 -22 -22 -7 -31 14 -53 120 l-17 78 -31 -6 c-18 -3 -62 -12 -100 -19
-49 -10 -70 -11 -76 -3 -5 6 -15 43 -21 81 -7 39 -15 77 -20 86 -4 8 -18 62
-31 120 -12 57 -24 106 -25 108 -4 5 -114 -17 -162 -31 -41 -12 -49 -6 -61 52
-5 25 -19 90 -30 145 -11 55 -27 123 -34 152 -8 29 -11 56 -8 61 3 5 50 20
104 32 79 18 97 26 93 39 -2 9 -14 61 -26 116 -11 55 -27 127 -35 160 -34 141
-66 318 -58 325 4 4 48 17 97 28 48 12 91 23 93 26 3 3 -4 49 -17 101 -12 53
-20 99 -17 101 2 3 93 25 202 49 110 25 201 48 204 50 2 3 -6 48 -18 101 -12
53 -19 99 -17 102 6 5 369 89 393 91 6 1 14 -3 17 -7z m-2574 -1160 l0 -129
-260 -6 c-143 -4 -322 -10 -396 -14 l-136 -6 7 -261 c4 -144 10 -264 14 -268
3 -4 130 -3 281 2 151 5 327 11 392 13 l116 4 7 -124 c4 -68 5 -127 1 -130 -3
-3 -182 -12 -398 -19 -216 -7 -394 -13 -395 -13 -1 -1 1 -59 4 -129 l6 -129
-54 -6 c-30 -4 -88 -7 -130 -7 l-77 0 -6 133 c-12 268 -38 1178 -33 1183 6 6
689 31 910 33 l147 1 0 -128z m-1330 -42 l0 -130 -77 0 c-43 0 -276 -7 -518
-15 -242 -8 -446 -15 -454 -15 -12 0 -13 -22 -7 -132 4 -73 9 -134 11 -137 3
-2 180 2 395 9 215 7 393 11 395 8 2 -2 5 -60 6 -128 l1 -125 -308 -12 c-170
-6 -348 -12 -396 -12 l-88 -1 0 -130 c0 -111 2 -132 16 -137 9 -3 249 1 533
10 283 8 516 15 517 14 1 -1 4 -59 8 -128 l6 -127 -142 -6 c-234 -10 -1179
-38 -1183 -34 -1 2 -8 170 -14 373 -7 204 -16 498 -21 655 -5 156 -7 286 -5
288 1 2 140 8 307 13 166 5 407 13 533 18 127 4 287 9 358 9 l127 2 0 -130z
m-1596 -52 c10 -220 39 -1179 35 -1182 -2 -2 -61 -7 -131 -10 l-128 -8 -1 84
c-1 46 -6 225 -13 398 l-11 315 -132 -3 -133 -4 0 64 c0 35 -3 93 -6 129 l-7
66 134 9 134 9 -4 131 -3 132 129 1 130 2 7 -133z m-1064 -33 l5 -130 133 4
132 3 1 -93 c1 -52 3 -108 5 -126 2 -18 0 -34 -5 -37 -4 -3 -60 -6 -123 -7
-63 0 -120 -4 -126 -8 -7 -4 -7 -122 3 -396 7 -215 11 -392 10 -395 -2 -3 -60
-7 -129 -9 l-125 -3 -5 44 c-3 24 -12 293 -21 598 -8 305 -16 582 -18 615 l-2
60 70 6 c39 3 97 5 130 5 l60 -1 5 -130z m-799 3 c1 -57 3 -113 4 -125 3 -30
-6 -31 -290 -38 -126 -3 -291 -8 -366 -12 l-136 -6 -6 124 c-2 68 -2 127 2
131 7 8 403 24 649 26 l142 2 1 -102z m-1329 -60 c2 -68 1 -126 -2 -129 -6 -8
-1041 -41 -1049 -34 -3 3 -7 62 -9 130 l-4 125 63 1 c35 0 219 6 409 13 190 7
400 14 467 15 l121 1 4 -122z m6389 15 c0 -27 4 -142 9 -258 4 -115 5 -213 2
-217 -4 -3 -62 -8 -129 -10 l-123 -3 -4 40 c-3 22 -8 140 -11 262 l-6 222 98
4 c54 1 113 4 131 5 32 2 32 2 33 -45z m-4787 -175 c6 -89 26 -768 26 -894 l0
-91 -121 -8 c-97 -5 -123 -4 -130 7 -5 7 -9 65 -9 129 0 85 -3 118 -12 121
-20 6 -779 -20 -786 -27 -4 -3 -7 -63 -7 -133 l0 -127 -127 -3 -128 -3 0 38
c0 21 -7 227 -15 458 -8 231 -15 453 -15 493 l0 72 128 0 129 0 6 -157 c4 -87
7 -204 7 -260 0 -56 4 -104 9 -108 6 -3 139 -1 298 5 158 5 328 10 378 11 139
3 127 -13 120 163 -3 83 -8 201 -11 263 l-5 112 108 4 c59 1 118 4 130 5 20 2
22 -4 27 -70z m-2660 -95 c3 -43 8 -197 11 -343 3 -146 8 -286 11 -312 4 -35
2 -49 -8 -52 -7 -2 -66 -7 -130 -9 l-117 -5 -5 61 c-8 90 -25 721 -19 730 2 4
60 7 128 7 l123 0 6 -77z m3736 -203 l0 -130 -129 0 -130 0 -3 126 c-2 69 -1
128 1 130 2 2 62 4 133 4 l128 0 0 -130z m8870 7 c0 -10 -197 -117 -215 -117
-3 0 -5 8 -5 18 0 12 26 30 83 59 l82 41 -82 37 c-70 32 -83 42 -83 62 0 22 3
22 110 -32 61 -30 110 -61 110 -68z m-11528 -187 c3 -124 9 -300 12 -391 l6
-167 -83 -6 c-113 -8 -966 -30 -971 -25 -2 2 -5 60 -7 129 l-4 125 65 2 c36 2
213 7 394 13 181 6 331 12 334 14 2 3 1 64 -3 136 l-8 132 -262 -7 -263 -7 -7
103 c-4 57 -5 115 -4 129 l4 25 310 11 c171 6 348 11 395 10 l85 -1 7 -225z
m6396 -231 l3 -126 -122 -8 c-67 -4 -125 -3 -130 2 -4 4 -9 62 -10 128 l-2
120 69 6 c38 3 96 5 129 5 l60 -1 3 -126z m-12676 -165 c-53 -14 -72 -12 -72
7 0 5 28 9 63 8 l62 0 -53 -15z m2759 -142 c9 -40 18 -74 20 -76 2 -2 72 11
154 30 83 18 155 34 162 34 7 0 20 -35 30 -81 16 -71 20 -79 38 -75 11 3 46
11 78 18 69 15 70 14 87 -79 14 -72 14 -72 115 -48 32 8 61 12 64 10 2 -3 19
-70 37 -150 17 -80 34 -152 37 -159 5 -11 18 -11 81 2 41 9 78 14 81 11 3 -3
21 -75 40 -159 24 -102 32 -156 25 -160 -6 -3 -40 -12 -75 -19 -36 -7 -67 -17
-70 -22 -3 -4 10 -79 30 -165 19 -87 35 -158 35 -159 0 -1 -36 -10 -80 -19
-44 -10 -80 -21 -80 -26 0 -4 7 -40 16 -79 9 -40 14 -74 12 -76 -2 -3 -33 -11
-69 -19 -253 -58 -409 -102 -409 -116 0 -9 7 -42 15 -75 9 -32 12 -62 8 -66
-8 -8 -17 -10 -105 -28 -26 -6 -73 -17 -105 -25 -121 -29 -111 -30 -122 11 -6
21 -16 58 -22 81 -10 41 -12 43 -37 37 -15 -4 -79 -18 -142 -30 -63 -13 -122
-26 -131 -30 -22 -8 -28 3 -49 84 l-17 66 -39 -3 c-21 -2 -54 -8 -72 -13 -41
-14 -58 -2 -66 49 -4 20 -18 88 -32 150 -29 127 -25 123 -124 97 -36 -9 -58
-11 -64 -5 -9 9 -20 52 -46 180 -5 25 -13 65 -19 90 -12 56 -4 64 81 79 33 6
62 12 64 13 1 2 -11 64 -27 138 -17 74 -37 171 -45 215 -8 44 -17 95 -21 113
-5 27 -3 32 14 32 17 0 134 28 139 33 2 1 -4 29 -12 62 -25 106 -34 97 139
134 83 18 155 36 159 40 4 3 0 39 -9 79 -13 58 -14 75 -4 81 7 5 67 20 134 35
67 15 123 29 126 32 3 3 17 4 30 2 23 -3 27 -11 42 -76z m8059 -1090 l0 -789
-302 2 c-167 1 -309 0 -315 -3 -9 -3 -13 -26 -13 -68 l0 -64 -29 0 c-26 0 -30
-4 -33 -32 -3 -29 -7 -33 -35 -36 -29 -3 -33 -7 -33 -33 l0 -29 -1182 -2
-1183 -3 -3 -27 c-3 -24 -8 -28 -33 -28 -26 0 -29 3 -29 30 0 27 -3 30 -30 30
-27 0 -30 3 -30 29 0 26 -4 30 -32 33 -29 3 -33 7 -36 36 -3 28 -7 32 -33 32
-25 0 -29 4 -29 29 0 26 -4 30 -32 33 -26 3 -32 8 -35 33 -3 16 -6 31 -7 32
-2 2 -293 3 -647 4 -354 0 -656 3 -671 6 l-28 5 0 777 c0 428 3 781 7 784 3 4
1083 7 2400 7 l2393 0 0 -788z m3786 -3 c4 -22 13 -43 20 -46 7 -2 48 3 91 12
43 10 82 18 88 19 5 0 14 -19 21 -44 12 -48 17 -51 81 -36 32 7 33 7 39 -32 9
-58 15 -63 54 -52 19 6 40 10 47 10 6 0 21 -41 33 -96 l22 -95 41 6 c23 4 46
8 51 9 5 0 18 -41 29 -92 21 -101 19 -111 -28 -112 -45 -1 -47 -11 -25 -108
11 -51 20 -94 20 -96 0 -2 -15 -7 -32 -11 -68 -14 -66 -11 -56 -61 6 -25 8
-48 5 -50 -5 -5 -255 -73 -270 -74 -5 0 -6 -22 -2 -50 6 -46 5 -50 -17 -54
-12 -3 -54 -13 -91 -22 -37 -9 -74 -14 -81 -11 -7 3 -16 24 -20 46 -3 23 -9
41 -12 41 -5 0 -139 -26 -176 -34 -13 -3 -21 7 -31 43 -14 48 -17 49 -73 37
-30 -7 -31 -6 -47 46 -8 29 -19 71 -24 93 l-9 40 -51 -3 -52 -4 -6 39 c-4 21
-13 63 -21 92 -14 60 -7 81 28 81 28 0 58 18 53 33 -7 18 -55 249 -55 263 0 6
21 15 46 19 l45 6 -6 53 -7 52 89 19 c48 10 92 21 96 25 5 4 3 26 -3 50 -6 23
-10 44 -8 46 4 4 166 42 185 43 7 1 16 -17 19 -40z m-14207 -364 c13 -51 16
-52 106 -30 97 23 103 22 116 -31 13 -49 6 -47 84 -28 20 5 25 2 30 -23 15
-66 21 -73 60 -62 20 6 42 8 49 6 6 -3 20 -46 31 -96 l19 -92 51 6 51 7 17
-79 c22 -103 22 -123 -2 -123 -11 0 -31 -4 -44 -9 l-25 -10 19 -87 c11 -48 18
-93 15 -100 -2 -6 -23 -15 -46 -19 l-42 -7 6 -40 c4 -22 7 -44 9 -50 1 -7 -59
-26 -141 -46 l-144 -35 7 -47 7 -48 -56 -16 c-30 -9 -75 -19 -100 -22 l-45 -7
-12 47 c-13 51 -3 50 -122 22 -38 -9 -72 -16 -76 -16 -5 0 -14 21 -20 46 l-12
45 -51 -3 -52 -3 -21 90 c-18 77 -24 90 -40 88 -11 -1 -33 -3 -49 -5 -28 -3
-29 -1 -46 72 -30 126 -31 123 15 136 l40 11 -3 49 c-1 27 -13 92 -26 144 -22
86 -23 96 -8 108 9 6 25 12 36 12 39 0 46 12 35 59 -5 24 -8 45 -7 47 2 1 46
12 97 23 52 12 95 22 97 24 2 1 -2 22 -8 45 -6 24 -8 45 -5 48 6 6 150 41 178
43 12 1 20 -13 28 -44z m15846 -1067 c3 -13 13 -60 24 -106 10 -46 21 -85 24
-88 3 -3 106 17 228 44 123 28 225 49 226 48 1 -1 13 -50 26 -109 13 -59 26
-109 28 -111 2 -3 54 6 114 19 60 13 111 22 113 21 2 -2 14 -52 27 -111 14
-60 26 -109 27 -111 2 -1 50 9 108 22 58 13 110 22 116 20 6 -2 14 -24 17 -48
4 -23 10 -53 13 -65 l6 -23 -246 0 c-212 0 -246 2 -246 15 0 8 -9 15 -20 15
-11 0 -37 -7 -57 -15 -19 -8 -64 -15 -98 -15 l-63 0 -18 95 c-10 52 -20 99
-23 104 -4 6 -32 4 -71 -5 -60 -13 -128 -27 -190 -38 -104 -19 -606 -137 -622
-146 -10 -6 -76 -10 -146 -10 l-129 0 -21 92 c-13 57 -17 95 -11 98 5 4 107
28 226 54 120 26 219 49 220 50 2 2 -8 51 -22 111 -14 59 -23 110 -20 114 7 7
400 98 432 100 16 1 24 -6 28 -21z m-528 -594 c-3 -3 -12 -4 -19 -1 -8 3 -5 6
6 6 11 1 17 -2 13 -5z m-11862 -464 c3 -5 -1 -10 -9 -10 -9 0 -16 5 -16 10 0
6 4 10 9 10 6 0 13 -4 16 -10z m655 1 c0 -5 -6 -12 -12 -14 -10 -4 -9 -8 2
-16 10 -7 11 -11 3 -11 -8 0 -13 -15 -13 -40 0 -22 -4 -40 -10 -40 -5 0 -10
18 -10 40 0 25 -5 40 -12 40 -9 0 -9 3 -2 8 6 4 13 15 17 25 7 17 37 24 37 8z
m3807 -35 c-4 -9 -16 -16 -27 -16 -15 0 -20 7 -20 24 0 13 6 26 13 29 18 7 41
-19 34 -37z m4344 13 c12 -23 -5 -26 -27 -4 -8 8 -21 12 -29 8 -21 -7 -30 -50
-15 -68 15 -18 47 -20 52 -3 2 6 10 9 17 7 21 -7 -15 -39 -44 -39 -64 0 -76
104 -15 122 24 7 50 -3 61 -23z m804 21 c3 -5 -1 -10 -9 -10 -9 0 -16 5 -16
10 0 6 4 10 9 10 6 0 13 -4 16 -10z m-9667 -12 c17 -17 15 -74 -4 -92 -8 -9
-31 -16 -50 -16 l-34 0 0 60 0 60 38 0 c21 0 43 -5 50 -12z m4417 3 c-37 -8
-49 -41 -11 -34 17 4 27 -1 35 -16 22 -41 -15 -73 -63 -55 -28 11 -17 24 14
18 26 -6 30 -4 30 15 0 17 -6 21 -30 21 -30 0 -37 11 -24 44 4 11 18 16 43 15
35 -1 35 -1 6 -8z m170 1 c-6 -4 -28 -31 -49 -59 -21 -29 -42 -53 -47 -53 -5
0 9 24 31 53 22 28 40 55 40 60 0 4 8 7 18 7 10 0 13 -3 7 -8z m165 -50 l0
-59 -35 -1 c-29 -1 -36 3 -41 23 -10 40 -1 60 29 63 15 2 27 9 27 18 0 8 5 14
10 14 6 0 10 -26 10 -58z m250 0 l0 -59 -35 -1 c-29 -1 -36 3 -41 23 -10 40
-1 60 29 63 15 2 27 9 27 18 0 8 5 14 10 14 6 0 10 -26 10 -58z m4960 -2 c0
-33 -4 -60 -10 -60 -6 0 -10 27 -10 60 0 33 4 60 10 60 6 0 10 -27 10 -60z
m-4409 38 c1 -7 0 -26 -1 -41 -1 -15 4 -35 10 -43 10 -11 9 -14 -9 -14 -20 0
-28 16 -32 65 -2 36 1 45 16 45 8 0 15 -6 16 -12z m2918 -14 c12 -15 21 -35
21 -45 0 -16 8 -19 45 -19 l45 0 0 -140 0 -140 -160 0 -160 0 0 140 0 140 45
0 c39 0 45 3 45 20 0 29 44 70 74 70 15 0 33 -11 45 -26z m-8729 -156 l0 -163
-202 3 -203 2 -3 160 -2 160 205 0 205 0 0 -162z m310 117 c0 -25 -4 -45 -10
-45 -5 0 -10 20 -10 45 0 25 5 45 10 45 6 0 10 -20 10 -45z m46 20 c3 -14 10
-25 14 -25 4 0 11 11 14 25 4 14 13 25 21 25 11 0 11 -8 -5 -42 -10 -24 -24
-43 -31 -43 -7 0 -20 19 -30 43 -15 35 -16 42 -4 42 8 0 17 -11 21 -25z m152
-2 c3 -20 -1 -23 -27 -23 -17 0 -31 -5 -31 -11 0 -6 11 -9 25 -7 13 2 24 -1
25 -7 0 -16 -52 -11 -63 6 -5 9 -7 28 -3 43 6 24 11 27 39 24 24 -2 33 -8 35
-25z m72 17 c0 -4 -7 -10 -15 -14 -9 -3 -15 -18 -15 -36 0 -16 -4 -30 -10 -30
-5 0 -10 20 -10 44 0 40 2 44 25 44 14 0 25 -4 25 -8z m90 -1 c0 -6 -8 -8 -19
-4 -32 10 -33 -12 -1 -24 17 -5 30 -14 30 -18 0 -28 -61 -45 -75 -22 -10 16 3
23 18 11 8 -7 17 -9 20 -5 13 12 7 23 -12 23 -23 0 -35 15 -27 35 6 17 66 21
66 4z m94 -5 c3 -9 6 -28 6 -44 0 -26 -3 -28 -37 -27 -31 2 -39 6 -41 24 -2
16 3 22 19 25 12 2 24 9 27 16 3 9 -3 11 -24 6 -19 -5 -25 -4 -20 5 11 17 63
14 70 -5z m96 5 c0 -6 -8 -8 -19 -4 -32 10 -33 -12 -1 -24 17 -5 30 -14 30
-18 0 -28 -61 -45 -75 -22 -10 16 3 23 18 11 8 -7 17 -9 20 -5 13 12 7 23 -12
23 -23 0 -35 15 -27 35 6 17 66 21 66 4z m211 -10 c24 -46 -33 -93 -69 -57
-13 13 -16 60 -5 71 15 16 63 6 74 -14z m69 11 c0 -4 -7 -10 -15 -14 -9 -3
-15 -18 -15 -36 0 -16 -4 -30 -10 -30 -5 0 -10 20 -10 44 0 40 2 44 25 44 14
0 25 -4 25 -8z m148 -37 c2 -24 -1 -43 -7 -43 -5 0 -11 16 -13 35 -2 20 -7 35
-13 35 -5 0 -11 -15 -13 -35 -4 -46 -20 -45 -24 3 -2 25 -8 37 -18 37 -10 0
-16 -12 -18 -37 -4 -53 -22 -48 -22 6 l0 44 63 -2 62 -1 3 -42z m96 31 c3 -9
6 -28 6 -44 0 -26 -3 -28 -37 -27 -31 2 -39 6 -41 24 -2 16 3 22 19 25 12 2
24 9 27 16 3 9 -3 11 -24 6 -19 -5 -25 -4 -20 5 11 17 63 14 70 -5z m96 5 c0
-6 -8 -8 -19 -4 -32 10 -33 -12 -1 -24 17 -5 30 -14 30 -18 0 -28 -61 -45 -75
-22 -10 16 3 23 18 11 8 -7 17 -9 20 -5 13 12 7 23 -12 23 -23 0 -35 15 -27
35 6 17 66 21 66 4z m3638 -16 c3 -20 -1 -23 -27 -23 -17 0 -31 -5 -31 -11 0
-6 11 -9 25 -7 13 2 24 -1 25 -7 0 -16 -52 -11 -63 6 -5 9 -7 28 -3 43 6 24
11 27 39 24 24 -2 33 -8 35 -25z m250 0 c3 -20 -1 -23 -27 -23 -17 0 -31 -5
-31 -11 0 -6 11 -9 25 -7 13 2 24 -1 25 -7 0 -16 -52 -11 -63 6 -5 9 -7 28 -3
43 6 24 11 27 39 24 24 -2 33 -8 35 -25z m92 16 c0 -6 -8 -8 -19 -4 -32 10
-33 -12 -1 -24 17 -5 30 -14 30 -18 0 -28 -61 -45 -75 -22 -10 16 3 23 18 11
8 -7 17 -9 20 -5 13 12 7 23 -12 23 -23 0 -35 15 -27 35 6 17 66 21 66 4z m95
0 c11 -16 -3 -23 -19 -10 -20 17 -36 5 -36 -26 0 -23 3 -25 31 -19 22 4 29 2
27 -7 -6 -17 -46 -21 -64 -7 -14 13 -19 61 -7 73 10 11 61 8 68 -4z m106 -10
c24 -46 -33 -93 -69 -57 -13 13 -16 60 -5 71 15 16 63 6 74 -14z m97 -26 c2
-26 -1 -43 -7 -43 -6 0 -11 15 -11 33 0 19 -3 37 -7 40 -12 13 -33 -15 -33
-44 0 -16 -4 -29 -10 -29 -5 0 -10 20 -10 44 l0 44 38 -1 c36 -2 37 -3 40 -44z
m163 26 c24 -46 -33 -93 -69 -57 -13 13 -16 60 -5 71 15 16 63 6 74 -14z
m3310 0 c24 -46 -33 -93 -69 -57 -13 13 -16 60 -5 71 15 16 63 6 74 -14z m147
-26 c2 -24 -1 -43 -7 -43 -5 0 -11 16 -13 35 -2 20 -7 35 -13 35 -5 0 -11 -15
-13 -35 -4 -46 -20 -45 -24 3 -2 25 -8 37 -18 37 -10 0 -16 -12 -18 -37 -4
-53 -22 -48 -22 6 l0 44 63 -2 62 -1 3 -42z m99 35 c32 -26 3 -86 -37 -75 -15
4 -20 0 -20 -14 0 -10 -4 -19 -10 -19 -6 0 -10 26 -10 58 l0 59 32 1 c18 0 38
-4 45 -10z m83 2 c0 -4 -7 -10 -15 -14 -9 -3 -15 -18 -15 -36 0 -16 -4 -30
-10 -30 -5 0 -10 20 -10 44 0 40 2 44 25 44 14 0 25 -4 25 -8z m94 -6 c3 -9 6
-28 6 -44 0 -26 -3 -28 -37 -27 -31 2 -39 6 -41 24 -2 16 3 22 19 25 12 2 24
9 27 16 3 9 -3 11 -24 6 -19 -5 -25 -4 -20 5 11 17 63 14 70 -5z m96 5 c0 -6
-8 -8 -19 -4 -32 10 -33 -12 -1 -24 17 -5 30 -14 30 -18 0 -28 -61 -45 -75
-22 -10 16 3 23 18 11 8 -7 17 -9 20 -5 13 12 7 23 -12 23 -23 0 -35 15 -27
35 6 17 66 21 66 4z m130 0 c0 -6 -8 -8 -19 -4 -32 10 -33 -12 -1 -24 17 -5
30 -14 30 -18 0 -28 -61 -45 -75 -22 -10 16 3 23 18 11 8 -7 17 -9 20 -5 13
12 7 23 -12 23 -23 0 -35 15 -27 35 6 17 66 21 66 4z m40 -34 c0 -25 -4 -45
-10 -45 -5 0 -10 20 -10 45 0 25 5 45 10 45 6 0 10 -20 10 -45z m148 -2 c2
-24 -1 -43 -7 -43 -5 0 -11 16 -13 35 -2 20 -7 35 -13 35 -5 0 -11 -15 -13
-35 -4 -46 -20 -45 -24 3 -2 25 -8 37 -18 37 -10 0 -16 -12 -18 -37 -4 -53
-22 -48 -22 6 l0 44 63 -2 62 -1 3 -42z m99 35 c32 -26 3 -86 -37 -75 -15 4
-20 0 -20 -14 0 -10 -4 -19 -10 -19 -6 0 -10 26 -10 58 l0 59 32 1 c18 0 38
-4 45 -10z m151 -15 c3 -20 -1 -23 -27 -23 -17 0 -31 -5 -31 -11 0 -6 11 -9
25 -7 13 2 24 -1 25 -7 0 -16 -52 -11 -63 6 -5 9 -7 28 -3 43 6 24 11 27 39
24 24 -2 33 -8 35 -25z m92 16 c0 -6 -8 -8 -19 -4 -32 10 -33 -12 -1 -24 17
-5 30 -14 30 -18 0 -28 -61 -45 -75 -22 -10 16 3 23 18 11 8 -7 17 -9 20 -5
13 12 7 23 -12 23 -23 0 -35 15 -27 35 6 17 66 21 66 4z m-6152 -31 c32 -32
-4 -87 -48 -73 -25 8 -37 50 -20 70 15 18 51 20 68 3z m192 4 c0 -14 -259
-266 -267 -259 -7 8 245 267 259 267 5 0 8 -3 8 -8z m408 -25 c3 -22 -1 -27
-18 -27 -26 0 -37 25 -20 45 18 22 34 13 38 -18z m-420 -159 c7 -7 12 -25 12
-40 0 -21 -6 -29 -24 -34 -28 -7 -42 -1 -55 25 -21 38 37 79 67 49z m1427 -8
c3 -5 -1 -10 -9 -10 -9 0 -16 5 -16 10 0 6 4 10 9 10 6 0 13 -4 16 -10z m290
0 c3 -5 -1 -10 -9 -10 -9 0 -16 5 -16 10 0 6 4 10 9 10 6 0 13 -4 16 -10z
m3135 -5 c-7 -8 -16 -15 -21 -15 -5 0 -6 7 -3 15 4 8 13 15 21 15 13 0 13 -3
3 -15z m175 5 c3 -5 -1 -10 -9 -10 -9 0 -16 5 -16 10 0 6 4 10 9 10 6 0 13 -4
16 -10z m-9207 -12 c17 -17 15 -74 -4 -92 -8 -9 -31 -16 -50 -16 l-34 0 0 60
0 60 38 0 c21 0 43 -5 50 -12z m4415 -25 l22 -38 3 38 c2 24 8 37 18 37 11 0
14 -14 14 -60 0 -75 -16 -78 -59 -12 l-31 47 6 -47 c6 -40 4 -48 -10 -48 -13
0 -16 11 -16 60 0 72 19 80 53 23z m4427 29 c0 -5 -13 -7 -30 -4 -25 4 -30 1
-30 -17 0 -17 6 -21 30 -21 17 0 30 -4 30 -10 0 -5 -13 -10 -30 -10 -20 0 -30
-5 -30 -15 0 -10 10 -15 30 -15 17 0 30 -4 30 -10 0 -5 -18 -10 -40 -10 l-40
0 0 60 0 60 40 0 c22 0 40 -4 40 -8z m460 -50 l0 -59 -35 -1 c-29 -1 -36 3
-41 23 -10 40 -1 60 29 63 15 2 27 9 27 18 0 8 5 14 10 14 6 0 10 -26 10 -58z
m-8329 36 c1 -7 0 -26 -1 -41 -1 -15 4 -35 10 -43 10 -11 9 -14 -9 -14 -20 0
-28 16 -32 65 -2 36 1 45 16 45 8 0 15 -6 16 -12z m-863 -35 c3 -20 -1 -23
-27 -23 -17 0 -31 -5 -31 -11 0 -6 11 -9 25 -7 13 2 24 -1 25 -7 0 -16 -52
-11 -63 6 -5 9 -7 28 -3 43 6 24 11 27 39 24 24 -2 33 -8 35 -25z m139 15 c32
-26 3 -86 -37 -75 -15 4 -20 0 -20 -14 0 -10 -4 -19 -10 -19 -6 0 -10 26 -10
58 l0 59 32 1 c18 0 38 -4 45 -10z m107 -4 c3 -9 6 -28 6 -44 0 -26 -3 -28
-37 -27 -31 2 -39 6 -41 24 -2 16 3 22 19 25 12 2 24 9 27 16 3 9 -3 11 -24 6
-19 -5 -25 -4 -20 5 11 17 63 14 70 -5z m106 -43 c0 -50 -3 -61 -20 -66 -17
-5 -60 9 -60 20 0 3 14 2 30 -1 23 -5 30 -3 30 9 0 11 -6 14 -15 11 -22 -9
-45 14 -45 46 0 35 6 40 47 40 l33 0 0 -59z m104 43 c3 -9 6 -28 6 -44 0 -26
-3 -28 -37 -27 -31 2 -39 6 -41 24 -2 16 3 22 19 25 12 2 24 9 27 16 3 9 -3
11 -24 6 -19 -5 -25 -4 -20 5 11 17 63 14 70 -5z m154 -31 c2 -24 -1 -43 -7
-43 -5 0 -11 16 -13 35 -4 46 -22 46 -26 0 -4 -46 -20 -45 -24 3 -2 25 -8 37
-18 37 -10 0 -16 -12 -18 -37 -4 -53 -22 -48 -22 6 l0 44 63 -2 62 -1 3 -42z
m100 20 c3 -20 -1 -23 -27 -23 -17 0 -31 -5 -31 -11 0 -6 11 -9 25 -7 13 2 24
-1 25 -7 0 -16 -52 -11 -63 6 -5 9 -7 28 -3 43 6 24 11 27 39 24 24 -2 33 -8
35 -25z m100 -20 c2 -26 -1 -43 -7 -43 -6 0 -11 15 -11 33 0 19 -3 37 -7 40
-12 13 -33 -15 -33 -44 0 -16 -4 -29 -10 -29 -5 0 -10 20 -10 44 l0 44 38 -1
c36 -2 37 -3 40 -44z m163 26 c24 -46 -33 -93 -69 -57 -13 13 -16 60 -5 71 15
16 63 6 74 -14z m3483 5 c3 -9 6 -28 6 -44 0 -26 -3 -28 -37 -27 -31 2 -39 6
-41 24 -2 16 3 22 19 25 12 2 24 9 27 16 3 9 -3 11 -24 6 -19 -5 -25 -4 -20 5
11 17 63 14 70 -5z m96 5 c0 -6 -8 -8 -19 -4 -32 10 -33 -12 -1 -24 17 -5 30
-14 30 -18 0 -28 -61 -45 -75 -22 -10 16 3 23 18 11 8 -7 17 -9 20 -5 13 12 7
23 -12 23 -23 0 -35 15 -27 35 6 17 66 21 66 4z m135 0 c11 -16 -3 -23 -19
-10 -20 17 -36 5 -36 -26 0 -23 3 -25 31 -19 22 4 29 2 27 -7 -6 -17 -46 -21
-64 -7 -14 13 -19 61 -7 73 10 11 61 8 68 -4z m106 -10 c24 -46 -33 -93 -69
-57 -13 13 -16 60 -5 71 15 16 63 6 74 -14z m147 -26 c2 -24 -1 -43 -7 -43 -5
0 -11 16 -13 35 -4 46 -22 46 -26 0 -4 -46 -20 -45 -24 3 -2 25 -8 37 -18 37
-10 0 -16 -12 -18 -37 -4 -53 -22 -48 -22 6 l0 44 63 -2 62 -1 3 -42z m99 35
c32 -26 3 -86 -37 -75 -15 4 -20 0 -20 -14 0 -10 -4 -19 -10 -19 -6 0 -10 26
-10 58 l0 59 32 1 c18 0 38 -4 45 -10z m83 2 c0 -4 -7 -10 -15 -14 -9 -3 -15
-18 -15 -36 0 -16 -4 -30 -10 -30 -5 0 -10 20 -10 44 0 40 2 44 25 44 14 0 25
-4 25 -8z m94 -6 c3 -9 6 -28 6 -44 0 -26 -3 -28 -37 -27 -31 2 -39 6 -41 24
-2 16 3 22 19 25 12 2 24 9 27 16 3 9 -3 11 -24 6 -19 -5 -25 -4 -20 5 11 17
63 14 70 -5z m96 5 c0 -6 -8 -8 -19 -4 -32 10 -33 -12 -1 -24 17 -5 30 -14 30
-18 0 -28 -61 -45 -75 -22 -10 16 3 23 18 11 8 -7 17 -9 20 -5 13 12 7 23 -12
23 -23 0 -35 15 -27 35 6 17 66 21 66 4z m86 -14 c3 -14 10 -25 14 -25 4 0 11
11 14 25 4 14 13 25 21 25 11 0 11 -8 -5 -42 -10 -24 -24 -43 -31 -43 -7 0
-20 19 -30 43 -15 35 -16 42 -4 42 8 0 17 -11 21 -25z m94 -20 c0 -25 -4 -45
-10 -45 -5 0 -10 20 -10 45 0 25 5 45 10 45 6 0 10 -20 10 -45z m94 29 c3 -9
6 -28 6 -44 0 -26 -3 -28 -37 -27 -31 2 -39 6 -41 24 -2 16 3 22 19 25 12 2
24 9 27 16 3 9 -3 11 -24 6 -19 -5 -25 -4 -20 5 11 17 63 14 70 -5z m143 4
c32 -26 3 -86 -37 -75 -15 4 -20 0 -20 -14 0 -10 -4 -19 -10 -19 -6 0 -10 26
-10 58 l0 59 32 1 c18 0 38 -4 45 -10z m53 -33 c0 -25 -4 -45 -10 -45 -5 0
-10 20 -10 45 0 25 5 45 10 45 6 0 10 -20 10 -45z m49 33 c11 -10 14 -10 18 0
3 6 11 12 19 12 13 0 13 -3 0 -21 -13 -19 -13 -24 1 -45 17 -27 3 -33 -18 -8
-11 14 -13 14 -21 0 -5 -9 -16 -16 -25 -16 -14 0 -14 3 2 20 15 17 16 24 7 45
-12 27 -4 33 17 13z m3011 2 c0 -4 -7 -10 -15 -14 -9 -3 -15 -18 -15 -36 0
-16 -4 -30 -10 -30 -5 0 -10 20 -10 44 0 40 2 44 25 44 14 0 25 -4 25 -8z m94
-6 c3 -9 6 -28 6 -44 0 -26 -3 -28 -37 -27 -31 2 -39 6 -41 24 -2 16 3 22 19
25 12 2 24 9 27 16 3 9 -3 11 -24 6 -19 -5 -25 -4 -20 5 11 17 63 14 70 -5z
m103 4 c32 -26 3 -86 -37 -75 -15 4 -20 0 -20 -14 0 -10 -4 -19 -10 -19 -6 0
-10 26 -10 58 l0 59 32 1 c18 0 38 -4 45 -10z m53 -33 c0 -25 -4 -45 -10 -45
-5 0 -10 20 -10 45 0 25 5 45 10 45 6 0 10 -20 10 -45z m204 29 c3 -9 6 -28 6
-44 0 -26 -3 -28 -37 -27 -31 2 -39 6 -41 24 -2 16 3 22 19 25 12 2 24 9 27
16 3 9 -3 11 -24 6 -19 -5 -25 -4 -20 5 11 17 63 14 70 -5z m96 5 c0 -6 -8 -8
-19 -4 -32 10 -33 -12 -1 -24 17 -5 30 -14 30 -18 0 -28 -61 -45 -75 -22 -10
16 3 23 18 11 8 -7 17 -9 20 -5 13 12 7 23 -12 23 -23 0 -35 15 -27 35 6 17
66 21 66 4z"/>
<path d="M13131 7345 c-115 -33 -181 -114 -181 -226 0 -77 19 -129 67 -176
110 -110 347 -92 436 33 52 74 52 203 0 278 -58 84 -201 125 -322 91z"/>
<path d="M11722 7138 c-29 -95 -53 -176 -52 -180 0 -11 227 -10 234 0 5 9
-116 352 -124 352 -3 0 -29 -78 -58 -172z"/>
<path d="M6760 7149 c-152 -30 -233 -150 -200 -296 14 -64 61 -123 124 -155
57 -30 165 -35 242 -13 147 43 216 204 145 343 -49 96 -181 148 -311 121z"/>
<path d="M17925 6915 c-5 -2 -44 -10 -85 -19 -41 -10 -112 -27 -158 -38 l-84
-21 7 -36 c4 -20 9 -38 11 -41 6 -5 266 46 337 67 39 11 47 18 47 38 0 49 -25
66 -75 50z"/>
<path d="M18053 6839 c-36 -10 -39 -21 -23 -78 5 -20 14 -55 20 -77 l10 -42
38 9 c20 5 42 9 48 9 12 0 59 -184 50 -198 -3 -5 -24 -12 -46 -16 -22 -3 -40
-12 -40 -19 0 -6 9 -48 19 -92 l18 -80 34 3 c56 4 59 7 48 44 -16 57 -12 66
31 73 22 4 42 11 45 16 5 7 -16 128 -29 170 -2 8 -14 58 -26 112 l-23 98 -50
-3 -51 -3 -9 43 c-9 44 -12 46 -64 31z"/>
<path d="M3335 6738 c-27 -5 -108 -23 -178 -40 l-129 -30 7 -37 c4 -20 10 -39
13 -43 7 -7 108 14 279 57 34 8 71 15 82 15 22 0 25 9 15 59 -7 34 -9 34 -89
19z"/>
<path d="M3505 6675 c-5 -2 -22 -6 -36 -9 l-26 -6 14 -57 c32 -138 26 -128 81
-125 l49 4 22 -92 c12 -50 19 -95 16 -99 -2 -5 -23 -11 -45 -15 -47 -7 -48
-11 -23 -121 14 -67 19 -75 39 -75 13 0 34 5 47 11 22 10 24 15 16 48 -13 56
-12 59 31 66 22 4 42 10 45 15 4 7 -23 145 -60 307 l-17 73 -52 -6 -52 -6 -9
43 c-10 41 -19 51 -40 44z"/>
<path d="M15640 6489 c-47 -10 -159 -34 -250 -54 -91 -20 -190 -42 -220 -50
-30 -9 -92 -24 -138 -34 -46 -10 -85 -21 -88 -24 -3 -3 -1 -30 5 -59 23 -105
31 -128 48 -128 9 0 64 11 122 24 58 14 147 34 196 45 89 19 254 56 390 87
112 26 105 15 81 122 -24 106 -13 101 -146 71z"/>
<path d="M15917 6334 c-48 -12 -90 -24 -92 -26 -4 -4 17 -112 51 -259 33 -144
34 -148 48 -143 7 3 53 13 100 23 88 18 97 16 103 -18 1 -8 9 -47 18 -85 36
-156 53 -233 59 -267 l6 -36 -82 -18 c-46 -10 -93 -21 -104 -26 l-22 -8 18
-73 c24 -102 58 -247 65 -285 4 -18 10 -35 14 -37 4 -3 49 5 99 16 104 24 103
22 77 118 -19 73 -19 120 0 121 8 1 18 2 23 3 4 1 38 8 76 16 37 8 70 20 73
27 3 7 -5 56 -16 110 -12 54 -30 139 -41 188 -54 251 -113 501 -119 508 -4 4
-50 -1 -101 -13 -52 -11 -98 -16 -102 -12 -4 4 -15 45 -24 90 -9 45 -22 88
-28 95 -9 11 -27 9 -99 -9z"/>
<path d="M3300 4105 c-85 -18 -222 -49 -305 -67 l-150 -34 3 -30 c3 -42 23
-114 33 -120 5 -2 66 9 136 25 70 16 144 32 163 36 19 4 49 11 65 15 17 5 85
21 153 36 l124 28 -7 35 c-13 74 -28 111 -44 110 -9 -1 -86 -16 -171 -34z"/>
<path d="M3607 4005 c-32 -7 -60 -15 -64 -18 -8 -8 49 -303 62 -315 2 -3 33 3
69 12 36 9 72 16 79 16 10 0 21 -29 36 -92 12 -51 29 -124 38 -161 9 -39 12
-72 7 -76 -5 -4 -40 -15 -78 -25 -38 -9 -71 -18 -73 -20 -4 -4 65 -307 71
-313 2 -2 37 4 77 14 64 16 74 21 71 38 -2 11 -9 46 -15 78 -13 69 -12 70 80
88 35 7 63 18 63 24 0 13 -31 160 -59 280 -51 220 -83 350 -87 354 -2 2 -23
-1 -46 -8 -24 -6 -59 -12 -78 -14 -38 -2 -35 -7 -65 131 -6 25 -7 25 -88 7z"/>
<path d="M6565 4018 c-3 -7 -4 -346 -3 -753 l3 -740 659 0 660 0 0 35 c1 32 4
35 33 38 28 3 32 7 35 35 2 18 6 31 11 30 4 -2 45 -3 92 -3 l85 0 0 -30 c0
-27 3 -30 30 -30 17 0 31 5 31 10 1 6 3 15 4 20 1 6 3 15 4 20 0 6 40 10 96
10 l95 0 0 -30 0 -30 1085 0 1085 0 0 -30 c0 -27 3 -30 29 -30 17 0 33 -4 36
-10 4 -6 127 -10 336 -10 l329 0 -2 753 -3 752 -2363 3 c-1885 2 -2364 0
-2367 -10z m3434 -306 c55 -27 75 -63 79 -140 2 -51 -1 -75 -16 -102 -49 -92
-226 -109 -299 -29 -47 52 -53 171 -10 225 36 47 76 64 147 64 42 0 77 -6 99
-18z m411 -22 l0 -40 -80 0 -80 0 0 -30 0 -30 71 0 70 0 -3 -37 -3 -38 -67 -3
-68 -3 0 -47 c0 -65 -8 -74 -61 -70 l-44 3 -3 168 -2 167 135 0 135 0 0 -40z
m320 0 l0 -40 -80 0 -80 0 0 -30 0 -30 71 0 70 0 -3 -37 -3 -38 -67 -3 -67 -3
-3 -57 -3 -57 -50 0 -50 0 -3 155 c-1 85 0 160 2 167 4 10 38 13 136 13 l130
0 0 -40z m-3226 -6 c59 -20 121 -79 148 -140 47 -109 61 -274 32 -411 -27
-130 -77 -204 -166 -244 -46 -21 -68 -24 -168 -24 -99 0 -122 3 -165 23 -129
60 -180 172 -180 397 0 247 65 365 226 410 67 19 203 13 273 -11z m1261 8 c74
-26 108 -79 113 -178 9 -163 -74 -244 -233 -231 -76 6 -137 37 -168 87 -31 49
-32 198 -2 248 49 81 175 114 290 74z m-412 -2 c4 0 7 -45 7 -100 l0 -100
-194 0 c-192 0 -194 0 -200 -22 -3 -13 -6 -38 -6 -57 0 -28 3 -32 18 -26 191
80 378 15 426 -146 60 -200 -73 -365 -303 -377 -212 -12 -356 77 -378 233 l-6
45 107 0 c101 0 106 -1 106 -21 0 -12 15 -36 34 -55 31 -31 39 -34 93 -34 61
0 91 15 112 57 17 33 13 94 -8 129 -37 60 -138 69 -193 17 l-26 -25 -91 12
-91 13 0 46 c1 71 27 398 33 408 4 6 342 8 560 3z m937 -6 c0 -3 -59 -103
-132 -222 -73 -120 -182 -300 -244 -402 l-112 -185 -52 -3 c-85 -5 -86 -2 -31
85 26 43 138 225 247 405 l199 328 63 0 c34 0 62 -3 62 -6z m82 -405 c101 -22
156 -109 145 -232 -11 -122 -86 -187 -217 -187 -141 0 -213 71 -214 210 -1 62
3 83 24 119 47 84 141 116 262 90z m445 -288 c32 -44 61 -80 66 -80 4 -1 7 35
7 79 0 47 4 80 10 80 13 0 14 -197 1 -204 -5 -3 -37 31 -72 77 l-64 82 -3 -75
c-5 -120 -22 -110 -22 13 0 59 4 107 9 107 5 0 36 -36 68 -79z m319 61 c47
-37 56 -88 25 -138 -39 -64 -128 -70 -176 -12 -23 27 -26 39 -22 77 7 62 41
91 105 91 29 0 55 -7 68 -18z m314 -2 c26 -26 25 -68 -2 -97 -17 -18 -32 -23
-70 -23 l-48 0 0 -35 c0 -19 -4 -35 -10 -35 -6 0 -10 42 -10 105 l0 105 60 0
c47 0 64 -4 80 -20z m90 -86 c0 -67 -4 -103 -10 -99 -6 3 -10 50 -10 106 0 59
4 99 10 99 6 0 10 -42 10 -106z m106 65 c31 -45 24 -47 74 21 33 44 33 13 0
-34 l-31 -46 36 -46 c19 -26 35 -51 35 -55 0 -20 -19 -6 -49 36 -18 25 -34 45
-36 45 -2 0 -18 -20 -36 -45 -30 -42 -49 -56 -49 -36 0 4 16 29 36 55 l35 47
-30 41 c-17 23 -31 46 -31 50 0 19 19 5 46 -33z"/>
<path d="M9856 3637 c-12 -9 -20 -31 -23 -63 -4 -40 -1 -54 17 -76 26 -34 71
-37 100 -8 25 25 27 105 4 138 -18 25 -69 30 -98 9z"/>
<path d="M7304 3536 c-52 -23 -64 -71 -64 -249 0 -83 5 -169 11 -190 14 -50
59 -80 112 -73 84 10 100 59 95 282 -4 180 -14 214 -69 233 -40 14 -47 13 -85
-3z"/>
<path d="M8631 3603 c-25 -21 -42 -83 -35 -127 11 -67 15 -76 38 -91 35 -23
75 -10 92 31 29 70 11 178 -33 195 -33 12 -37 12 -62 -8z"/>
<path d="M9244 3153 c-24 -56 -15 -160 15 -184 31 -26 57 -24 86 6 22 21 25
33 25 92 0 93 -14 117 -68 121 -41 3 -43 2 -58 -35z"/>
<path d="M10010 3030 c-45 -45 -33 -111 24 -139 43 -20 87 -4 109 40 19 39 13
71 -18 102 -23 24 -90 22 -115 -3z"/>
<path d="M10330 3000 l0 -50 43 0 c30 0 49 6 60 18 38 42 9 82 -59 82 l-44 0
0 -50z"/>
<path d="M7973 2592 c-25 -4 -30 -17 -10 -25 10 -4 10 -6 0 -6 -14 -1 -17 -57
-7 -110 6 -27 11 -32 33 -29 23 3 26 -1 29 -29 2 -20 9 -34 18 -34 8 -1 20 -2
27 -3 6 0 13 -15 15 -33 3 -28 7 -32 35 -35 25 -2 33 -9 37 -28 8 -38 39 -38
46 0 4 16 13 31 20 31 8 1 19 2 26 3 7 0 15 10 19 21 20 64 22 67 30 53 11
-17 36 14 45 55 4 15 10 27 15 27 5 0 6 -7 3 -15 -8 -20 3 -19 23 1 14 13 15
24 6 65 -5 28 -6 52 -1 55 4 3 8 12 8 20 0 11 -18 14 -84 14 -84 0 -85 0 -88
-27 -5 -45 -88 -57 -88 -13 0 11 -5 20 -11 20 -5 0 -8 4 -5 9 6 9 -100 19
-141 13z m358 -35 c-10 -9 -11 -8 -5 6 3 10 9 15 12 12 3 -3 0 -11 -7 -18z m7
-54 c-2 -13 -12 -18 -33 -17 -17 1 -33 -3 -36 -8 -4 -5 -8 1 -11 14 -4 23 -1
25 40 27 37 2 43 -1 40 -16z"/>
<path d="M8477 2524 c-4 -4 -7 -34 -7 -66 0 -53 -2 -58 -21 -58 -26 0 -48 -27
-49 -59 0 -20 -2 -22 -16 -10 -14 11 -15 10 -12 -7 3 -17 14 -19 133 -24 72
-3 131 -5 132 -4 2 0 11 39 12 57 1 4 8 7 16 7 8 0 15 5 15 10 0 5 6 9 13 7 8
-1 13 13 15 40 3 41 2 42 -30 45 -28 3 -34 8 -38 33 -5 30 -5 30 -81 33 -41 1
-78 0 -82 -4z"/>
<path d="M10653 2473 c9 -2 23 -2 30 0 6 3 -1 5 -18 5 -16 0 -22 -2 -12 -5z"/>
<path d="M8346 2317 c3 -10 9 -15 12 -12 3 3 0 11 -7 18 -10 9 -11 8 -5 -6z"/>
<path d="M15195 3118 c-22 -5 -83 -18 -135 -29 -52 -12 -118 -28 -147 -36
l-52 -14 6 -37 c3 -20 8 -39 10 -41 3 -4 108 17 325 65 l66 15 -10 37 c-13 48
-16 50 -63 40z"/>
<path d="M15303 3043 c-28 -5 -28 -21 -4 -118 l17 -70 51 3 52 3 10 -38 c31
-121 35 -154 20 -164 -8 -5 -23 -9 -34 -9 -42 -1 -48 -13 -35 -76 19 -99 30
-125 48 -120 10 3 29 8 43 11 25 6 26 8 18 53 -10 49 -3 61 36 62 47 1 48 10
21 141 -15 68 -30 135 -35 149 -5 14 -12 42 -16 64 l-6 38 -49 -6 c-52 -7 -50
-9 -64 57 -7 28 -18 31 -73 20z"/>
<path d="M985 2756 c-52 -9 -326 -74 -331 -79 -1 -1 1 -18 5 -37 5 -24 13 -36
26 -37 11 -1 97 14 190 35 163 36 170 38 173 62 2 14 -1 35 -5 45 -7 18 -13
19 -58 11z"/>
<path d="M1100 2681 c-28 -8 -29 -18 -7 -121 l14 -65 51 3 51 3 9 -38 c5 -21
14 -59 20 -86 18 -72 17 -76 -33 -88 -25 -6 -45 -14 -45 -18 1 -16 39 -173 43
-177 3 -3 24 0 46 7 30 9 40 17 37 28 -21 76 -21 78 32 90 l49 12 -19 82 c-10
45 -28 123 -39 172 -11 50 -23 98 -25 108 -5 14 -15 17 -57 15 l-51 -3 -9 43
c-9 44 -16 48 -67 33z"/>
<path d="M8790 755 c0 -8 5 -15 10 -15 6 0 10 7 10 15 0 8 -4 15 -10 15 -5 0
-10 -7 -10 -15z"/>
<path d="M4240 720 c0 -39 1 -41 28 -38 24 3 27 7 27 38 0 31 -3 35 -27 38
-27 3 -28 1 -28 -38z"/>
<path d="M9007 734 c-4 -4 -7 -18 -7 -31 0 -17 6 -23 21 -23 16 0 20 5 17 27
-3 26 -18 39 -31 27z"/>
<path d="M9257 734 c-4 -4 -7 -18 -7 -31 0 -17 6 -23 21 -23 16 0 20 5 17 27
-3 26 -18 39 -31 27z"/>
<path d="M12702 738 c-7 -7 -12 -22 -12 -35 0 -21 5 -23 45 -23 49 0 56 10 29
48 -17 24 -43 29 -62 10z"/>
<path d="M12607 653 c-16 -4 -17 -16 -15 -115 l3 -111 135 0 135 0 3 110 3
111 -26 6 c-35 9 -45 1 -45 -35 0 -16 -4 -29 -10 -29 -5 0 -10 13 -10 29 0 20
-6 30 -19 34 -28 7 -76 -6 -77 -20 -1 -7 -2 -23 -2 -35 -3 -30 -20 -11 -24 27
-3 30 -16 37 -51 28z"/>
<path d="M3673 724 c-7 -3 -13 -14 -13 -25 0 -18 9 -19 186 -19 l185 0 -3 23
c-3 22 -5 22 -173 24 -93 1 -176 0 -182 -3z"/>
<path d="M3667 653 c-4 -3 -7 -15 -7 -25 0 -17 12 -18 185 -18 175 0 185 1
185 19 0 10 -7 22 -16 25 -21 8 -339 8 -347 -1z"/>
<path d="M3664 581 c-2 -2 -4 -33 -4 -68 l0 -63 185 0 185 0 0 68 0 67 -181 0
c-99 0 -183 -2 -185 -4z m113 -73 c-5 -16 -59 -16 -65 0 -2 8 9 12 33 12 25 0
35 -4 32 -12z m138 3 c7 -12 -21 -19 -62 -16 -51 4 -53 4 -53 15 0 13 107 13
115 1z"/>
<path d="M4505 730 c-3 -5 3 -10 15 -10 12 0 18 5 15 10 -3 6 -10 10 -15 10
-5 0 -12 -4 -15 -10z"/>
<path d="M4762 689 c2 -6 8 -10 13 -10 5 0 11 4 13 10 2 6 -4 11 -13 11 -9 0
-15 -5 -13 -11z"/>
<path d="M5067 734 c-4 -4 -7 -18 -7 -31 0 -17 6 -23 21 -23 16 0 20 5 17 27
-3 26 -18 39 -31 27z"/>
<path d="M5382 689 c2 -6 8 -10 13 -10 5 0 11 4 13 10 2 6 -4 11 -13 11 -9 0
-15 -5 -13 -11z"/>
<path d="M9115 730 c-3 -5 3 -10 15 -10 12 0 18 5 15 10 -3 6 -10 10 -15 10
-5 0 -12 -4 -15 -10z"/>
<path d="M9365 730 c-3 -5 3 -10 15 -10 12 0 18 5 15 10 -3 6 -10 10 -15 10
-5 0 -12 -4 -15 -10z"/>
<path d="M9657 734 c-4 -4 -7 -18 -7 -31 0 -17 6 -23 21 -23 16 0 20 5 17 27
-3 26 -18 39 -31 27z"/>
<path d="M9917 734 c-4 -4 -7 -18 -7 -31 0 -17 6 -23 21 -23 16 0 20 5 17 27
-3 26 -18 39 -31 27z"/>
<path d="M13227 734 c-4 -4 -7 -18 -7 -31 0 -17 6 -23 21 -23 16 0 20 5 17 27
-3 26 -18 39 -31 27z"/>
<path d="M13481 726 c-16 -19 -7 -46 14 -46 22 0 30 29 13 46 -13 13 -16 13
-27 0z"/>
<path d="M13652 689 c2 -6 8 -10 13 -10 5 0 11 4 13 10 2 6 -4 11 -13 11 -9 0
-15 -5 -13 -11z"/>
<path d="M14171 726 c-16 -19 -7 -46 14 -46 22 0 30 29 13 46 -13 13 -16 13
-27 0z"/>
<path d="M14315 730 c-3 -5 3 -10 15 -10 12 0 18 5 15 10 -3 6 -10 10 -15 10
-5 0 -12 -4 -15 -10z"/>
<path d="M8255 690 c-4 -7 -3 -16 3 -22 14 -14 45 -2 40 15 -6 16 -34 21 -43
7z"/>
<path d="M8880 685 c0 -8 5 -15 10 -15 6 0 10 7 10 15 0 8 -4 15 -10 15 -5 0
-10 -7 -10 -15z"/>
<path d="M8443 504 c-8 -21 13 -42 28 -27 13 13 5 43 -11 43 -6 0 -13 -7 -17
-16z"/>
<path d="M4240 460 c0 -39 1 -41 28 -38 24 3 27 7 27 38 0 31 -3 35 -27 38
-27 3 -28 1 -28 -38z"/>
<path d="M13557 474 c-4 -4 -7 -18 -7 -31 0 -17 6 -23 21 -23 16 0 20 5 17 27
-3 26 -18 39 -31 27z"/>
<path d="M4365 470 c-3 -5 3 -10 15 -10 12 0 18 5 15 10 -3 6 -10 10 -15 10
-5 0 -12 -4 -15 -10z"/>
<path d="M4511 466 c-16 -19 -7 -46 14 -46 22 0 30 29 13 46 -13 13 -16 13
-27 0z"/>
<path d="M4612 429 c2 -6 8 -10 13 -10 5 0 11 4 13 10 2 6 -4 11 -13 11 -9 0
-15 -5 -13 -11z"/>
<path d="M4714 466 c-9 -22 2 -46 21 -46 12 0 15 8 13 27 -3 30 -25 42 -34 19z"/>
<path d="M4822 429 c2 -6 8 -10 13 -10 5 0 11 4 13 10 2 6 -4 11 -13 11 -9 0
-15 -5 -13 -11z"/>
<path d="M5075 470 c-3 -5 3 -10 15 -10 12 0 18 5 15 10 -3 6 -10 10 -15 10
-5 0 -12 -4 -15 -10z"/>
<path d="M5337 474 c-4 -4 -7 -18 -7 -31 0 -17 6 -23 21 -23 16 0 20 5 17 27
-3 26 -18 39 -31 27z"/>
<path d="M8822 429 c2 -6 8 -10 13 -10 5 0 11 4 13 10 2 6 -4 11 -13 11 -9 0
-15 -5 -13 -11z"/>
<path d="M9157 474 c-4 -4 -7 -18 -7 -31 0 -17 6 -23 21 -23 16 0 20 5 17 27
-3 26 -18 39 -31 27z"/>
<path d="M9411 466 c-16 -19 -7 -46 14 -46 22 0 30 29 13 46 -13 13 -16 13
-27 0z"/>
<path d="M9582 429 c2 -6 8 -10 13 -10 5 0 11 4 13 10 2 6 -4 11 -13 11 -9 0
-15 -5 -13 -11z"/>
<path d="M9952 429 c2 -6 8 -10 13 -10 5 0 11 4 13 10 2 6 -4 11 -13 11 -9 0
-15 -5 -13 -11z"/>
<path d="M10101 466 c-16 -19 -7 -46 14 -46 22 0 30 29 13 46 -13 13 -16 13
-27 0z"/>
<path d="M13302 429 c2 -6 8 -10 13 -10 5 0 11 4 13 10 2 6 -4 11 -13 11 -9 0
-15 -5 -13 -11z"/>
<path d="M13411 466 c-16 -19 -7 -46 14 -46 22 0 30 29 13 46 -13 13 -16 13
-27 0z"/>
<path d="M13662 429 c2 -6 8 -10 13 -10 5 0 11 4 13 10 2 6 -4 11 -13 11 -9 0
-15 -5 -13 -11z"/>
<path d="M4251 8898 c-7 -35 -17 -74 -21 -88 -19 -57 -41 -183 -33 -190 9 -8
133 -40 156 -40 8 0 18 12 22 28 5 15 10 32 11 37 2 6 9 34 15 63 6 28 17 52
23 52 7 0 49 -9 95 -21 45 -11 84 -19 86 -17 3 3 65 224 65 233 0 3 -91 5
-203 5 l-203 0 -13 -62z"/>
<path d="M17743 8923 c-13 -42 -8 -63 16 -63 9 0 34 -6 56 -14 22 -8 54 -17
71 -20 31 -7 31 -7 51 64 l21 70 -102 0 -101 0 -12 -37z"/>
<path d="M17915 8798 c-4 -13 -19 -72 -34 -138 -5 -19 -18 -69 -29 -110 -28
-104 -31 -133 -14 -128 9 3 110 -21 144 -34 28 -10 32 -34 15 -78 -26 -64 -35
-105 -26 -116 5 -6 31 -17 57 -23 26 -7 60 -16 75 -21 16 -5 34 -7 41 -4 11 4
46 122 49 168 2 19 -33 33 -121 50 -51 10 -63 18 -57 34 7 20 30 110 50 199 7
34 18 79 24 100 19 66 18 68 -68 91 -91 26 -100 26 -106 10z"/>
<path d="M18137 8093 c-3 -21 -10 -58 -16 -82 -7 -24 -10 -50 -7 -56 2 -7 32
-17 65 -24 34 -7 61 -16 61 -22 0 -5 10 -9 23 -9 12 0 58 -10 102 -21 44 -11
89 -23 100 -25 17 -5 22 4 38 58 9 35 20 77 23 94 l6 31 -119 33 c-65 18 -140
39 -167 46 -27 8 -62 14 -77 14 -24 0 -28 -5 -32 -37z"/>
<path d="M18477 7813 c-3 -16 -8 -39 -12 -53 -4 -14 -10 -42 -12 -63 -5 -35
-3 -38 28 -51 19 -8 53 -17 77 -21 l42 -7 0 100 0 100 -31 11 c-18 6 -44 11
-59 11 -22 0 -29 -5 -33 -27z"/>
<path d="M659 6706 c-2 -2 -92 -23 -199 -45 -163 -34 -325 -70 -438 -96 -21
-5 -22 -9 -22 -120 0 -63 1 -115 3 -115 2 0 131 29 288 64 156 35 316 69 354
76 39 8 71 14 73 15 3 3 -48 225 -52 225 -2 0 -5 -2 -7 -4z"/>
<path d="M832 6506 c-51 -13 -95 -26 -98 -29 -3 -3 6 -54 20 -114 14 -59 35
-155 47 -212 14 -63 28 -105 37 -108 8 -3 59 4 114 16 55 13 102 21 104 18 3
-3 13 -43 23 -88 10 -46 33 -146 50 -221 17 -76 31 -142 31 -146 0 -5 -49 -19
-110 -32 -99 -21 -110 -25 -110 -45 0 -21 58 -284 84 -380 7 -27 17 -49 22
-49 5 1 53 12 107 24 l98 22 -6 41 c-4 23 -14 70 -22 104 -8 35 -13 68 -10 76
3 7 52 23 112 36 98 22 106 26 102 45 -3 12 -12 57 -21 101 -70 349 -176 785
-190 785 -6 0 -54 -11 -106 -24 -52 -13 -99 -19 -104 -15 -5 5 -19 55 -31 111
-15 70 -26 104 -36 105 -8 1 -56 -9 -107 -21z"/>
<path d="M120 5286 c0 -371 1 -395 18 -391 9 2 60 14 112 26 52 11 119 29 148
39 33 11 52 14 52 7 0 -7 4 -7 12 1 14 14 32 16 24 4 -3 -5 2 -9 10 -9 25 0
-2 19 -89 63 -45 22 -83 48 -85 57 -2 12 27 31 107 72 106 53 111 54 111 32 0
-19 -14 -29 -82 -61 l-83 -38 83 -41 c48 -25 82 -48 82 -57 0 -9 3 -11 8 -5 4
6 12 11 17 11 6 1 45 9 87 18 43 10 82 15 88 11 18 -11 21 42 18 345 l-3 305
-317 3 -318 2 0 -394z"/>
<path d="M18255 4134 c-5 -2 -64 -15 -130 -30 -66 -14 -160 -34 -210 -46 -49
-11 -126 -27 -170 -37 -75 -16 -80 -19 -77 -42 5 -43 24 -119 31 -123 3 -2 47
4 96 15 50 10 111 23 136 28 94 20 404 93 407 96 2 2 -2 36 -9 74 -11 67 -14
71 -38 70 -14 0 -30 -2 -36 -5z"/>
<path d="M18422 4003 l-63 -15 6 -41 c9 -63 57 -261 65 -270 3 -4 39 -1 79 8
40 8 77 13 82 9 5 -3 9 33 9 83 l0 89 -27 -1 c-28 0 -28 1 -57 128 -7 31 -8
31 -94 10z"/>
<path d="M18538 3337 c-16 -6 -28 -16 -28 -21 0 -22 57 -284 64 -295 20 -32
26 2 26 159 0 187 2 182 -62 157z"/>
<path d="M83 1800 c0 -25 2 -35 4 -22 2 12 2 32 0 45 -2 12 -4 2 -4 -23z"/>
<path d="M306 1381 c-4 -7 -5 -15 -2 -18 9 -9 19 4 14 18 -4 11 -6 11 -12 0z"/>
</g>
</svg>
