<?xml version="1.0" standalone="no"?>
<!DOCTYPE svg PUBLIC "-//W3C//DTD SVG 20010904//EN"
 "http://www.w3.org/TR/2001/REC-SVG-20010904/DTD/svg10.dtd">
<svg version="1.0" xmlns="http://www.w3.org/2000/svg"
 width="1862.000000pt" height="957.000000pt" viewBox="0 0 1862.000000 957.000000"
 preserveAspectRatio="xMidYMid meet">

<g transform="translate(0.000000,957.000000) scale(0.100000,-0.100000)"
fill="#000000" stroke="none">
<path d="M4653 9563 c2561 -2 6753 -2 9315 0 2561 1 465 2 -4658 2 -5123 0
-7219 -1 -4657 -2z"/>
<path d="M930 9051 c-12 -9 -13 -14 -3 -30 19 -30 -2 -187 -29 -225 -17 -23
-18 -30 -7 -37 20 -13 168 -10 209 4 67 23 79 101 21 135 l-28 16 31 21 c40
26 47 72 15 101 -17 15 -39 20 -108 22 -47 1 -93 -2 -101 -7z m158 -64 c5 -38
-14 -57 -54 -57 -30 0 -34 3 -34 26 0 45 18 66 53 62 27 -2 33 -8 35 -31z
m-17 -107 c39 -21 17 -84 -33 -92 -41 -8 -56 10 -51 60 5 39 7 42 35 42 16 0
38 -5 49 -10z"/>
<path d="M1670 9049 c-34 -14 -35 -17 -16 -37 15 -18 15 -27 1 -120 -22 -148
-22 -146 21 -139 36 6 64 22 64 38 0 5 -7 9 -15 9 -19 0 -19 19 0 144 8 55 15
103 15 108 0 11 -39 9 -70 -3z"/>
<path d="M3927 9016 c-8 -20 19 -47 39 -39 8 3 14 15 12 27 -4 25 -43 34 -51
12z"/>
<path d="M3450 8881 l0 -141 30 0 c29 0 30 2 30 45 l0 45 46 0 c89 0 136 91
81 156 -21 24 -32 28 -105 32 l-82 5 0 -142z m139 75 c7 -8 11 -27 9 -43 -3
-25 -7 -28 -45 -31 l-43 -3 0 45 c0 46 0 46 34 46 18 0 39 -6 45 -14z"/>
<path d="M4490 8880 l0 -140 30 0 30 0 0 140 0 140 -30 0 -30 0 0 -140z"/>
<path d="M1201 8955 c-27 -12 -31 -18 -21 -30 8 -10 10 -34 5 -80 -8 -74 1
-95 44 -95 14 0 39 7 55 15 35 18 36 18 36 0 0 -21 33 -19 61 5 19 16 21 21
10 29 -11 7 -12 25 -7 84 6 60 5 75 -7 80 -24 9 -57 -21 -57 -51 0 -46 -20
-101 -40 -112 -27 -15 -32 0 -28 87 2 45 -1 77 -7 79 -5 2 -25 -3 -44 -11z"/>
<path d="M1450 8962 c-20 -6 -50 -33 -50 -44 0 -4 8 -8 19 -8 32 0 80 -132 67
-185 -9 -34 -53 -36 -58 -3 -4 33 -36 35 -44 4 -9 -36 11 -56 54 -56 86 0 170
113 172 231 0 51 -21 82 -42 61 -9 -9 -9 -21 0 -49 8 -27 8 -48 0 -80 -12 -51
-24 -55 -33 -10 -12 55 -45 135 -58 140 -7 2 -19 2 -27 -1z"/>
<path d="M1768 8954 c-30 -16 -38 -44 -13 -44 29 0 80 -146 65 -186 -13 -32
-46 -32 -54 1 -7 27 -25 32 -44 13 -28 -28 1 -68 49 -68 61 0 116 49 151 135
28 67 31 119 9 146 -16 19 -22 21 -32 12 -10 -10 -10 -18 -1 -38 15 -33 15
-72 -2 -110 l-14 -30 -11 28 c-6 16 -11 34 -11 40 0 19 -48 117 -57 117 -4 -1
-20 -8 -35 -16z"/>
<path d="M3726 8929 c-14 -11 -26 -25 -26 -30 0 -12 57 -12 65 1 10 16 45 12
52 -6 7 -19 -13 -34 -44 -34 -64 0 -99 -49 -69 -95 13 -19 25 -25 54 -25 21 0
43 5 50 12 9 9 12 9 12 0 0 -7 13 -12 30 -12 l30 0 0 80 c0 73 -3 83 -25 105
-31 32 -91 34 -129 4z m92 -121 c-2 -18 -11 -24 -35 -26 -27 -3 -33 0 -33 17
0 21 12 29 48 30 19 1 23 -4 20 -21z"/>
<path d="M3920 8845 l0 -105 30 0 30 0 0 105 0 105 -30 0 -30 0 0 -105z"/>
<path d="M4020 8845 l0 -105 30 0 30 0 0 64 c0 79 6 96 34 96 36 0 46 -20 46
-92 0 -66 1 -68 25 -68 25 0 25 1 25 85 0 72 -3 88 -20 105 -24 24 -67 26 -92
3 -17 -15 -18 -15 -18 0 0 12 -9 17 -30 17 l-30 0 0 -105z"/>
<path d="M4289 8921 c-24 -25 -29 -37 -29 -81 0 -70 29 -100 98 -100 38 0 53
5 70 23 12 13 19 27 15 30 -10 11 -53 8 -53 -3 0 -19 -59 -11 -70 9 -5 11 -10
22 -10 25 0 3 32 6 70 6 l70 0 0 31 c0 45 -47 89 -95 89 -27 0 -44 -8 -66 -29z
m95 -27 c26 -25 19 -34 -29 -34 -25 0 -45 4 -45 9 0 14 30 41 45 41 7 0 21 -7
29 -16z"/>
<path d="M7168 8423 c2059 -2 5425 -2 7480 0 2055 1 371 2 -3743 2 -4114 0
-5796 -1 -3737 -2z"/>
<path d="M1010 7755 c0 -50 4 -85 10 -85 6 0 10 14 10 30 0 28 3 30 34 30 35
0 66 27 66 57 0 27 -39 53 -80 53 l-40 0 0 -85z m74 52 c29 -21 16 -51 -22
-55 -31 -3 -32 -2 -32 32 0 40 20 48 54 23z"/>
<path d="M1287 7834 c-11 -11 3 -24 18 -18 8 4 12 10 9 15 -6 11 -18 12 -27 3z"/>
<path d="M1630 7755 c0 -50 4 -85 10 -85 6 0 10 35 10 85 0 50 -4 85 -10 85
-6 0 -10 -35 -10 -85z"/>
<path d="M520 7765 l0 -65 49 0 c54 0 61 8 61 65 0 57 -7 65 -61 65 l-49 0 0
-65z m80 0 c0 -43 -1 -45 -30 -45 -29 0 -30 2 -30 45 0 43 1 45 30 45 29 0 30
-2 30 -45z"/>
<path d="M656 7814 c-3 -8 -3 -26 0 -40 5 -21 12 -24 55 -24 l49 0 0 40 0 40
-49 0 c-35 0 -51 -4 -55 -16z m84 -24 c0 -15 -7 -20 -29 -20 -16 0 -31 6 -34
14 -8 19 1 26 35 26 21 0 28 -5 28 -20z"/>
<path d="M1169 7780 c-18 -14 -20 -19 -8 -20 8 0 20 5 26 11 13 13 43 5 43
-10 0 -6 -18 -15 -41 -21 -36 -10 -40 -14 -37 -38 3 -25 7 -27 51 -28 l47 -2
0 54 c0 42 -4 55 -19 64 -27 14 -35 13 -62 -10z m61 -65 c0 -19 -24 -29 -47
-20 -17 6 -17 7 1 21 26 18 46 18 46 -1z"/>
<path d="M1290 7735 c0 -37 4 -65 10 -65 6 0 10 28 10 65 0 37 -4 65 -10 65
-6 0 -10 -28 -10 -65z"/>
<path d="M1350 7735 c0 -37 4 -65 10 -65 6 0 10 20 10 44 0 51 20 76 45 56 9
-8 15 -30 15 -56 0 -24 5 -44 10 -44 6 0 10 25 10 55 0 49 -3 57 -25 67 -19 8
-28 8 -40 -2 -10 -8 -15 -9 -15 -1 0 6 -4 11 -10 11 -6 0 -10 -28 -10 -65z"/>
<path d="M1500 7780 c-39 -39 -14 -110 39 -110 34 0 60 24 36 34 -8 3 -15 1
-15 -5 0 -18 -45 -5 -48 14 -3 14 4 17 37 17 34 0 41 3 41 19 0 20 -35 51 -57
51 -7 0 -22 -9 -33 -20z m58 -12 c19 -19 14 -28 -18 -28 -41 0 -40 33 1 39 3
1 10 -4 17 -11z"/>
<path d="M12698 7771 c-7 -2 -20 -14 -30 -25 -15 -18 -17 -38 -15 -126 l2
-105 115 0 115 0 2 105 c3 138 -5 150 -107 153 -38 1 -76 0 -82 -2z m150 -23
c23 -23 11 -28 -78 -27 -85 1 -89 2 -80 20 9 16 22 19 78 19 40 0 73 -5 80
-12z m20 -130 l-3 -93 -95 0 -95 0 -3 91 -3 91 101 2 101 1 -3 -92z"/>
<path d="M12710 7657 c0 -21 34 -47 62 -47 25 0 58 27 58 48 0 20 -17 13 -23
-8 -4 -15 -14 -20 -37 -20 -23 0 -33 5 -37 20 -6 22 -23 27 -23 7z"/>
<path d="M7549 7753 c-80 -49 -79 -179 1 -227 32 -18 98 -21 132 -5 39 17 68
70 68 123 0 43 -4 53 -39 87 -34 35 -44 39 -87 39 -27 0 -61 -8 -75 -17z m145
-24 c46 -36 51 -124 10 -170 -24 -27 -77 -39 -118 -28 -87 24 -107 140 -35
202 30 25 109 23 143 -4z"/>
<path d="M7610 7710 c0 -5 -9 -10 -19 -10 -37 0 -42 -57 -6 -66 14 -3 25 -12
25 -20 0 -8 -10 -14 -25 -14 -14 0 -25 -4 -25 -10 0 -5 11 -10 24 -10 13 0 27
-6 29 -12 4 -10 8 -10 14 -2 4 6 18 14 31 18 32 11 30 54 -3 62 -14 3 -25 12
-25 20 0 8 10 14 25 14 14 0 25 5 25 10 0 6 -11 10 -25 10 -14 0 -25 5 -25 10
0 6 -4 10 -10 10 -5 0 -10 -4 -10 -10z m0 -45 c0 -8 -7 -15 -15 -15 -8 0 -15
7 -15 15 0 8 7 15 15 15 8 0 15 -7 15 -15z m50 -50 c0 -8 -7 -15 -15 -15 -8 0
-15 7 -15 15 0 8 7 15 15 15 8 0 15 -7 15 -15z"/>
<path d="M17872 7737 c-25 -26 -28 -57 -9 -88 10 -17 9 -22 -6 -30 -19 -11
-47 -60 -47 -84 0 -27 16 -16 25 18 7 23 21 37 48 50 36 18 38 18 75 0 26 -13
40 -27 47 -50 9 -34 25 -45 25 -18 0 26 -29 74 -51 85 -19 11 -19 13 -5 29 23
25 20 64 -7 89 -30 28 -68 28 -95 -1z m86 -9 c22 -22 14 -67 -13 -80 -37 -17
-75 3 -75 40 0 35 16 52 50 52 14 0 31 -5 38 -12z"/>
<path d="M3750 7675 c0 -60 3 -75 15 -75 9 0 15 9 15 25 0 16 6 25 15 25 9 0
21 -11 27 -25 6 -14 20 -25 30 -25 17 0 17 2 3 23 -12 19 -13 29 -2 56 11 30
10 34 -12 52 -13 10 -38 19 -57 19 l-34 0 0 -75z m80 25 c0 -15 -7 -20 -25
-20 -18 0 -25 5 -25 20 0 15 7 20 25 20 18 0 25 -5 25 -20z"/>
<path d="M4222 7739 c2 -6 8 -10 13 -10 5 0 11 4 13 10 2 6 -4 11 -13 11 -9 0
-15 -5 -13 -11z"/>
<path d="M4830 7675 c0 -60 3 -75 15 -75 12 0 15 15 15 75 0 60 -3 75 -15 75
-12 0 -15 -15 -15 -75z"/>
<path d="M8900 7675 c0 -60 3 -75 15 -75 9 0 15 9 15 25 0 21 5 25 28 25 34 0
52 16 52 46 0 29 -36 54 -77 54 l-33 0 0 -75z m78 23 c-2 -15 -11 -24 -25 -26
-19 -3 -23 1 -23 22 0 21 5 26 26 26 21 0 25 -4 22 -22z"/>
<path d="M9219 7720 c-1 -16 -2 -45 -3 -62 -2 -39 3 -58 15 -58 5 0 9 34 9 75
0 43 -4 75 -10 75 -5 0 -11 -13 -11 -30z"/>
<path d="M9262 7739 c2 -6 8 -10 13 -10 5 0 11 4 13 10 2 6 -4 11 -13 11 -9 0
-15 -5 -13 -11z"/>
<path d="M9379 7720 c-1 -16 -2 -45 -3 -62 -2 -39 3 -58 15 -58 5 0 9 34 9 75
0 43 -4 75 -10 75 -5 0 -11 -13 -11 -30z"/>
<path d="M9680 7735 c0 -8 9 -15 20 -15 18 0 20 -7 20 -60 0 -47 3 -60 15 -60
12 0 15 13 15 60 0 53 2 60 20 60 11 0 20 7 20 15 0 12 -13 15 -55 15 -42 0
-55 -3 -55 -15z"/>
<path d="M10072 7739 c2 -6 8 -10 13 -10 5 0 11 4 13 10 2 6 -4 11 -13 11 -9
0 -15 -5 -13 -11z"/>
<path d="M14075 7725 c-48 -47 -20 -125 44 -125 20 0 35 8 46 22 18 27 3 37
-21 14 -33 -33 -67 -8 -62 46 3 38 27 48 64 27 32 -17 41 -6 15 20 -28 28 -56
26 -86 -4z"/>
<path d="M14200 7675 c0 -60 3 -75 15 -75 12 0 15 15 15 75 0 60 -3 75 -15 75
-12 0 -15 -15 -15 -75z"/>
<path d="M14242 7739 c2 -6 8 -10 13 -10 5 0 11 4 13 10 2 6 -4 11 -13 11 -9
0 -15 -5 -13 -11z"/>
<path d="M14850 7735 c0 -8 9 -15 20 -15 18 0 20 -7 20 -60 0 -47 3 -60 15
-60 12 0 15 13 15 60 0 53 2 60 20 60 11 0 20 7 20 15 0 12 -13 15 -55 15 -42
0 -55 -3 -55 -15z"/>
<path d="M15242 7739 c2 -6 8 -10 13 -10 5 0 11 4 13 10 2 6 -4 11 -13 11 -9
0 -15 -5 -13 -11z"/>
<path d="M4280 7726 c0 -8 -6 -17 -12 -19 -10 -4 -10 -8 -1 -14 6 -4 13 -26
15 -48 l3 -40 68 -1 67 -2 0 42 c0 23 -5 47 -12 54 -17 17 -53 15 -69 -4 -12
-15 -10 -16 18 -10 42 10 53 -11 11 -22 -23 -6 -34 -15 -36 -30 -2 -13 -8 -19
-18 -15 -17 6 -19 69 -1 77 10 5 10 7 0 12 -7 3 -13 12 -13 20 0 8 -4 14 -10
14 -5 0 -10 -6 -10 -14z m118 -88 c-5 -15 -48 -24 -48 -10 0 14 12 22 33 22
10 0 17 -5 15 -12z"/>
<path d="M4490 7726 c0 -8 -6 -17 -12 -19 -10 -4 -10 -8 -1 -14 6 -4 13 -26
15 -48 3 -34 7 -40 28 -43 23 -2 24 -1 8 11 -21 16 -24 72 -5 81 10 5 10 7 0
12 -7 3 -13 12 -13 20 0 8 -4 14 -10 14 -5 0 -10 -6 -10 -14z"/>
<path d="M4670 7726 c0 -8 -6 -17 -12 -19 -10 -4 -10 -8 -1 -14 6 -4 13 -26
15 -48 3 -34 7 -40 28 -43 23 -2 24 -1 8 11 -21 16 -24 72 -5 81 10 5 10 7 0
12 -7 3 -13 12 -13 20 0 8 -4 14 -10 14 -5 0 -10 -6 -10 -14z"/>
<path d="M9910 7726 c0 -8 -6 -17 -12 -19 -10 -4 -10 -8 -1 -14 6 -4 13 -26
15 -48 3 -34 7 -40 28 -43 23 -2 24 -1 8 11 -21 16 -24 72 -5 81 10 5 10 7 0
12 -7 3 -13 12 -13 20 0 8 -4 14 -10 14 -5 0 -10 -6 -10 -14z"/>
<path d="M14530 7726 c0 -8 -6 -17 -12 -19 -10 -4 -10 -8 -1 -14 6 -4 13 -26
15 -48 3 -34 7 -40 28 -43 23 -2 24 -1 8 11 -21 16 -24 72 -5 81 10 5 10 7 0
12 -7 3 -13 12 -13 20 0 8 -4 14 -10 14 -5 0 -10 -6 -10 -14z"/>
<path d="M15080 7726 c0 -8 -6 -17 -12 -19 -10 -4 -10 -8 -1 -14 6 -4 13 -26
15 -48 l3 -40 68 -1 67 -2 0 42 c0 23 -5 47 -12 54 -17 17 -53 15 -69 -4 -12
-15 -10 -16 18 -10 42 10 53 -11 11 -22 -23 -6 -34 -15 -36 -30 -2 -13 -8 -19
-18 -15 -17 6 -19 69 -1 77 10 5 10 7 0 12 -7 3 -13 12 -13 20 0 8 -4 14 -10
14 -5 0 -10 -6 -10 -14z m118 -88 c-5 -15 -48 -24 -48 -10 0 14 12 22 33 22
10 0 17 -5 15 -12z"/>
<path d="M656 7698 c-8 -30 -8 -72 0 -92 4 -12 20 -16 55 -16 l49 0 0 65 0 65
-49 0 c-42 0 -49 -3 -55 -22z m84 -44 c0 -45 0 -45 -32 -42 -24 2 -33 8 -32
21 1 9 2 28 3 42 1 21 6 25 31 25 29 0 30 -2 30 -46z"/>
<path d="M3896 7694 c-19 -18 -21 -65 -4 -82 17 -17 63 -15 79 4 11 14 9 15
-23 9 -27 -5 -37 -3 -41 9 -5 13 1 16 33 16 28 0 40 4 40 14 0 20 -28 46 -50
46 -10 0 -26 -7 -34 -16z m58 -19 c4 -11 -2 -15 -24 -15 -22 0 -28 4 -24 15 4
8 14 15 24 15 10 0 20 -7 24 -15z"/>
<path d="M4006 7694 c-19 -18 -21 -65 -4 -82 16 -16 63 -15 77 2 9 11 9 16 0
22 -7 4 -15 2 -17 -4 -6 -19 -39 -14 -45 7 -9 35 34 73 45 39 2 -6 10 -8 17
-4 9 6 9 11 0 22 -15 19 -54 18 -73 -2z"/>
<path d="M4126 7694 c-19 -18 -21 -65 -4 -82 17 -17 63 -15 79 4 11 14 9 15
-23 9 -27 -5 -37 -3 -41 9 -5 13 1 16 33 16 28 0 40 4 40 14 0 20 -28 46 -50
46 -10 0 -26 -7 -34 -16z m58 -19 c4 -11 -2 -15 -24 -15 -22 0 -28 4 -24 15 4
8 14 15 24 15 10 0 20 -7 24 -15z"/>
<path d="M4220 7655 c0 -42 3 -55 15 -55 12 0 15 13 15 55 0 42 -3 55 -15 55
-12 0 -15 -13 -15 -55z"/>
<path d="M4566 7694 c-19 -18 -21 -65 -4 -82 7 -7 24 -12 38 -12 34 0 50 17
50 55 0 17 -5 36 -12 43 -17 17 -54 15 -72 -4z m59 -23 c8 -26 -4 -51 -25 -51
-21 0 -31 30 -18 54 12 22 35 20 43 -3z"/>
<path d="M4739 7694 c-12 -15 -10 -16 18 -10 42 10 53 -11 11 -22 -26 -6 -33
-13 -33 -33 0 -21 5 -24 43 -25 l42 -2 0 42 c0 23 -5 47 -12 54 -17 17 -53 15
-69 -4z m59 -56 c-5 -15 -48 -24 -48 -10 0 14 12 22 33 22 10 0 17 -5 15 -12z"/>
<path d="M9046 7694 c-19 -18 -21 -65 -4 -82 17 -17 63 -15 79 4 11 14 9 15
-23 9 -27 -5 -37 -3 -41 9 -5 13 1 16 33 16 28 0 40 4 40 14 0 20 -28 46 -50
46 -10 0 -26 -7 -34 -16z m58 -19 c4 -11 -2 -15 -24 -15 -22 0 -28 4 -24 15 4
8 14 15 24 15 10 0 20 -7 24 -15z"/>
<path d="M9152 7698 c-7 -7 -12 -26 -12 -43 0 -17 5 -36 12 -43 15 -15 58 -16
58 -2 0 6 -8 10 -19 10 -22 0 -32 30 -19 54 5 9 16 16 24 16 8 0 12 5 9 10 -8
14 -38 13 -53 -2z"/>
<path d="M9260 7655 c0 -42 3 -55 15 -55 12 0 15 13 15 55 0 42 -3 55 -15 55
-12 0 -15 -13 -15 -55z"/>
<path d="M9312 7698 c-7 -7 -12 -26 -12 -43 0 -17 5 -36 12 -43 15 -15 58 -16
58 -2 0 6 -8 10 -19 10 -22 0 -32 30 -19 54 5 9 16 16 24 16 8 0 12 5 9 10 -8
14 -38 13 -53 -2z"/>
<path d="M9436 7694 c-19 -18 -21 -65 -4 -82 7 -7 24 -12 38 -12 34 0 50 17
50 55 0 17 -5 36 -12 43 -17 17 -54 15 -72 -4z m59 -23 c8 -26 -4 -51 -25 -51
-21 0 -31 30 -18 54 12 22 35 20 43 -3z"/>
<path d="M9542 7698 c-20 -20 -13 -39 18 -49 17 -6 30 -15 30 -21 0 -5 -13 -7
-30 -3 -36 8 -42 -12 -6 -21 62 -15 94 37 36 57 -41 15 -39 33 2 23 29 -6 31
-5 19 10 -16 19 -52 21 -69 4z"/>
<path d="M9806 7694 c-19 -18 -21 -65 -4 -82 7 -7 24 -12 38 -12 34 0 50 17
50 55 0 17 -5 36 -12 43 -17 17 -54 15 -72 -4z m59 -23 c8 -26 -4 -51 -25 -51
-21 0 -31 30 -18 54 12 22 35 20 43 -3z"/>
<path d="M9979 7694 c-12 -15 -10 -16 18 -10 42 10 53 -11 11 -22 -26 -6 -33
-13 -33 -33 0 -21 5 -24 43 -25 l42 -2 0 42 c0 23 -5 47 -12 54 -17 17 -53 15
-69 -4z m59 -56 c-5 -15 -48 -24 -48 -10 0 14 12 22 33 22 10 0 17 -5 15 -12z"/>
<path d="M10070 7655 c0 -42 3 -55 15 -55 12 0 15 13 15 55 0 42 -3 55 -15 55
-12 0 -15 -13 -15 -55z"/>
<path d="M10132 7698 c-20 -20 -13 -39 18 -49 17 -6 30 -15 30 -21 0 -5 -13
-7 -30 -3 -36 8 -42 -12 -6 -21 62 -15 94 37 36 57 -41 15 -39 33 2 23 29 -6
31 -5 19 10 -16 19 -52 21 -69 4z"/>
<path d="M14240 7655 c0 -42 3 -55 15 -55 12 0 15 13 15 55 0 42 -3 55 -15 55
-12 0 -15 -13 -15 -55z"/>
<path d="M14306 7694 c-19 -18 -21 -65 -4 -82 17 -17 63 -15 79 4 11 14 9 15
-23 9 -27 -5 -37 -3 -41 9 -5 13 1 16 33 16 28 0 40 4 40 14 0 20 -28 46 -50
46 -10 0 -26 -7 -34 -16z m58 -19 c4 -11 -2 -15 -24 -15 -22 0 -28 4 -24 15 4
8 14 15 24 15 10 0 20 -7 24 -15z"/>
<path d="M14400 7654 c0 -40 4 -54 14 -54 10 0 16 14 18 42 2 31 8 44 21 46
14 3 17 -4 17 -42 0 -34 4 -46 15 -46 11 0 15 12 15 44 0 52 -12 64 -62 64
l-38 0 0 -54z"/>
<path d="M14595 7693 c-18 -17 -20 -64 -3 -81 17 -17 63 -15 79 4 11 14 9 15
-23 9 -27 -5 -37 -3 -41 9 -5 13 1 16 33 16 40 0 49 11 31 39 -12 19 -59 22
-76 4z m59 -18 c4 -11 -2 -15 -24 -15 -22 0 -28 4 -24 15 4 8 14 15 24 15 10
0 20 -7 24 -15z"/>
<path d="M14712 7698 c-20 -20 -13 -39 18 -49 17 -6 30 -15 30 -21 0 -5 -13
-7 -30 -3 -36 8 -42 -12 -6 -21 62 -15 94 37 36 57 -41 15 -39 33 2 23 29 -6
31 -5 19 10 -16 19 -52 21 -69 4z"/>
<path d="M14966 7694 c-19 -18 -21 -65 -4 -82 7 -7 24 -12 38 -12 34 0 50 17
50 55 0 17 -5 36 -12 43 -17 17 -54 15 -72 -4z m59 -23 c8 -26 -4 -51 -25 -51
-21 0 -31 30 -18 54 12 22 35 20 43 -3z"/>
<path d="M15240 7655 c0 -42 3 -55 15 -55 12 0 15 13 15 55 0 42 -3 55 -15 55
-12 0 -15 -13 -15 -55z"/>
<path d="M15292 7698 c-20 -20 -13 -39 18 -49 17 -6 30 -15 30 -21 0 -5 -13
-7 -30 -3 -36 8 -42 -12 -6 -21 62 -15 94 37 36 57 -41 15 -39 33 2 23 29 -6
31 -5 19 10 -16 19 -52 21 -69 4z"/>
<path d="M520 7630 l0 -40 49 0 c43 0 50 3 55 24 11 43 -2 56 -55 56 l-49 0 0
-40z m80 0 c0 -16 -7 -20 -30 -20 -23 0 -30 4 -30 20 0 16 7 20 30 20 23 0 30
-4 30 -20z"/>
<path d="M3961 7183 c-1 -6 -10 -15 -21 -18 -11 -3 -25 -15 -30 -26 -13 -24 1
-55 30 -64 11 -3 20 -15 20 -25 0 -24 -16 -34 -24 -15 -6 16 -36 21 -36 6 0
-15 30 -41 46 -41 8 0 14 -6 14 -12 0 -8 3 -9 8 -3 4 6 19 16 35 22 38 18 37
58 -3 81 -28 16 -42 52 -20 52 6 0 10 -4 10 -10 0 -5 9 -10 20 -10 11 0 20 4
20 8 0 12 -34 42 -47 42 -6 0 -14 6 -16 13 -4 8 -6 9 -6 0z m-1 -65 c0 -16 -3
-19 -11 -11 -6 6 -8 16 -5 22 11 17 16 13 16 -11z m34 -79 c-10 -16 -24 -9
-24 12 0 18 2 19 15 9 8 -7 12 -16 9 -21z"/>
<path d="M3760 7085 c0 -69 3 -85 15 -85 10 0 15 10 15 30 0 39 20 39 42 0 10
-18 25 -30 37 -30 21 0 21 0 2 31 -17 28 -18 34 -5 46 39 39 -1 93 -68 93
l-38 0 0 -85z m78 28 c3 -19 -1 -23 -22 -23 -21 0 -26 5 -26 26 0 21 4 25 23
22 14 -2 23 -11 25 -25z"/>
<path d="M4136 7111 c-20 -32 -36 -64 -36 -70 0 -6 17 -11 40 -11 29 0 40 -4
40 -15 0 -8 7 -15 15 -15 8 0 15 7 15 15 0 8 7 15 15 15 8 0 15 7 15 15 0 8
-7 15 -15 15 -12 0 -15 13 -15 55 0 48 -3 55 -19 55 -13 0 -32 -20 -55 -59z
m44 -21 c0 -24 -4 -30 -21 -30 -20 0 -20 1 -2 30 9 17 19 30 20 30 2 0 3 -13
3 -30z"/>
<path d="M4268 7125 c-2 -35 0 -45 12 -46 8 -1 26 -2 40 -2 15 -1 26 -9 28
-20 4 -22 -25 -34 -49 -19 -37 23 -53 8 -23 -22 8 -9 28 -16 44 -16 37 0 60
24 60 60 0 33 -29 55 -61 47 -14 -4 -19 0 -19 14 0 15 7 19 35 19 24 0 35 5
35 15 0 11 -12 15 -49 15 l-49 0 -4 -45z"/>
<path d="M4421 7144 c-23 -30 -27 -74 -10 -107 16 -29 28 -37 60 -37 38 0 59
29 59 83 0 81 -65 117 -109 61z m67 -16 c14 -14 16 -67 3 -86 -5 -8 -17 -12
-27 -10 -14 2 -20 13 -22 42 -5 61 15 85 46 54z"/>
<path d="M4638 7125 c-2 -35 0 -45 12 -46 8 -1 26 -2 40 -2 15 -1 26 -9 28
-20 4 -22 -25 -34 -49 -19 -37 23 -53 8 -23 -22 8 -9 28 -16 44 -16 37 0 60
24 60 60 0 33 -29 55 -61 47 -14 -4 -19 0 -19 14 0 15 7 19 35 19 24 0 35 5
35 15 0 11 -12 15 -49 15 l-49 0 -4 -45z"/>
<path d="M4788 7148 c-21 -21 -22 -23 -4 -26 10 -2 22 1 26 8 9 15 42 9 48 -8
2 -7 -17 -33 -42 -58 -25 -24 -46 -48 -46 -54 0 -6 26 -10 60 -10 47 0 60 3
60 15 0 10 -10 15 -31 15 l-31 0 31 35 c35 41 39 65 13 88 -26 23 -58 21 -84
-5z"/>
<path d="M8908 7125 c-2 -35 0 -45 12 -46 8 -1 26 -2 40 -2 15 -1 26 -9 28
-20 4 -22 -25 -34 -49 -19 -37 23 -53 8 -23 -22 8 -9 28 -16 44 -16 37 0 60
24 60 60 0 33 -29 55 -61 47 -14 -4 -19 0 -19 14 0 15 7 19 35 19 24 0 35 5
35 15 0 11 -12 15 -49 15 l-49 0 -4 -45z"/>
<path d="M14086 7111 c-20 -32 -36 -64 -36 -70 0 -6 17 -11 40 -11 29 0 40 -4
40 -15 0 -8 7 -15 15 -15 8 0 15 7 15 15 0 8 7 15 15 15 8 0 15 7 15 15 0 8
-7 15 -15 15 -12 0 -15 13 -15 55 0 48 -3 55 -19 55 -13 0 -32 -20 -55 -59z
m44 -21 c0 -24 -4 -30 -21 -30 -20 0 -20 1 -2 30 9 17 19 30 20 30 2 0 3 -13
3 -30z"/>
<path d="M4567 7034 c-14 -14 -7 -35 11 -32 9 2 17 10 17 17 0 16 -18 25 -28
15z"/>
<path d="M606 6900 c-37 -57 -34 -67 22 -72 55 -5 72 -1 72 18 0 17 -49 94
-60 94 -4 0 -19 -18 -34 -40z m55 -17 c7 -16 15 -31 17 -35 2 -5 -15 -8 -38
-8 -23 0 -40 3 -38 8 23 47 32 62 38 62 4 0 13 -12 21 -27z"/>
<path d="M1042 6933 c-23 -9 -44 -64 -37 -99 11 -61 84 -85 127 -42 26 26 7
39 -21 14 -10 -9 -25 -16 -34 -16 -47 0 -66 86 -25 114 29 21 34 20 59 -5 29
-29 44 -19 19 14 -21 26 -54 34 -88 20z"/>
<path d="M1320 6855 c0 -50 4 -85 10 -85 6 0 10 35 10 85 0 50 -4 85 -10 85
-6 0 -10 -35 -10 -85z"/>
<path d="M1666 6931 c-3 -4 10 -8 29 -9 19 -1 35 2 35 6 0 10 -58 13 -64 3z"/>
<path d="M1190 6880 c-39 -39 -14 -110 40 -110 33 0 60 31 60 67 0 28 -33 63
-60 63 -11 0 -29 -9 -40 -20z m59 -14 c7 -8 11 -27 9 -43 -2 -22 -8 -28 -28
-28 -20 0 -26 6 -28 28 -3 27 12 57 28 57 4 0 13 -6 19 -14z"/>
<path d="M1390 6880 c-39 -39 -14 -110 39 -110 34 0 60 24 36 34 -8 3 -15 1
-15 -5 0 -18 -45 -5 -48 14 -3 14 4 17 37 17 34 0 41 3 41 19 0 20 -35 51 -57
51 -7 0 -22 -9 -33 -20z m58 -12 c19 -19 14 -28 -18 -28 -41 0 -40 33 1 39 3
1 10 -4 17 -11z"/>
<path d="M1530 6880 c-11 -11 -20 -30 -20 -43 0 -27 26 -67 44 -67 8 0 17 -7
20 -16 3 -8 2 -12 -4 -9 -6 3 -10 -1 -10 -9 0 -9 7 -16 15 -16 19 0 33 32 17
38 -8 2 -3 11 10 22 27 22 19 37 -10 19 -28 -18 -52 -5 -52 29 0 39 27 63 44
40 9 -12 17 -14 27 -7 12 8 11 12 -5 24 -27 20 -52 19 -76 -5z"/>
<path d="M1660 6880 c-39 -39 -14 -110 40 -110 33 0 60 31 60 67 0 28 -33 63
-60 63 -11 0 -29 -9 -40 -20z m59 -14 c7 -8 11 -27 9 -43 -2 -22 -8 -28 -28
-28 -20 0 -26 6 -28 28 -3 27 12 57 28 57 4 0 13 -6 19 -14z"/>
<path d="M1800 6880 c-39 -39 -14 -110 39 -110 34 0 60 24 36 34 -8 3 -15 1
-15 -5 0 -18 -45 -5 -48 14 -3 14 4 17 37 17 34 0 41 3 41 19 0 20 -35 51 -57
51 -7 0 -22 -9 -33 -20z m58 -12 c19 -19 14 -28 -18 -28 -41 0 -40 33 1 39 3
1 10 -4 17 -11z"/>
<path d="M1940 6882 c-28 -23 -20 -39 27 -58 18 -8 31 -19 28 -24 -8 -13 -42
-13 -50 0 -4 6 -11 8 -16 4 -17 -10 11 -34 40 -34 37 0 53 14 49 41 -2 16 -12
25 -35 31 -18 5 -33 13 -33 19 0 16 29 22 45 9 9 -7 19 -10 23 -6 8 9 -26 36
-44 36 -6 0 -22 -8 -34 -18z"/>
<path d="M548 6792 c-26 -3 -28 -6 -28 -53 l0 -49 50 0 50 0 0 49 c0 53 -10
60 -72 53z m60 -49 c3 -32 2 -33 -32 -33 -35 0 -36 1 -36 36 0 34 1 35 33 32
28 -3 32 -7 35 -35z"/>
<path d="M672 6778 c-19 -19 -15 -66 7 -78 41 -22 81 1 81 45 0 38 -61 60 -88
33z m63 -38 c0 -20 -6 -26 -27 -28 -25 -3 -28 0 -28 28 0 28 3 31 28 28 21 -2
27 -8 27 -28z"/>
<path d="M606 6000 c-28 -43 -33 -69 -13 -71 13 -1 87 -1 100 0 21 3 -21 94
-50 105 -6 3 -23 -13 -37 -34z m55 -17 c7 -16 15 -31 16 -34 2 -3 -15 -6 -37
-7 -46 -2 -46 -1 -23 39 21 36 26 36 44 2z"/>
<path d="M1042 6033 c-23 -9 -44 -64 -37 -99 11 -61 84 -85 127 -42 26 26 7
39 -21 14 -10 -9 -25 -16 -34 -16 -47 0 -66 86 -25 114 29 21 34 20 59 -5 29
-29 44 -19 19 14 -21 26 -54 34 -88 20z"/>
<path d="M1897 6034 c-11 -11 3 -24 18 -18 8 4 12 10 9 15 -6 11 -18 12 -27 3z"/>
<path d="M1310 6016 c0 -8 -6 -17 -12 -19 -10 -4 -10 -7 -1 -14 6 -5 13 -31
15 -58 3 -43 6 -50 26 -53 12 -2 22 1 22 7 0 6 -4 11 -10 11 -15 0 -12 87 3
94 10 5 10 7 0 12 -7 3 -13 12 -13 20 0 8 -7 14 -15 14 -8 0 -15 -6 -15 -14z"/>
<path d="M1189 5980 c-18 -14 -20 -19 -8 -20 8 0 20 5 26 11 13 13 43 5 43
-10 0 -6 -18 -15 -41 -21 -36 -10 -40 -14 -37 -38 3 -25 7 -27 51 -28 l47 -2
0 54 c0 42 -4 55 -19 64 -27 14 -35 13 -62 -10z m61 -65 c0 -19 -24 -29 -47
-20 -17 6 -17 7 1 21 26 18 46 18 46 -1z"/>
<path d="M1400 5980 c-39 -39 -14 -110 39 -110 34 0 60 24 36 34 -8 3 -15 1
-15 -5 0 -18 -45 -5 -48 14 -3 14 4 17 37 17 34 0 41 3 41 19 0 20 -35 51 -57
51 -7 0 -22 -9 -33 -20z m58 -12 c19 -19 14 -28 -18 -28 -41 0 -40 33 1 39 3
1 10 -4 17 -11z"/>
<path d="M1540 5980 c-24 -24 -26 -57 -4 -88 17 -24 43 -29 62 -10 9 9 12 7
12 -10 0 -27 -26 -39 -50 -24 -22 13 -34 4 -19 -15 18 -21 66 -16 83 9 22 31
23 158 1 158 -8 0 -15 -5 -15 -12 0 -9 -3 -9 -12 0 -17 17 -35 15 -58 -8z m58
-12 c28 -28 3 -85 -32 -72 -27 10 -15 84 14 84 3 0 11 -5 18 -12z"/>
<path d="M1680 5980 c-39 -39 -14 -110 40 -110 33 0 60 31 60 67 0 28 -33 63
-60 63 -11 0 -29 -9 -40 -20z m59 -14 c7 -8 11 -27 9 -43 -2 -22 -8 -28 -28
-28 -20 0 -26 6 -28 28 -3 27 12 57 28 57 4 0 13 -6 19 -14z"/>
<path d="M1810 5935 c0 -37 4 -65 10 -65 6 0 10 21 10 46 0 37 4 47 20 51 11
3 20 12 20 19 0 17 -12 18 -28 2 -9 -9 -12 -9 -12 0 0 7 -4 12 -10 12 -6 0
-10 -28 -10 -65z"/>
<path d="M1900 5935 c0 -37 4 -65 10 -65 6 0 10 28 10 65 0 37 -4 65 -10 65
-6 0 -10 -28 -10 -65z"/>
<path d="M1969 5980 c-18 -14 -20 -19 -8 -20 8 0 20 5 26 11 13 13 43 5 43
-10 0 -6 -18 -15 -41 -21 -36 -10 -40 -14 -37 -38 3 -25 7 -27 51 -28 l47 -2
0 54 c0 42 -4 55 -19 64 -27 14 -35 13 -62 -10z m61 -65 c0 -19 -24 -29 -47
-20 -17 6 -17 7 1 21 26 18 46 18 46 -1z"/>
<path d="M2100 5982 c-28 -23 -20 -39 27 -58 18 -8 31 -19 28 -24 -8 -13 -42
-13 -50 0 -4 6 -11 8 -16 4 -17 -10 11 -34 40 -34 37 0 53 14 49 41 -2 16 -12
25 -35 31 -18 5 -33 13 -33 19 0 16 29 22 45 9 9 -7 19 -10 23 -6 8 9 -26 36
-44 36 -6 0 -22 -8 -34 -18z"/>
<path d="M520 5840 l0 -50 49 0 c48 0 49 1 53 33 7 60 1 67 -53 67 l-49 0 0
-50z m88 3 c3 -32 2 -33 -32 -33 -35 0 -36 1 -36 36 0 34 1 35 33 32 28 -3 32
-7 35 -35z"/>
<path d="M672 5878 c-20 -20 -15 -66 9 -78 49 -27 96 20 69 69 -12 24 -58 29
-78 9z m66 -37 c-2 -20 -9 -27 -30 -29 -28 -3 -33 4 -28 38 3 20 18 29 42 22
14 -3 18 -12 16 -31z"/>
<path d="M5678 5810 c-34 -32 -35 -45 -3 -66 31 -20 36 -61 5 -42 -10 7 -22 9
-26 5 -9 -9 15 -37 32 -37 8 0 14 -6 14 -12 0 -8 3 -9 8 -3 4 6 16 15 27 21
28 15 26 56 -2 69 -13 5 -23 18 -23 28 0 14 5 16 25 11 32 -8 31 -3 -2 27
l-28 24 -27 -25z m22 -35 c0 -8 -4 -15 -10 -15 -5 0 -10 7 -10 15 0 8 5 15 10
15 6 0 10 -7 10 -15z m30 -65 c0 -11 -4 -20 -10 -20 -5 0 -10 9 -10 20 0 11 5
20 10 20 6 0 10 -9 10 -20z"/>
<path d="M3775 5795 c-31 -30 -33 -77 -5 -105 39 -39 110 -15 110 38 0 18 -6
22 -30 22 -16 0 -30 -4 -30 -10 0 -5 7 -10 16 -10 23 0 13 -34 -12 -38 -29 -4
-46 20 -42 60 3 38 27 48 64 27 32 -17 41 -6 15 20 -28 28 -56 26 -86 -4z"/>
<path d="M4017 5813 c-10 -9 -9 -23 2 -23 5 0 11 7 15 15 5 15 -5 20 -17 8z"/>
<path d="M4100 5811 c0 -5 -8 -17 -17 -27 -13 -13 -14 -19 -5 -22 7 -2 12 -22
12 -48 0 -32 4 -44 15 -44 11 0 15 12 15 44 0 26 5 46 13 49 9 4 8 8 -3 16
-13 10 -13 12 0 20 9 6 19 6 26 1 6 -6 14 -7 17 -3 16 15 4 23 -33 23 -22 0
-40 -4 -40 -9z"/>
<path d="M4549 5790 c-1 -16 -2 -45 -3 -62 -2 -39 3 -58 15 -58 5 0 9 34 9 75
0 43 -4 75 -10 75 -5 0 -11 -13 -11 -30z"/>
<path d="M5169 5790 c-1 -16 -2 -45 -3 -62 -2 -39 3 -58 15 -58 5 0 9 34 9 75
0 43 -4 75 -10 75 -5 0 -11 -13 -11 -30z"/>
<path d="M5480 5794 c-21 -54 -5 -154 25 -154 9 0 8 11 -3 45 -13 40 -13 50 0
90 13 38 13 45 1 45 -7 0 -18 -12 -23 -26z"/>
<path d="M5530 5745 c0 -60 3 -75 15 -75 9 0 15 9 15 25 0 16 6 25 15 25 9 0
21 -11 27 -25 6 -14 20 -25 30 -25 17 0 17 2 3 23 -12 19 -13 29 -2 56 11 30
10 34 -12 52 -13 10 -38 19 -57 19 l-34 0 0 -75z m80 25 c0 -15 -7 -20 -25
-20 -18 0 -25 5 -25 20 0 15 7 20 25 20 18 0 25 -5 25 -20z"/>
<path d="M5793 5774 c8 -32 8 -58 0 -87 -12 -44 -11 -53 6 -43 21 14 32 83 20
131 -16 62 -40 62 -26 -1z"/>
<path d="M3900 5724 c0 -40 4 -54 14 -54 10 0 16 14 18 42 l3 43 48 1 c57 2
71 -12 25 -24 -26 -6 -33 -13 -33 -33 0 -21 5 -24 43 -25 l42 -2 0 42 c0 46
-13 66 -45 66 -12 0 -26 -5 -33 -12 -8 -8 -12 -8 -12 -1 0 6 -16 11 -35 11
l-35 0 0 -54z m138 -16 c-5 -15 -48 -24 -48 -10 0 14 12 22 33 22 10 0 17 -5
15 -12z"/>
<path d="M4150 5725 c0 -42 3 -55 15 -55 12 0 15 13 15 55 0 42 -3 55 -15 55
-12 0 -15 -13 -15 -55z"/>
<path d="M4216 5764 c-19 -18 -21 -65 -4 -82 16 -16 63 -15 77 2 9 11 9 16 0
22 -7 4 -15 2 -17 -4 -6 -19 -39 -14 -45 7 -9 35 34 73 45 39 2 -6 10 -8 17
-4 9 6 9 11 0 22 -15 19 -54 18 -73 -2z"/>
<path d="M4326 5764 c-19 -18 -21 -65 -4 -82 7 -7 24 -12 38 -12 34 0 50 17
50 55 0 17 -5 36 -12 43 -17 17 -54 15 -72 -4z m59 -23 c8 -26 -4 -51 -25 -51
-21 0 -31 30 -18 54 12 22 35 20 43 -3z"/>
<path d="M4482 5768 c-7 -7 -12 -26 -12 -43 0 -17 5 -36 12 -43 15 -15 58 -16
58 -2 0 6 -8 10 -19 10 -22 0 -32 30 -19 54 5 9 16 16 24 16 8 0 12 5 9 10 -8
14 -38 13 -53 -2z"/>
<path d="M4606 5764 c-19 -18 -21 -65 -4 -82 17 -17 63 -15 79 4 11 14 9 15
-23 9 -27 -5 -37 -3 -41 9 -5 13 1 16 33 16 28 0 40 4 40 14 0 20 -28 46 -50
46 -10 0 -26 -7 -34 -16z m58 -19 c4 -11 -2 -15 -24 -15 -22 0 -28 4 -24 15 4
8 14 15 24 15 10 0 20 -7 24 -15z"/>
<path d="M4763 5726 c12 -31 28 -56 35 -56 12 0 30 34 47 89 5 17 4 22 -6 19
-8 -3 -18 -19 -23 -36 -11 -41 -21 -40 -32 0 -6 18 -17 34 -26 36 -15 3 -14
-4 5 -52z"/>
<path d="M4876 5764 c-19 -18 -21 -65 -4 -82 17 -17 63 -15 79 4 11 14 9 15
-23 9 -27 -5 -37 -3 -41 9 -5 13 1 16 33 16 28 0 40 4 40 14 0 20 -28 46 -50
46 -10 0 -26 -7 -34 -16z m58 -19 c4 -11 -2 -15 -24 -15 -22 0 -28 4 -24 15 4
8 14 15 24 15 10 0 20 -7 24 -15z"/>
<path d="M4980 5724 c0 -40 4 -54 14 -54 10 0 16 14 18 42 2 31 8 44 21 46 14
3 17 -4 17 -42 0 -34 4 -46 15 -46 11 0 15 12 15 44 0 52 -12 64 -62 64 l-38
0 0 -54z"/>
<path d="M5102 5768 c-7 -7 -12 -26 -12 -43 0 -17 5 -36 12 -43 15 -15 58 -16
58 -2 0 6 -8 10 -19 10 -22 0 -32 30 -19 54 5 9 16 16 24 16 8 0 12 5 9 10 -8
14 -38 13 -53 -2z"/>
<path d="M5219 5764 c-12 -15 -10 -16 18 -10 42 10 53 -11 11 -22 -26 -6 -33
-13 -33 -33 0 -21 5 -24 43 -25 l42 -2 0 42 c0 23 -5 47 -12 54 -17 17 -53 15
-69 -4z m59 -56 c-5 -15 -48 -24 -48 -10 0 14 12 22 33 22 10 0 17 -5 15 -12z"/>
<path d="M5322 5768 c-20 -20 -13 -39 18 -49 17 -6 30 -15 30 -21 0 -5 -13 -7
-30 -3 -36 8 -42 -12 -6 -21 62 -15 94 37 36 57 -41 15 -39 33 2 23 29 -6 31
-5 19 10 -16 19 -52 21 -69 4z"/>
<path d="M4428 5273 c7 -3 16 -2 19 1 4 3 -2 6 -13 5 -11 0 -14 -3 -6 -6z"/>
<path d="M4468 5273 c7 -3 16 -2 19 1 4 3 -2 6 -13 5 -11 0 -14 -3 -6 -6z"/>
<path d="M3912 5258 c-6 -6 -12 -19 -12 -27 1 -14 3 -13 14 2 16 21 45 22 53
1 3 -9 -6 -28 -24 -47 -61 -67 -61 -67 -4 -67 28 0 51 5 51 10 0 6 -14 10 -30
10 l-30 0 30 42 c27 37 29 43 16 62 -16 25 -46 32 -64 14z"/>
<path d="M4037 5257 c-45 -32 -25 -137 26 -137 34 0 47 19 47 70 0 65 -34 96
-73 67z m53 -33 c14 -36 13 -49 -8 -74 -17 -21 -19 -21 -35 -5 -9 9 -17 31
-17 49 0 55 43 77 60 30z"/>
<path d="M4167 5257 c-45 -32 -25 -137 26 -137 34 0 47 19 47 70 0 65 -34 96
-73 67z m53 -33 c14 -36 13 -49 -8 -74 -17 -21 -19 -21 -35 -5 -9 9 -17 31
-17 49 0 55 43 77 60 30z"/>
<path d="M4297 5257 c-45 -32 -25 -137 26 -137 34 0 47 19 47 70 0 65 -34 96
-73 67z m53 -33 c14 -36 13 -49 -8 -74 -17 -21 -19 -21 -35 -5 -9 9 -17 31
-17 49 0 55 43 77 60 30z"/>
<path d="M1917 5130 c-3 -11 -1 -20 4 -20 4 0 13 9 19 20 8 16 8 20 -3 20 -8
0 -17 -9 -20 -20z"/>
<path d="M1028 5129 c-21 -12 -24 -52 -5 -66 6 -6 26 -15 42 -20 40 -13 42
-47 2 -51 -18 -2 -29 2 -33 12 -7 17 -34 22 -34 7 0 -39 84 -55 114 -22 26 28
12 57 -32 72 -49 15 -58 25 -42 44 16 19 34 19 54 0 18 -19 26 -19 26 0 0 29
-58 44 -92 24z"/>
<path d="M1300 5055 c0 -47 4 -85 9 -85 14 0 19 21 14 55 -6 35 15 59 40 49
38 -14 26 -84 -13 -84 -11 0 -20 -4 -20 -10 0 -5 13 -10 30 -10 34 0 50 23 50
69 0 40 -42 71 -71 53 -17 -11 -19 -9 -19 18 0 16 -4 30 -10 30 -6 0 -10 -35
-10 -85z"/>
<path d="M577 5119 c-29 -17 -40 -57 -24 -88 13 -26 12 -30 -15 -60 -26 -29
-41 -90 -18 -76 6 3 10 14 10 24 0 24 37 61 63 62 59 3 107 -25 107 -62 0 -10
5 -21 10 -24 24 -15 8 49 -19 76 -28 28 -29 30 -15 58 32 64 -37 126 -99 90z
m78 -29 c15 -17 16 -24 7 -45 -14 -30 -33 -39 -67 -31 -33 8 -44 50 -20 76 23
26 57 25 80 0z"/>
<path d="M700 5111 c0 -5 7 -14 15 -21 18 -15 19 -34 3 -59 -9 -15 -7 -24 9
-47 11 -16 24 -42 28 -59 l9 -30 4 28 c2 16 -5 41 -17 60 -14 22 -17 37 -11
47 15 24 11 56 -8 73 -21 19 -32 22 -32 8z"/>
<path d="M1170 5080 c-39 -39 -14 -110 40 -110 33 0 60 31 60 67 0 28 -33 63
-60 63 -11 0 -29 -9 -40 -20z m59 -14 c7 -8 11 -27 9 -43 -2 -22 -8 -28 -28
-28 -20 0 -26 6 -28 28 -3 27 12 57 28 57 4 0 13 -6 19 -14z"/>
<path d="M1440 5035 c0 -37 4 -65 10 -65 6 0 10 21 10 46 0 37 4 47 20 51 11
3 20 12 20 19 0 17 -12 18 -28 2 -9 -9 -12 -9 -12 0 0 7 -4 12 -10 12 -6 0
-10 -28 -10 -65z"/>
<path d="M1540 5080 c-39 -39 -14 -110 39 -110 34 0 60 24 36 34 -8 3 -15 1
-15 -5 0 -18 -45 -5 -48 14 -3 14 4 17 37 17 34 0 41 3 41 19 0 20 -35 51 -57
51 -7 0 -22 -9 -33 -20z m58 -12 c19 -19 14 -28 -18 -28 -41 0 -40 33 1 39 3
1 10 -4 17 -11z"/>
<path d="M1730 5035 c0 -37 4 -65 10 -65 6 0 10 20 10 44 0 26 6 48 15 56 25
20 45 -5 45 -56 0 -24 5 -44 10 -44 6 0 10 25 10 55 0 49 -3 57 -25 67 -19 8
-28 8 -40 -2 -10 -8 -15 -9 -15 -1 0 6 -4 11 -10 11 -6 0 -10 -28 -10 -65z"/>
<path d="M1880 5080 c-39 -39 -14 -110 40 -110 33 0 60 31 60 67 0 28 -33 63
-60 63 -11 0 -29 -9 -40 -20z m59 -14 c7 -8 11 -27 9 -43 -2 -22 -8 -28 -28
-28 -20 0 -26 6 -28 28 -3 27 12 57 28 57 4 0 13 -6 19 -14z"/>
<path d="M2020 5082 c-28 -23 -20 -39 27 -58 18 -8 31 -19 28 -24 -8 -13 -42
-13 -50 0 -4 6 -11 8 -16 4 -17 -10 11 -34 40 -34 37 0 53 14 49 41 -2 16 -12
25 -35 31 -18 5 -33 13 -33 19 0 16 29 22 45 9 9 -7 19 -10 23 -6 8 9 -26 36
-44 36 -6 0 -22 -8 -34 -18z"/>
<path d="M3958 4756 c-10 -7 -18 -19 -18 -26 0 -9 6 -8 19 5 20 17 20 16 24
-46 l3 -64 2 73 c2 75 -1 80 -30 58z"/>
<path d="M4054 4762 c-55 -36 -36 -147 23 -140 33 4 48 27 40 60 -7 28 -35 40
-61 26 -22 -12 -22 15 0 33 13 10 19 10 36 0 26 -16 39 -3 14 15 -22 16 -36
17 -52 6z m44 -91 c4 -29 -15 -43 -40 -30 -21 11 -23 30 -6 47 19 19 43 10 46
-17z"/>
<path d="M4167 4757 c-45 -32 -25 -137 26 -137 34 0 47 19 47 70 0 65 -34 96
-73 67z m53 -33 c14 -36 13 -49 -8 -74 -17 -21 -19 -21 -35 -5 -9 9 -17 31
-17 49 0 55 43 77 60 30z"/>
<path d="M4297 4757 c-45 -32 -25 -137 26 -137 34 0 47 19 47 70 0 65 -34 96
-73 67z m53 -33 c14 -36 13 -49 -8 -74 -17 -21 -19 -21 -35 -5 -9 9 -17 31
-17 49 0 55 43 77 60 30z"/>
<path d="M4448 4683 c12 -2 30 -2 40 0 9 3 -1 5 -23 4 -22 0 -30 -2 -17 -4z"/>
<path d="M517 4233 c-4 -3 -7 -34 -7 -67 l0 -62 63 -62 c35 -35 71 -62 83 -62
26 0 114 89 114 116 0 11 -28 47 -63 82 l-63 62 -60 0 c-33 0 -64 -3 -67 -7z
m180 -65 c29 -29 53 -60 53 -68 0 -9 -22 -38 -50 -65 l-50 -49 -65 67 c-60 61
-65 71 -65 110 0 59 14 70 75 63 43 -5 56 -12 102 -58z"/>
<path d="M570 4165 c0 -8 7 -15 15 -15 8 0 15 7 15 15 0 8 -7 15 -15 15 -8 0
-15 -7 -15 -15z"/>
<path d="M1010 4155 c0 -50 4 -85 10 -85 6 0 10 14 10 30 0 28 3 30 34 30 35
0 66 27 66 57 0 27 -39 53 -80 53 l-40 0 0 -85z m74 52 c29 -21 16 -51 -22
-55 -31 -3 -32 -2 -32 32 0 40 20 48 54 23z"/>
<path d="M1470 4208 c0 -25 -3 -29 -12 -20 -7 7 -18 12 -25 12 -23 0 -53 -39
-53 -68 0 -40 27 -61 78 -60 l42 0 0 84 c0 68 -3 84 -15 84 -10 0 -15 -10 -15
-32z m-11 -42 c7 -8 11 -27 9 -43 -2 -22 -8 -28 -28 -28 -20 0 -26 6 -28 28
-3 27 12 57 28 57 4 0 13 -6 19 -14z"/>
<path d="M1670 4216 c0 -8 -6 -17 -12 -19 -10 -4 -10 -7 -1 -14 6 -5 13 -31
15 -58 3 -43 6 -50 26 -53 12 -2 22 1 22 7 0 6 -4 11 -10 11 -15 0 -12 87 3
94 10 5 10 7 0 12 -7 3 -13 12 -13 20 0 8 -7 14 -15 14 -8 0 -15 -6 -15 -14z"/>
<path d="M1160 4135 c0 -37 4 -65 10 -65 6 0 10 21 10 46 0 37 4 47 20 51 11
3 20 12 20 19 0 17 -12 18 -28 2 -9 -9 -12 -9 -12 0 0 7 -4 12 -10 12 -6 0
-10 -28 -10 -65z"/>
<path d="M1260 4180 c-39 -39 -14 -110 40 -110 33 0 60 31 60 67 0 28 -33 63
-60 63 -11 0 -29 -9 -40 -20z m59 -14 c7 -8 11 -27 9 -43 -2 -22 -8 -28 -28
-28 -20 0 -26 6 -28 28 -3 27 12 57 28 57 4 0 13 -6 19 -14z"/>
<path d="M1530 4140 c0 -55 2 -60 25 -66 15 -4 32 -1 40 6 10 9 15 9 15 1 0
-6 5 -11 10 -11 6 0 10 28 10 65 0 37 -4 65 -10 65 -5 0 -10 -20 -10 -44 0
-46 -19 -72 -45 -62 -11 4 -15 20 -15 56 0 27 -4 50 -10 50 -6 0 -10 -27 -10
-60z"/>
<path d="M1760 4180 c-39 -39 -14 -110 40 -110 33 0 60 31 60 67 0 28 -33 63
-60 63 -11 0 -29 -9 -40 -20z m59 -14 c7 -8 11 -27 9 -43 -2 -22 -8 -28 -28
-28 -20 0 -26 6 -28 28 -3 27 12 57 28 57 4 0 13 -6 19 -14z"/>
<path d="M1900 4182 c-28 -23 -20 -39 27 -58 18 -8 31 -19 28 -24 -8 -13 -42
-13 -50 0 -4 6 -11 8 -16 4 -17 -10 11 -34 40 -34 37 0 53 14 49 41 -2 16 -12
25 -35 31 -18 5 -33 13 -33 19 0 16 29 22 45 9 9 -7 19 -10 23 -6 8 9 -26 36
-44 36 -6 0 -22 -8 -34 -18z"/>
<path d="M3958 4166 c-10 -7 -18 -19 -18 -26 0 -9 6 -8 19 5 20 17 20 16 24
-46 l3 -64 2 73 c2 75 -1 80 -30 58z"/>
<path d="M4042 4168 c-6 -6 -12 -19 -12 -27 1 -14 3 -13 14 2 16 21 45 22 53
1 3 -9 -6 -28 -24 -47 -61 -67 -61 -67 -4 -67 28 0 51 5 51 10 0 6 -14 10 -30
10 l-30 0 30 42 c27 37 29 43 16 62 -16 25 -46 32 -64 14z"/>
<path d="M4167 4167 c-45 -32 -25 -137 26 -137 34 0 47 19 47 70 0 65 -34 96
-73 67z m53 -33 c14 -36 13 -49 -8 -74 -17 -21 -19 -21 -35 -5 -9 9 -17 31
-17 49 0 55 43 77 60 30z"/>
<path d="M4297 4167 c-45 -32 -25 -137 26 -137 34 0 47 19 47 70 0 65 -34 96
-73 67z m53 -33 c14 -36 13 -49 -8 -74 -17 -21 -19 -21 -35 -5 -9 9 -17 31
-17 49 0 55 43 77 60 30z"/>
<path d="M4443 4093 c9 -2 25 -2 35 0 9 3 1 5 -18 5 -19 0 -27 -2 -17 -5z"/>
<path d="M4048 3579 c-20 -11 -24 -44 -8 -54 6 -4 4 -12 -5 -21 -31 -31 -7
-68 41 -62 35 4 53 31 37 56 -7 12 -8 24 -2 33 12 19 11 25 -7 43 -18 18 -32
20 -56 5z m50 -30 c3 -17 -23 -33 -39 -23 -5 3 -9 14 -9 25 0 15 6 20 22 17
13 -2 24 -10 26 -19z m0 -65 c3 -23 -18 -37 -43 -28 -18 7 -19 26 -3 42 18 18
43 10 46 -14z"/>
<path d="M4167 3577 c-45 -32 -25 -137 26 -137 34 0 47 19 47 70 0 65 -34 96
-73 67z m53 -33 c14 -36 13 -49 -8 -74 -17 -21 -19 -21 -35 -5 -9 9 -17 31
-17 49 0 55 43 77 60 30z"/>
<path d="M4297 3577 c-45 -32 -25 -137 26 -137 34 0 47 19 47 70 0 65 -34 96
-73 67z m53 -33 c14 -36 13 -49 -8 -74 -17 -21 -19 -21 -35 -5 -9 9 -17 31
-17 49 0 55 43 77 60 30z"/>
<path d="M4448 3503 c12 -2 30 -2 40 0 9 3 -1 5 -23 4 -22 0 -30 -2 -17 -4z"/>
<path d="M536 3315 c-13 -20 -16 -46 -14 -128 l3 -102 115 0 115 0 3 102 c4
145 -2 153 -118 153 -83 0 -89 -1 -104 -25z m185 -6 c9 -18 5 -19 -81 -19 -86
0 -90 1 -81 19 9 16 22 19 81 19 59 0 72 -3 81 -19z m17 -123 l-3 -91 -95 0
-95 0 -3 91 -3 91 101 0 101 0 -3 -91z"/>
<path d="M580 3227 c0 -41 74 -61 103 -29 19 21 22 42 7 42 -5 0 -10 -7 -10
-15 0 -22 -36 -38 -60 -25 -11 6 -20 17 -20 25 0 8 -4 15 -10 15 -5 0 -10 -6
-10 -13z"/>
<path d="M1010 3255 c0 -50 4 -85 10 -85 6 0 10 14 10 30 0 28 3 30 34 30 35
0 66 27 66 57 0 27 -39 53 -80 53 l-40 0 0 -85z m74 52 c29 -21 16 -51 -22
-55 -31 -3 -32 -2 -32 32 0 40 20 48 54 23z"/>
<path d="M1380 3308 c0 -25 -3 -29 -12 -20 -7 7 -18 12 -25 12 -23 0 -53 -39
-53 -68 0 -40 27 -61 78 -60 l42 0 0 84 c0 68 -3 84 -15 84 -10 0 -15 -10 -15
-32z m-11 -42 c7 -8 11 -27 9 -43 -2 -22 -8 -28 -28 -28 -20 0 -26 6 -28 28
-3 27 12 57 28 57 4 0 13 -6 19 -14z"/>
<path d="M1437 3334 c-11 -11 3 -24 18 -18 8 4 12 10 9 15 -6 11 -18 12 -27 3z"/>
<path d="M1580 3308 c0 -25 -3 -29 -12 -20 -7 7 -18 12 -25 12 -23 0 -53 -39
-53 -68 0 -40 27 -61 78 -60 l42 0 0 84 c0 68 -3 84 -15 84 -10 0 -15 -10 -15
-32z m-11 -42 c7 -8 11 -27 9 -43 -2 -22 -8 -28 -28 -28 -20 0 -26 6 -28 28
-3 27 12 57 28 57 4 0 13 -6 19 -14z"/>
<path d="M1170 3280 c-39 -39 -14 -110 39 -110 34 0 60 24 36 34 -8 3 -15 1
-15 -5 0 -18 -45 -5 -48 14 -3 14 4 17 37 17 34 0 41 3 41 19 0 20 -35 51 -57
51 -7 0 -22 -9 -33 -20z m58 -12 c19 -19 14 -28 -18 -28 -41 0 -40 33 1 39 3
1 10 -4 17 -11z"/>
<path d="M1440 3235 c0 -37 4 -65 10 -65 6 0 10 28 10 65 0 37 -4 65 -10 65
-6 0 -10 -28 -10 -65z"/>
<path d="M1650 3280 c-39 -39 -14 -110 40 -110 33 0 60 31 60 67 0 28 -33 63
-60 63 -11 0 -29 -9 -40 -20z m59 -14 c7 -8 11 -27 9 -43 -2 -22 -8 -28 -28
-28 -20 0 -26 6 -28 28 -3 27 12 57 28 57 4 0 13 -6 19 -14z"/>
<path d="M1790 3282 c-28 -23 -20 -39 27 -58 18 -8 31 -19 28 -24 -8 -13 -42
-13 -50 0 -4 6 -11 8 -16 4 -17 -10 11 -34 40 -34 37 0 53 14 49 41 -2 16 -12
25 -35 31 -18 5 -33 13 -33 19 0 16 29 22 45 9 9 -7 19 -10 23 -6 8 9 -26 36
-44 36 -6 0 -22 -8 -34 -18z"/>
<path d="M4045 2948 c-19 -29 -35 -56 -35 -60 0 -5 16 -8 35 -8 24 0 35 -5 35
-15 0 -8 5 -15 10 -15 6 0 10 6 10 14 0 8 6 17 13 20 10 5 10 7 0 12 -8 3 -13
25 -13 55 0 27 -4 49 -10 49 -5 0 -25 -24 -45 -52z m35 -13 c0 -29 -4 -35 -21
-35 -11 0 -19 3 -17 8 21 42 32 62 35 62 1 0 3 -16 3 -35z"/>
<path d="M4167 2987 c-45 -32 -25 -137 26 -137 34 0 47 19 47 70 0 65 -34 96
-73 67z m53 -33 c14 -36 13 -49 -8 -74 -17 -21 -19 -21 -35 -5 -9 9 -17 31
-17 49 0 55 43 77 60 30z"/>
<path d="M4297 2987 c-45 -32 -25 -137 26 -137 34 0 47 19 47 70 0 65 -34 96
-73 67z m53 -33 c14 -36 13 -49 -8 -74 -17 -21 -19 -21 -35 -5 -9 9 -17 31
-17 49 0 55 43 77 60 30z"/>
<path d="M4476 2934 c-3 -8 -9 -13 -13 -11 -5 3 -17 1 -28 -4 -15 -6 -10 -8
20 -6 29 1 41 7 43 20 4 21 -14 23 -22 1z"/>
<path d="M1042 2433 c-23 -9 -44 -64 -37 -99 11 -61 84 -85 127 -42 26 26 7
39 -21 14 -10 -9 -25 -16 -34 -16 -47 0 -66 86 -25 114 29 21 34 20 59 -5 29
-29 44 -19 19 14 -21 26 -54 34 -88 20z"/>
<path d="M1180 2355 c0 -50 4 -85 10 -85 6 0 10 35 10 85 0 50 -4 85 -10 85
-6 0 -10 -35 -10 -85z"/>
<path d="M1237 2434 c-11 -11 3 -24 18 -18 8 4 12 10 9 15 -6 11 -18 12 -27 3z"/>
<path d="M568 2413 c-24 -27 -29 -56 -15 -83 12 -23 11 -28 -15 -58 -26 -30
-40 -91 -18 -77 6 3 10 14 10 24 0 24 37 61 63 62 59 3 107 -25 107 -62 0 -10
5 -21 10 -24 22 -14 8 47 -18 77 -26 30 -27 35 -15 58 23 46 -10 100 -62 100
-18 0 -39 -8 -47 -17z m84 -20 c22 -20 23 -41 1 -65 -29 -32 -75 -22 -88 20
-14 48 48 81 87 45z"/>
<path d="M1580 2416 c0 -8 -6 -17 -12 -19 -10 -4 -10 -7 -1 -14 6 -5 13 -31
15 -58 3 -43 6 -50 26 -53 12 -2 22 1 22 7 0 6 -4 11 -10 11 -15 0 -12 87 3
94 10 5 10 7 0 12 -7 3 -13 12 -13 20 0 8 -7 14 -15 14 -8 0 -15 -6 -15 -14z"/>
<path d="M700 2413 c0 -3 8 -15 17 -25 14 -16 15 -24 5 -50 -10 -26 -9 -34 8
-56 11 -13 20 -35 20 -48 0 -12 5 -26 10 -29 19 -12 10 52 -11 79 -16 20 -19
30 -10 39 17 17 13 62 -7 80 -19 18 -32 22 -32 10z"/>
<path d="M4297 2397 c-45 -32 -25 -137 26 -137 34 0 47 19 47 70 0 65 -34 96
-73 67z m53 -33 c14 -36 13 -49 -8 -74 -17 -21 -19 -21 -35 -5 -9 9 -17 31
-17 49 0 55 43 77 60 30z"/>
<path d="M1240 2335 c0 -37 4 -65 10 -65 6 0 10 28 10 65 0 37 -4 65 -10 65
-6 0 -10 -28 -10 -65z"/>
<path d="M1310 2380 c-39 -39 -14 -110 39 -110 34 0 60 24 36 34 -8 3 -15 1
-15 -5 0 -18 -45 -5 -48 14 -3 14 4 17 37 17 34 0 41 3 41 19 0 20 -35 51 -57
51 -7 0 -22 -9 -33 -20z m58 -12 c19 -19 14 -28 -18 -28 -41 0 -40 33 1 39 3
1 10 -4 17 -11z"/>
<path d="M1440 2335 c0 -37 4 -65 10 -65 6 0 10 20 10 44 0 51 20 76 45 56 9
-8 15 -30 15 -56 0 -24 5 -44 10 -44 6 0 10 25 10 55 0 49 -3 57 -25 67 -19 8
-28 8 -40 -2 -10 -8 -15 -9 -15 -1 0 6 -4 11 -10 11 -6 0 -10 -28 -10 -65z"/>
<path d="M1670 2380 c-39 -39 -14 -110 39 -110 34 0 60 24 36 34 -8 3 -15 1
-15 -5 0 -18 -45 -5 -48 14 -3 14 4 17 37 17 34 0 41 3 41 19 0 20 -35 51 -57
51 -7 0 -22 -9 -33 -20z m58 -12 c19 -19 14 -28 -18 -28 -41 0 -40 33 1 39 3
1 10 -4 17 -11z"/>
<path d="M1810 2382 c-28 -23 -20 -39 27 -58 18 -8 31 -19 28 -24 -8 -13 -42
-13 -50 0 -4 6 -11 8 -16 4 -17 -10 11 -34 40 -34 37 0 53 14 49 41 -2 16 -12
25 -35 31 -18 5 -33 13 -33 19 0 16 29 22 45 9 9 -7 19 -10 23 -6 8 9 -26 36
-44 36 -6 0 -22 -8 -34 -18z"/>
<path d="M5724 2340 c-6 -6 -237 -11 -629 -13 l-620 -2 633 -3 c503 -2 632 -5
626 -14 -6 -10 -4 -10 7 0 10 9 263 12 1195 12 l1183 0 4 -32 4 -33 1 32 2 33
600 0 600 0 0 -32 c0 -37 9 -33 12 5 l2 27 598 0 597 -1 4 -32 4 -32 1 32 2
32 600 1 600 0 0 -27 c0 -20 3 -24 9 -14 5 8 7 20 4 27 -4 12 304 14 1812 14
1725 0 1816 -1 1811 -18 -3 -9 -1 -24 4 -32 7 -11 10 -7 10 18 l0 32 599 0
600 -1 4 -32 4 -32 1 33 2 32 599 0 600 -1 4 -32 c4 -31 4 -31 5 6 l2 37 -552
0 c-304 0 -1111 0 -1792 0 -979 0 -1242 3 -1254 12 -12 10 -14 10 -9 1 6 -10
-261 -13 -1248 -13 -920 0 -1254 3 -1249 11 5 8 1 8 -14 0 -27 -15 -5976 -15
-5967 -1 8 13 2 13 -11 0z"/>
<path d="M4438 2323 c6 -2 18 -2 25 0 6 3 1 5 -13 5 -14 0 -19 -2 -12 -5z"/>
<path d="M5690 2296 c0 -8 5 -18 10 -21 6 -3 10 3 10 14 0 12 -4 21 -10 21 -5
0 -10 -6 -10 -14z"/>
<path d="M12960 2289 c0 -11 5 -17 10 -14 6 3 10 13 10 21 0 8 -4 14 -10 14
-5 0 -10 -9 -10 -21z"/>
<path d="M14170 2290 c0 -11 5 -20 10 -20 6 0 10 9 10 20 0 11 -4 20 -10 20
-5 0 -10 -9 -10 -20z"/>
<path d="M4330 2230 c0 -5 7 -10 16 -10 8 0 12 5 9 10 -3 6 -10 10 -16 10 -5
0 -9 -4 -9 -10z"/>
<path d="M5560 2231 c0 -5 -8 -17 -17 -27 -13 -13 -14 -19 -5 -22 7 -2 12 -22
12 -48 0 -24 5 -44 10 -44 6 0 10 20 10 45 0 33 4 45 15 45 8 0 15 5 15 10 0
6 -7 10 -16 10 -9 0 -14 6 -11 13 2 6 10 11 16 10 6 -2 11 2 11 7 0 6 -9 10
-20 10 -11 0 -20 -4 -20 -9z"/>
<path d="M8070 2164 c0 -48 4 -74 9 -65 8 13 5 131 -4 140 -3 2 -5 -31 -5 -75z"/>
<path d="M9440 2230 c0 -5 7 -10 16 -10 8 0 12 5 9 10 -3 6 -10 10 -16 10 -5
0 -9 -4 -9 -10z"/>
<path d="M10380 2230 c0 -5 7 -10 16 -10 8 0 12 5 9 10 -3 6 -10 10 -16 10 -5
0 -9 -4 -9 -10z"/>
<path d="M11630 2230 c0 -5 7 -10 16 -10 8 0 12 5 9 10 -3 6 -10 10 -16 10 -5
0 -9 -4 -9 -10z"/>
<path d="M11813 2165 c0 -44 2 -61 4 -37 2 23 2 59 0 80 -2 20 -4 1 -4 -43z"/>
<path d="M17700 2217 c0 -20 -4 -23 -30 -19 -24 3 -32 0 -42 -22 -8 -19 -9
-35 -2 -54 8 -23 15 -27 52 -28 l42 -2 0 74 c0 43 -4 74 -10 74 -5 0 -10 -10
-10 -23z m-2 -68 c4 -34 -22 -57 -43 -39 -16 13 -20 51 -8 64 16 16 48 1 51
-25z"/>
<path d="M14250 2216 c0 -8 -6 -17 -12 -19 -10 -4 -10 -8 -1 -14 6 -4 13 -26
15 -48 2 -28 8 -41 21 -43 9 -2 17 2 17 8 0 6 -4 8 -10 5 -6 -4 -10 10 -10 34
0 22 6 42 13 45 10 5 10 7 0 12 -7 3 -13 12 -13 20 0 8 -4 14 -10 14 -5 0 -10
-6 -10 -14z"/>
<path d="M15470 2216 c0 -8 -6 -17 -12 -19 -10 -4 -10 -8 -1 -14 6 -4 13 -26
15 -48 2 -28 8 -41 21 -43 9 -2 17 2 17 8 0 6 -4 8 -10 5 -6 -4 -10 10 -10 34
0 22 6 42 13 45 10 5 10 7 0 12 -7 3 -13 12 -13 20 0 8 -4 14 -10 14 -5 0 -10
-6 -10 -14z"/>
<path d="M4342 2145 c-1 -34 -7 -66 -14 -73 -6 -6 -9 -15 -5 -19 17 -17 28 19
24 83 l-3 69 -2 -60z"/>
<path d="M4390 2185 c-14 -17 -7 -19 19 -6 21 12 51 -3 36 -18 -6 -5 -21 -11
-35 -13 -19 -2 -25 -9 -25 -28 0 -23 4 -25 43 -26 l42 -2 0 42 c0 23 -5 47
-12 54 -17 17 -53 15 -68 -3z m60 -54 c0 -5 -7 -14 -15 -21 -18 -15 -42 1 -31
19 8 13 46 15 46 2z"/>
<path d="M4502 2150 c1 -51 1 -52 7 -15 5 31 11 41 28 43 23 3 26 -3 36 -68 3
-14 5 -1 6 28 1 57 -15 75 -50 54 -13 -9 -19 -8 -22 1 -3 7 -5 -13 -5 -43z"/>
<path d="M5616 2184 c-18 -18 -20 -47 -6 -75 13 -23 62 -26 80 -4 15 18 7 19
-21 4 -15 -7 -24 -7 -35 2 -24 20 -16 29 26 29 44 0 47 5 24 38 -18 26 -46 28
-68 6z m62 -21 c2 -9 -7 -13 -27 -13 -30 0 -39 9 -24 24 11 10 46 3 51 -11z"/>
<path d="M5720 2191 c0 -18 40 -101 48 -101 5 0 18 25 30 56 23 64 7 69 -18 5
l-17 -44 -13 47 c-7 25 -17 46 -21 46 -5 0 -9 -4 -9 -9z"/>
<path d="M6722 2145 c1 -46 2 -51 5 -20 8 78 53 85 53 9 0 -24 5 -44 10 -44 6
0 10 20 10 45 0 38 3 45 20 45 17 0 20 -7 20 -45 0 -25 5 -45 10 -45 11 0 13
79 2 96 -9 15 -112 15 -112 0 0 -6 -5 -4 -10 4 -7 10 -9 -3 -8 -45z"/>
<path d="M6900 2185 c-14 -17 -7 -19 19 -6 21 12 51 -3 36 -18 -6 -5 -21 -11
-35 -13 -19 -2 -25 -9 -25 -28 0 -23 4 -25 43 -26 l42 -2 0 42 c0 23 -5 47
-12 54 -17 17 -53 15 -68 -3z m60 -54 c0 -5 -7 -14 -15 -21 -18 -15 -42 1 -31
19 8 13 46 15 46 2z"/>
<path d="M7012 2140 c1 -51 2 -52 5 -11 3 32 9 44 24 48 28 8 23 23 -6 21 -24
-2 -25 -5 -23 -58z"/>
<path d="M7960 2185 c-14 -17 -7 -19 19 -6 21 12 51 -3 36 -18 -6 -6 -22 -12
-35 -14 -19 -3 -25 -10 -25 -28 0 -21 5 -24 43 -25 l42 -2 0 42 c0 23 -5 47
-12 54 -17 17 -53 15 -68 -3z m60 -59 c0 -18 -30 -30 -43 -17 -5 5 -6 14 -3
20 10 16 46 13 46 -3z"/>
<path d="M8095 2190 c-4 -6 5 -10 19 -10 23 0 26 -4 26 -34 0 -33 -20 -53 -41
-40 -5 3 -9 0 -9 -5 0 -15 43 -14 58 1 7 7 12 26 12 43 0 17 -5 36 -12 43 -15
15 -45 16 -53 2z"/>
<path d="M8192 2140 c1 -51 2 -52 5 -11 3 32 9 44 24 48 28 8 23 23 -6 21 -24
-2 -25 -5 -23 -58z"/>
<path d="M9162 2145 c1 -46 2 -51 5 -20 8 78 53 85 53 9 0 -24 5 -44 10 -44 6
0 10 20 10 45 0 38 3 45 20 45 17 0 20 -7 20 -45 0 -25 5 -45 10 -45 11 0 13
79 2 96 -9 15 -112 15 -112 0 0 -6 -5 -4 -10 4 -7 10 -9 -3 -8 -45z"/>
<path d="M9340 2185 c-14 -17 -7 -19 19 -6 21 12 51 -3 36 -18 -6 -5 -21 -11
-35 -13 -19 -2 -25 -9 -25 -28 0 -23 4 -25 43 -26 l42 -2 0 42 c0 23 -5 47
-12 54 -17 17 -53 15 -68 -3z m60 -54 c0 -5 -7 -14 -15 -21 -18 -15 -42 1 -31
19 8 13 46 15 46 2z"/>
<path d="M10392 2145 c-1 -34 -7 -66 -14 -73 -6 -6 -9 -15 -5 -19 17 -17 28
19 24 83 l-3 69 -2 -60z"/>
<path d="M10444 2150 c1 -45 4 -55 20 -58 10 -2 23 2 30 9 8 9 7 11 -6 6 -23
-8 -36 11 -41 58 -3 28 -4 24 -3 -15z"/>
<path d="M10508 2158 c-3 -24 -1 -50 3 -58 5 -9 9 7 9 43 0 67 -6 75 -12 15z"/>
<path d="M10562 2145 c1 -58 1 -58 7 -15 5 37 10 46 28 48 23 3 26 -3 36 -68
3 -14 5 -1 6 28 1 57 -15 75 -50 54 -13 -9 -19 -8 -22 1 -3 7 -5 -15 -5 -48z"/>
<path d="M11642 2145 c-1 -34 -7 -66 -14 -73 -6 -6 -9 -15 -5 -19 17 -17 28
19 24 83 l-3 69 -2 -60z"/>
<path d="M11758 2158 c-3 -24 -1 -50 3 -58 5 -9 9 7 9 43 0 67 -6 75 -12 15z"/>
<path d="M12780 2185 c-14 -17 -7 -19 19 -6 21 12 51 -3 36 -18 -6 -5 -21 -11
-35 -13 -19 -2 -25 -9 -25 -28 0 -23 4 -25 43 -26 l42 -2 0 42 c0 23 -5 47
-12 54 -17 17 -53 15 -68 -3z m60 -54 c0 -5 -7 -14 -15 -21 -18 -15 -42 1 -31
19 8 13 46 15 46 2z"/>
<path d="M12888 2176 c-22 -50 20 -106 57 -76 12 10 15 9 15 -9 0 -26 -26 -38
-51 -23 -10 6 -21 8 -23 3 -13 -21 62 -29 82 -9 7 7 12 39 12 73 l0 62 -40 1
c-34 2 -42 -2 -52 -22z m67 -31 c0 -25 -4 -30 -25 -30 -16 0 -26 6 -28 18 -6
30 6 49 30 45 18 -2 23 -9 23 -33z"/>
<path d="M13016 2184 c-34 -33 -12 -94 34 -94 31 0 50 22 50 59 0 25 -26 51
-50 51 -10 0 -26 -7 -34 -16z m62 -35 c4 -34 -22 -57 -43 -39 -16 13 -20 51
-8 64 16 16 48 1 51 -25z"/>
<path d="M14020 2186 c-16 -20 -1 -41 35 -50 14 -4 25 -10 25 -15 0 -15 -32
-22 -47 -10 -15 13 -28 6 -18 -10 9 -16 61 -13 75 4 10 12 10 18 0 30 -7 8
-18 15 -24 15 -6 0 -18 5 -26 10 -23 15 8 32 33 18 15 -8 18 -7 15 4 -7 19
-52 22 -68 4z"/>
<path d="M14136 2184 c-18 -18 -20 -47 -6 -75 13 -23 62 -26 80 -4 15 18 7 19
-21 4 -15 -7 -24 -7 -35 2 -24 20 -16 29 26 29 44 0 47 5 24 38 -18 26 -46 28
-68 6z m62 -21 c2 -9 -7 -13 -27 -13 -30 0 -39 9 -24 24 11 10 46 3 51 -11z"/>
<path d="M15236 2184 c-34 -33 -12 -94 34 -94 31 0 50 22 50 59 0 25 -26 51
-50 51 -10 0 -26 -7 -34 -16z m62 -35 c4 -34 -22 -57 -43 -39 -16 13 -20 51
-8 64 16 16 48 1 51 -25z"/>
<path d="M15354 2150 c1 -45 4 -55 20 -58 10 -2 23 2 30 9 8 9 7 11 -6 6 -23
-8 -36 11 -41 58 -3 28 -4 24 -3 -15z"/>
<path d="M16422 2150 c1 -51 1 -52 7 -15 5 31 11 41 28 43 23 3 26 -3 36 -68
3 -14 5 -1 6 28 1 57 -15 75 -50 54 -13 -9 -19 -8 -22 1 -3 7 -5 -13 -5 -43z"/>
<path d="M16546 2184 c-34 -33 -12 -94 34 -94 31 0 50 22 50 59 0 25 -26 51
-50 51 -10 0 -26 -7 -34 -16z m62 -35 c4 -34 -22 -57 -43 -39 -16 13 -20 51
-8 64 16 16 48 1 51 -25z"/>
<path d="M16650 2191 c0 -18 40 -101 48 -101 5 0 18 25 30 56 23 64 7 69 -18
5 l-17 -44 -13 47 c-7 25 -17 46 -21 46 -5 0 -9 -4 -9 -9z"/>
<path d="M17756 2184 c-18 -18 -20 -47 -6 -75 13 -23 62 -26 80 -4 15 18 7 19
-21 4 -15 -7 -24 -7 -35 2 -24 20 -16 29 26 29 44 0 47 5 24 38 -18 26 -46 28
-68 6z m62 -21 c2 -9 -7 -13 -27 -13 -30 0 -39 9 -24 24 11 10 46 3 51 -11z"/>
<path d="M17860 2190 c0 -5 14 -10 31 -10 l31 0 -31 -39 c-17 -21 -31 -42 -31
-45 0 -3 20 -6 45 -6 25 0 45 5 45 10 0 6 -14 10 -31 10 l-31 0 31 39 c17 21
31 42 31 45 0 3 -20 6 -45 6 -25 0 -45 -4 -45 -10z"/>
<path d="M9453 2140 c0 -30 2 -43 4 -27 2 15 2 39 0 55 -2 15 -4 2 -4 -28z"/>
<path d="M11694 2145 c1 -40 5 -51 20 -53 10 -2 23 2 30 9 8 9 7 11 -6 6 -22
-8 -35 10 -41 53 -3 23 -4 19 -3 -15z"/>
<path d="M15417 2153 c-2 -21 -1 -45 4 -53 5 -10 9 4 9 38 0 61 -6 68 -13 15z"/>
<path d="M4620 2106 c0 -9 5 -16 10 -16 6 0 10 4 10 9 0 6 -4 13 -10 16 -5 3
-10 -1 -10 -9z"/>
<path d="M5830 2106 c0 -9 5 -16 10 -16 6 0 10 4 10 9 0 6 -4 13 -10 16 -5 3
-10 -1 -10 -9z"/>
<path d="M7080 2106 c0 -9 5 -16 10 -16 6 0 10 4 10 9 0 6 -4 13 -10 16 -5 3
-10 -1 -10 -9z"/>
<path d="M8260 2106 c0 -9 5 -16 10 -16 6 0 10 4 10 9 0 6 -4 13 -10 16 -5 3
-10 -1 -10 -9z"/>
<path d="M9500 2106 c0 -9 5 -16 10 -16 6 0 10 4 10 9 0 6 -4 13 -10 16 -5 3
-10 -1 -10 -9z"/>
<path d="M10680 2106 c0 -9 5 -16 10 -16 6 0 10 4 10 9 0 6 -4 13 -10 16 -5 3
-10 -1 -10 -9z"/>
<path d="M11860 2106 c0 -9 5 -16 10 -16 6 0 10 4 10 9 0 6 -4 13 -10 16 -5 3
-10 -1 -10 -9z"/>
<path d="M13130 2106 c0 -9 5 -16 10 -16 6 0 10 4 10 9 0 6 -4 13 -10 16 -5 3
-10 -1 -10 -9z"/>
<path d="M14320 2106 c0 -9 5 -16 10 -16 6 0 10 4 10 9 0 6 -4 13 -10 16 -5 3
-10 -1 -10 -9z"/>
<path d="M15540 2106 c0 -9 5 -16 10 -16 6 0 10 4 10 9 0 6 -4 13 -10 16 -5 3
-10 -1 -10 -9z"/>
<path d="M16760 2106 c0 -9 5 -16 10 -16 6 0 10 4 10 9 0 6 -4 13 -10 16 -5 3
-10 -1 -10 -9z"/>
<path d="M17980 2106 c0 -9 5 -16 10 -16 6 0 10 4 10 9 0 6 -4 13 -10 16 -5 3
-10 -1 -10 -9z"/>
<path d="M675 1296 c-46 -21 -105 -75 -105 -96 0 -4 25 -8 55 -8 31 1 58 -2
62 -6 6 -6 -3 -7 -84 -9 -24 0 -43 -5 -43 -9 0 -9 15 -10 83 -8 26 1 47 -3 47
-9 0 -6 -31 -11 -72 -13 l-73 -3 -3 -39 c-12 -151 155 -274 301 -222 87 31
157 123 157 207 0 36 0 36 -40 34 -22 -1 -45 -6 -52 -12 -24 -18 -63 -10 -66
15 -4 23 -16 29 -27 12 -3 -5 -12 -7 -21 -3 -27 10 -11 46 31 70 52 30 58 29
53 -7 -3 -21 0 -30 9 -30 8 0 13 6 12 13 -5 42 -1 47 36 31 42 -17 44 -7 8 37
-36 42 -116 79 -173 79 -26 0 -66 -10 -95 -24z"/>
<path d="M2367 1179 c-9 -6 -17 -17 -17 -24 0 -8 -7 -15 -15 -15 -8 0 -15 -4
-15 -10 0 -5 7 -10 15 -10 12 0 15 -13 15 -55 0 -30 5 -55 10 -55 6 0 10 25
10 55 0 42 3 55 15 55 8 0 15 5 15 10 0 6 -7 10 -15 10 -8 0 -15 5 -15 10 0 6
7 10 15 10 8 0 15 4 15 9 0 16 -14 20 -33 10z"/>
<path d="M1260 1095 l0 -85 50 0 c28 0 50 5 50 10 0 6 -18 10 -40 10 -36 0
-40 3 -40 25 0 23 4 25 40 25 29 0 40 4 40 15 0 11 -11 15 -40 15 -36 0 -40 3
-40 25 0 23 4 25 40 25 22 0 40 5 40 10 0 6 -22 10 -50 10 l-50 0 0 -85z"/>
<path d="M1480 1148 c0 -25 -3 -29 -12 -20 -7 7 -18 12 -25 12 -23 0 -53 -39
-53 -68 0 -40 27 -61 78 -60 l42 0 0 84 c0 68 -3 84 -15 84 -10 0 -15 -10 -15
-32z m-11 -42 c7 -8 11 -27 9 -43 -2 -22 -8 -28 -28 -28 -20 0 -26 6 -28 28
-3 27 12 57 28 57 4 0 13 -6 19 -14z"/>
<path d="M1537 1174 c-11 -11 3 -24 18 -18 8 4 12 10 9 15 -6 11 -18 12 -27 3z"/>
<path d="M1960 1095 c0 -50 4 -85 10 -85 6 0 10 14 10 30 0 28 3 30 34 30 35
0 66 27 66 57 0 27 -39 53 -80 53 l-40 0 0 -85z m74 52 c29 -21 16 -51 -22
-55 -31 -3 -32 -2 -32 32 0 40 20 48 54 23z"/>
<path d="M2427 1174 c-11 -11 3 -24 18 -18 8 4 12 10 9 15 -6 11 -18 12 -27 3z"/>
<path d="M2490 1095 c0 -50 4 -85 10 -85 6 0 10 35 10 85 0 50 -4 85 -10 85
-6 0 -10 -35 -10 -85z"/>
<path d="M1600 1156 c0 -8 -6 -17 -12 -19 -10 -4 -10 -7 -1 -14 6 -5 13 -31
15 -58 3 -43 6 -50 26 -53 12 -2 22 1 22 7 0 6 -4 11 -10 11 -15 0 -12 87 3
94 10 5 10 7 0 12 -7 3 -13 12 -13 20 0 8 -7 14 -15 14 -8 0 -15 -6 -15 -14z"/>
<path d="M1540 1075 c0 -37 4 -65 10 -65 6 0 10 28 10 65 0 37 -4 65 -10 65
-6 0 -10 -28 -10 -65z"/>
<path d="M1689 1120 c-18 -14 -20 -19 -8 -20 8 0 20 5 26 11 13 13 43 5 43
-10 0 -6 -18 -15 -41 -21 -36 -10 -40 -14 -37 -38 3 -25 7 -27 51 -28 l47 -2
0 54 c0 42 -4 55 -19 64 -27 14 -35 13 -62 -10z m61 -65 c0 -19 -24 -29 -47
-20 -17 6 -17 7 1 21 26 18 46 18 46 -1z"/>
<path d="M1810 1075 c0 -37 4 -65 10 -65 6 0 10 21 10 46 0 37 4 47 20 51 11
3 20 12 20 19 0 17 -12 18 -28 2 -9 -9 -12 -9 -12 0 0 7 -4 12 -10 12 -6 0
-10 -28 -10 -65z"/>
<path d="M2120 1120 c-39 -39 -14 -110 39 -110 34 0 60 24 36 34 -8 3 -15 1
-15 -5 0 -18 -45 -5 -48 14 -3 14 4 17 37 17 34 0 41 3 41 19 0 20 -35 51 -57
51 -7 0 -22 -9 -33 -20z m58 -12 c19 -19 14 -28 -18 -28 -41 0 -40 33 1 39 3
1 10 -4 17 -11z"/>
<path d="M2250 1075 c0 -37 4 -65 10 -65 6 0 10 21 10 46 0 37 4 47 20 51 11
3 20 12 20 19 0 17 -12 18 -28 2 -9 -9 -12 -9 -12 0 0 7 -4 12 -10 12 -6 0
-10 -28 -10 -65z"/>
<path d="M2430 1075 c0 -37 4 -65 10 -65 6 0 10 28 10 65 0 37 -4 65 -10 65
-6 0 -10 -28 -10 -65z"/>
</g>
</svg>
