<?xml version="1.0" standalone="no"?>
<!DOCTYPE svg PUBLIC "-//W3C//DTD SVG 20010904//EN"
 "http://www.w3.org/TR/2001/REC-SVG-20010904/DTD/svg10.dtd">
<svg version="1.0" xmlns="http://www.w3.org/2000/svg"
 width="1876.000000pt" height="959.000000pt" viewBox="0 0 1876.000000 959.000000"
 preserveAspectRatio="xMidYMid meet">

<g transform="translate(0.000000,959.000000) scale(0.100000,-0.100000)"
fill="#000000" stroke="none">
<path d="M0 4795 l0 -4795 9380 0 9380 0 0 4290 c0 4283 0 4290 -20 4290 -20
0 -20 7 -20 505 l0 505 -9360 0 -9360 0 0 -4795z m258 4633 c7 -7 12 -23 12
-37 0 -28 -34 -91 -49 -91 -17 0 -51 58 -51 87 0 36 16 53 50 53 14 0 31 -5
38 -12z m3897 -13 c30 -30 31 -54 4 -89 -26 -33 -62 -34 -94 -1 -30 30 -31 54
-4 89 26 33 62 34 94 1z m10915 10 c7 -8 10 -21 7 -29 -7 -18 18 -40 46 -41
27 0 45 -29 29 -48 -18 -21 -49 -10 -94 35 -35 35 -49 74 -31 91 11 11 30 8
43 -8z m-14641 -13 c7 -13 6 -23 -2 -31 -9 -9 -9 -16 1 -31 8 -14 9 -20 1 -20
-6 0 -13 9 -16 20 -7 27 -31 25 -36 -2 -2 -13 -5 1 -6 30 -1 49 0 52 24 52 13
0 29 -8 34 -18z m739 -2 c5 -13 3 -13 -11 -2 -9 8 -21 11 -27 7 -17 -11 -11
-23 16 -29 35 -9 31 -51 -5 -51 -13 0 -25 6 -27 13 -1 7 0 8 3 2 7 -15 43 -12
43 3 0 8 -11 19 -25 25 -24 11 -32 31 -18 46 12 11 46 2 51 -14z m216 4 c19
-18 21 -55 4 -72 -7 -7 -25 -12 -40 -12 -27 0 -28 2 -28 50 0 46 2 50 24 50
14 0 32 -7 40 -16z m123 -61 c-2 -16 -4 -3 -4 27 0 30 2 43 4 28 2 -16 2 -40
0 -55z m511 59 c3 -11 0 -11 -16 -1 -26 16 -52 -2 -52 -38 0 -29 26 -41 52
-24 16 10 19 10 16 -1 -6 -18 -46 -22 -64 -8 -17 15 -18 62 -2 78 16 16 60 11
66 -6z m280 -75 c24 -4 24 -4 -5 -6 l-33 -1 2 53 2 52 3 -47 c4 -42 7 -47 31
-51z m262 45 c0 -49 0 -49 -32 -48 -30 1 -33 4 -33 31 0 26 4 30 28 30 19 -1
27 4 27 17 0 10 2 18 5 18 3 0 5 -22 5 -48z m278 36 c7 -7 12 -24 12 -38 0
-14 -5 -31 -12 -38 -15 -15 -45 -16 -54 -1 -4 8 1 9 16 4 15 -5 25 -2 31 6 14
22 11 27 -16 21 -17 -3 -27 1 -31 12 -14 37 25 63 54 34z m75 5 c-28 -5 -30
-19 -3 -26 26 -7 36 -33 19 -53 -14 -17 -50 -15 -57 4 -3 11 -1 11 17 1 16
-11 23 -11 33 -1 10 10 9 16 -4 29 -14 13 -20 14 -32 3 -17 -13 -19 -8 -10 28
5 16 13 22 33 21 23 -2 24 -2 4 -6z m101 -15 c-9 -30 -33 -78 -39 -78 -5 0 10
42 25 70 9 16 6 19 -22 23 -32 4 -32 4 5 5 35 2 38 0 31 -20z m72 -8 c1 -14 3
-29 4 -35 6 -27 -1 -36 -27 -33 -25 3 -28 7 -29 43 -2 50 2 57 29 53 16 -2 22
-11 23 -28z m139 -55 c16 0 21 9 26 45 l7 45 -2 -50 c-1 -49 -2 -50 -31 -50
-29 0 -30 1 -31 50 l-2 50 7 -45 c5 -36 10 -45 26 -45z m89 64 c11 12 24 21
30 21 6 0 1 -10 -11 -22 l-22 -21 20 -29 c11 -15 16 -28 10 -28 -6 0 -17 12
-25 28 -11 20 -16 23 -19 12 -3 -8 -8 -22 -10 -30 -3 -8 -5 10 -5 40 0 35 2
46 7 32 l6 -24 19 21z m1010 5 c19 -18 21 -55 4 -72 -7 -7 -25 -12 -40 -12
-27 0 -28 2 -28 50 0 46 2 50 24 50 14 0 32 -7 40 -16z m370 0 c19 -18 21 -55
4 -72 -7 -7 -25 -12 -40 -12 -27 0 -28 2 -28 50 0 46 2 50 24 50 14 0 32 -7
40 -16z m272 -14 c1 -14 3 -29 4 -35 6 -27 -1 -36 -27 -33 -25 3 -28 7 -29 43
-2 50 2 57 29 53 16 -2 22 -11 23 -28z m128 -3 c7 -19 7 -34 0 -45 -25 -39
-74 -20 -74 27 0 55 57 69 74 18z m100 0 c7 -19 7 -34 0 -45 -25 -39 -74 -20
-74 27 0 55 57 69 74 18z m61 -2 c16 0 20 -7 21 -35 l2 -35 -5 33 c-6 42 -35
40 -44 -3 -5 -22 -7 -16 -7 25 0 31 3 46 6 35 4 -11 16 -20 27 -20z m333 12
c2 -11 -6 -29 -18 -42 l-22 -23 24 -5 c17 -3 15 -5 -10 -6 l-34 -1 26 31 c14
17 26 34 26 39 0 16 -21 22 -35 10 -8 -7 -15 -8 -15 -3 0 29 53 29 58 0z m80
0 c2 -11 -6 -29 -18 -42 l-22 -23 24 -5 c17 -3 15 -5 -10 -6 l-34 -1 26 31
c14 17 26 34 26 39 0 16 -21 22 -35 10 -8 -7 -15 -8 -15 -3 0 29 53 29 58 0z
m116 -10 c7 -19 7 -34 0 -45 -25 -39 -74 -20 -74 27 0 55 57 69 74 18z m100 0
c7 -19 7 -34 0 -45 -25 -39 -74 -20 -74 27 0 55 57 69 74 18z m61 -2 c16 0 20
-7 21 -35 l2 -35 -5 33 c-6 42 -35 40 -44 -3 -5 -22 -7 -16 -7 25 0 31 3 46 6
35 4 -11 16 -20 27 -20z m9418 28 c-28 -5 -30 -19 -3 -26 26 -7 36 -33 19 -53
-14 -17 -50 -15 -57 4 -3 11 -1 11 17 1 16 -11 23 -11 33 -1 10 10 9 16 -4 29
-14 13 -20 14 -32 3 -17 -13 -19 -8 -10 28 5 16 13 22 33 21 23 -2 24 -2 4 -6z
m90 0 c-28 -5 -30 -19 -3 -26 26 -7 36 -33 19 -53 -14 -17 -50 -15 -57 4 -3
11 -1 11 17 1 16 -11 23 -11 33 -1 10 10 9 16 -4 29 -14 13 -20 14 -32 3 -17
-13 -19 -8 -10 28 5 16 13 22 33 21 23 -2 24 -2 4 -6z m90 0 c-28 -5 -30 -19
-3 -26 26 -7 36 -33 19 -53 -14 -17 -50 -15 -57 4 -3 11 -1 11 17 1 16 -11 23
-11 33 -1 10 10 9 16 -4 29 -14 13 -20 14 -32 3 -17 -13 -19 -8 -10 28 5 16
13 22 33 21 23 -2 24 -2 4 -6z m65 -45 c-1 -51 -2 -51 -5 -10 -2 23 -9 42 -16
42 -7 0 -6 4 3 10 8 5 16 10 18 10 1 0 1 -24 0 -52z m80 0 c-1 -51 -2 -51 -5
-10 -2 23 -9 42 -16 42 -7 0 -6 4 3 10 8 5 16 10 18 10 1 0 1 -24 0 -52z m80
29 c2 -11 -6 -29 -18 -42 l-22 -23 24 -5 c17 -3 15 -5 -10 -6 l-34 -1 26 31
c14 17 26 34 26 39 0 16 -21 22 -35 10 -8 -7 -15 -8 -15 -3 0 29 53 29 58 0z
m77 -27 c0 -41 -2 -45 -24 -45 -13 0 -25 6 -27 13 -1 7 0 8 3 2 7 -15 43 -12
43 5 0 7 -8 19 -17 24 -17 10 -17 10 0 11 9 0 17 4 17 9 0 17 -20 23 -35 11
-8 -7 -15 -8 -15 -3 0 16 13 24 35 21 17 -3 20 -10 20 -48z m43 -2 c-1 -51 -2
-51 -5 -10 -2 23 -9 42 -16 42 -7 0 -6 4 3 10 8 5 16 10 18 10 1 0 1 -24 0
-52z m80 29 c2 -11 -6 -29 -18 -42 l-22 -23 24 -5 c17 -3 15 -5 -10 -6 l-34
-1 26 31 c14 17 26 34 26 39 0 16 -21 22 -35 10 -8 -7 -15 -8 -15 -3 0 29 53
29 58 0z m77 -27 c0 -41 -2 -45 -24 -45 -13 0 -25 6 -27 13 -1 7 0 8 3 2 7
-15 43 -12 43 5 0 7 -8 19 -17 24 -17 10 -17 10 0 11 9 0 17 4 17 9 0 17 -20
23 -35 11 -8 -7 -15 -8 -15 -3 0 16 13 24 35 21 17 -3 20 -10 20 -48z m43 -2
c-1 -51 -2 -51 -5 -10 -2 23 -9 42 -16 42 -7 0 -6 4 3 10 8 5 16 10 18 10 1 0
1 -24 0 -52z m80 29 c2 -11 -6 -29 -18 -42 l-22 -23 24 -5 c17 -3 15 -5 -10
-6 l-34 -1 26 31 c14 17 26 34 26 39 0 16 -21 22 -35 10 -8 -7 -15 -8 -15 -3
0 29 53 29 58 0z m77 -27 c0 -41 -2 -45 -24 -45 -13 0 -25 6 -27 13 -1 7 0 8
3 2 7 -15 43 -12 43 5 0 7 -8 19 -17 24 -17 10 -17 10 0 11 9 0 17 4 17 9 0
17 -20 23 -35 11 -8 -7 -15 -8 -15 -3 0 16 13 24 35 21 17 -3 20 -10 20 -48z
m845 -10 l0 -60 -69 0 c-78 0 -79 1 -72 77 l3 43 69 0 69 0 0 -60z m160 45
c15 -18 7 -19 -19 -3 -15 9 -23 9 -36 -2 -21 -18 -16 -64 9 -68 26 -5 45 16
26 28 -12 8 -10 10 8 10 16 0 22 -6 22 -23 0 -18 -6 -23 -31 -25 -17 -1 -38 3
-45 9 -17 14 -18 61 -2 77 17 17 53 15 68 -3z m117 -62 c-2 -16 -4 -3 -4 27 0
30 2 43 4 28 2 -16 2 -40 0 -55z m30 0 c-2 -16 -4 -3 -4 27 0 30 2 43 4 28 2
-16 2 -40 0 -55z m-16768 39 c-14 -5 -11 -50 4 -55 7 -3 5 -6 -5 -6 -13 -1
-18 7 -18 29 0 17 -5 30 -10 30 -7 0 -6 5 2 13 9 10 16 11 24 3 7 -6 8 -12 3
-14z m420 0 c-14 -5 -11 -50 4 -55 7 -3 5 -6 -5 -6 -13 -1 -18 7 -18 29 0 17
-5 30 -10 30 -7 0 -6 5 2 13 9 10 16 11 24 3 7 -6 8 -12 3 -14z m170 0 c-14
-5 -11 -50 4 -55 7 -3 5 -6 -5 -6 -13 -1 -18 7 -18 29 0 17 -5 30 -10 30 -7 0
-6 5 2 13 9 10 16 11 24 3 7 -6 8 -12 3 -14z m891 8 c10 0 22 -9 25 -20 3 -11
10 -20 15 -20 5 0 12 9 15 20 3 11 10 20 14 20 5 0 -3 -22 -16 -50 -24 -50
-40 -67 -28 -31 7 23 -14 71 -32 71 -17 0 -17 -47 0 -53 7 -3 5 -6 -5 -6 -13
-1 -18 7 -18 29 0 17 -5 30 -10 30 -6 0 -5 6 2 14 7 8 15 10 16 5 2 -5 12 -9
22 -9z m1610 -5 l24 -26 -27 -27 -27 -27 -27 27 -27 27 24 26 c13 14 26 25 30
25 4 0 17 -11 30 -25z m12910 0 l24 -26 -27 -27 -27 -27 -27 27 -27 27 24 26
c13 14 26 25 30 25 4 0 17 -11 30 -25z m921 15 c19 -11 25 -45 11 -67 -4 -6
-23 -11 -42 -10 -30 2 -35 5 -35 27 0 20 6 26 29 28 26 3 28 1 24 -23 -4 -16
-1 -24 6 -22 16 5 20 36 6 52 -16 20 -49 19 -72 -2 -36 -32 -12 -92 32 -80 11
3 18 1 14 -4 -8 -14 -41 -11 -58 7 -22 22 -20 54 6 81 23 25 48 29 79 13z
m268 -18 c-14 -5 -11 -50 4 -55 7 -3 5 -6 -5 -6 -13 -1 -18 7 -18 29 0 17 -5
30 -10 30 -7 0 -6 5 2 13 9 10 16 11 24 3 7 -6 8 -12 3 -14z m420 0 c-14 -5
-11 -50 4 -55 7 -3 5 -6 -5 -6 -13 -1 -18 7 -18 29 0 17 -5 30 -10 30 -7 0 -6
5 2 13 9 10 16 11 24 3 7 -6 8 -12 3 -14z m-17731 -14 c3 -14 -3 -18 -23 -18
-16 0 -24 -4 -19 -11 3 -6 15 -8 27 -5 14 3 17 2 10 -5 -27 -27 -64 9 -49 47
8 21 50 14 54 -8z m66 13 c4 -5 -4 -7 -16 -3 -14 3 -19 2 -14 -6 4 -7 14 -12
22 -12 8 0 14 -9 14 -20 0 -15 -7 -20 -25 -20 -14 0 -25 4 -25 9 0 5 9 7 20 4
11 -3 20 -1 20 5 0 5 -9 12 -20 15 -26 7 -26 37 -1 37 11 0 22 -4 25 -9z m134
-26 c3 -28 0 -31 -28 -33 -24 -2 -30 2 -30 18 0 15 7 20 26 20 15 0 23 4 18
11 -3 6 -15 9 -25 6 -11 -3 -16 -1 -13 5 3 5 16 8 27 6 16 -2 23 -11 25 -33z
m50 -23 c9 2 20 17 23 33 7 30 7 30 8 -6 1 -33 -1 -36 -26 -35 -24 1 -28 6
-30 34 l-3 32 6 -31 c4 -21 10 -29 22 -27z m79 45 c-9 -7 -18 -23 -20 -37 -3
-19 -5 -17 -6 10 -1 30 3 36 20 37 19 2 19 0 6 -10z m81 -22 c3 -28 0 -31 -28
-33 -24 -2 -30 2 -30 18 0 15 7 20 26 20 15 0 23 4 18 11 -3 6 -15 9 -25 6
-11 -3 -16 -1 -13 5 3 5 16 8 27 6 16 -2 23 -11 25 -33z m78 0 c1 -30 1 -30
-3 -2 -6 38 -36 32 -44 -8 -7 -30 -7 -30 -8 6 -1 33 1 36 27 35 23 -1 27 -5
28 -31z m482 13 c3 -14 -3 -18 -23 -18 -16 0 -24 -4 -19 -11 3 -6 15 -8 27 -5
14 3 17 2 10 -5 -27 -27 -64 9 -49 47 8 21 50 14 54 -8z m59 -30 c-2 -13 -4
-5 -4 17 -1 22 1 32 4 23 2 -10 2 -28 0 -40z m77 44 c3 -5 -5 -8 -17 -8 -16 1
-22 -5 -22 -19 0 -14 6 -20 23 -19 14 0 19 -3 13 -9 -25 -25 -61 12 -47 49 6
15 41 19 50 6z m33 -44 c-2 -13 -4 -5 -4 17 -1 22 1 32 4 23 2 -10 2 -28 0
-40z m84 36 c17 -21 0 -49 -32 -49 -24 0 -36 23 -25 51 7 19 40 18 57 -2z m47
-42 c9 2 20 17 23 33 7 30 7 30 8 -6 1 -33 -1 -36 -26 -35 -24 1 -28 6 -30 34
l-3 32 6 -31 c4 -21 10 -29 22 -27z m96 49 c4 -5 -4 -7 -16 -3 -14 3 -19 2
-14 -6 4 -7 14 -12 22 -12 8 0 14 -9 14 -20 0 -15 -7 -20 -25 -20 -14 0 -25 4
-25 9 0 5 9 7 20 4 11 -3 20 -1 20 5 0 5 -9 12 -20 15 -26 7 -26 37 -1 37 11
0 22 -4 25 -9z m173 -43 c-2 -13 -4 -5 -4 17 -1 22 1 32 4 23 2 -10 2 -28 0
-40z m344 36 c17 -21 0 -49 -32 -49 -24 0 -36 23 -25 51 7 19 40 18 57 -2z
m75 -19 c1 -30 1 -30 -3 -2 -6 38 -36 32 -44 -8 -7 -30 -7 -30 -8 6 -1 33 1
36 27 35 23 -1 27 -5 28 -31z m175 19 c17 -21 0 -49 -32 -49 -24 0 -36 23 -25
51 7 19 40 18 57 -2z m75 -19 c1 -30 1 -30 -3 -2 -6 38 -36 32 -44 -8 -7 -30
-7 -30 -8 6 -1 33 1 36 27 35 23 -1 27 -5 28 -31z m1651 -17 c-2 -13 -4 -5 -4
17 -1 22 1 32 4 23 2 -10 2 -28 0 -40z m81 17 c3 -28 0 -31 -28 -33 -24 -2
-30 2 -30 18 0 15 7 20 26 20 15 0 23 4 18 11 -3 6 -15 9 -25 6 -11 -3 -16 -1
-13 5 3 5 16 8 27 6 16 -2 23 -11 25 -33z m120 0 c3 -28 0 -31 -28 -33 -24 -2
-30 2 -30 18 0 15 7 20 26 20 15 0 23 4 18 11 -3 6 -15 9 -25 6 -11 -3 -16 -1
-13 5 3 5 16 8 27 6 16 -2 23 -11 25 -33z m169 -17 c-2 -13 -4 -5 -4 17 -1 22
1 32 4 23 2 -10 2 -28 0 -40z m81 17 c3 -28 0 -31 -28 -33 -24 -2 -30 2 -30
18 0 15 7 20 26 20 15 0 23 4 18 11 -3 6 -15 9 -25 6 -11 -3 -16 -1 -13 5 3 5
16 8 27 6 16 -2 23 -11 25 -33z m580 0 c3 -28 0 -31 -28 -33 -24 -2 -30 2 -30
18 0 15 7 20 26 20 15 0 23 4 18 11 -3 6 -15 9 -25 6 -11 -3 -16 -1 -13 5 3 5
16 8 27 6 16 -2 23 -11 25 -33z m66 26 c4 -5 -4 -7 -16 -3 -14 3 -19 2 -14 -6
4 -7 14 -12 22 -12 8 0 14 -9 14 -20 0 -15 -7 -20 -25 -20 -14 0 -25 4 -25 9
0 5 9 7 20 4 11 -3 20 -1 20 5 0 5 -9 12 -20 15 -26 7 -26 37 -1 37 11 0 22
-4 25 -9z m9826 -14 c12 -4 11 -6 -2 -6 -10 -1 -19 -9 -19 -18 -1 -17 -2 -17
-6 0 -2 9 -9 17 -14 17 -5 0 -4 6 3 14 7 8 15 10 18 6 3 -4 12 -10 20 -13z
m2017 10 c-9 -7 -18 -23 -20 -37 -3 -19 -5 -17 -6 10 -1 30 3 36 20 37 19 2
19 0 6 -10z m30 -39 c-2 -13 -4 -5 -4 17 -1 22 1 32 4 23 2 -10 2 -28 0 -40z
m90 0 c-2 -13 -4 -5 -4 17 -1 22 1 32 4 23 2 -10 2 -28 0 -40z m190 39 c-9 -7
-18 -23 -20 -37 -3 -19 -5 -17 -6 10 -1 30 3 36 20 37 19 2 19 0 6 -10z m81
-9 c3 -14 -3 -18 -23 -18 -16 0 -24 -4 -19 -11 3 -6 15 -8 27 -5 14 3 17 2 10
-5 -27 -27 -64 9 -49 47 8 21 50 14 54 -8z m66 13 c4 -5 -4 -7 -16 -3 -14 3
-19 2 -14 -6 4 -7 14 -12 22 -12 8 0 14 -9 14 -20 0 -15 -7 -20 -25 -20 -14 0
-25 4 -25 9 0 5 9 7 20 4 11 -3 20 -1 20 5 0 5 -9 12 -20 15 -26 7 -26 37 -1
37 11 0 22 -4 25 -9z m134 -26 c3 -28 0 -31 -28 -33 -24 -2 -30 2 -30 18 0 15
7 20 26 20 15 0 23 4 18 11 -3 6 -15 9 -25 6 -11 -3 -16 -1 -13 5 3 5 16 8 27
6 16 -2 23 -11 25 -33z m50 -23 c9 2 20 17 23 33 7 30 7 30 8 -6 1 -33 -1 -36
-26 -35 -24 1 -28 6 -30 34 l-3 32 6 -31 c4 -21 10 -29 22 -27z m79 45 c-9 -7
-18 -23 -20 -37 -3 -19 -5 -17 -6 10 -1 30 3 36 20 37 19 2 19 0 6 -10z m81
-22 c3 -28 0 -31 -28 -33 -24 -2 -30 2 -30 18 0 15 7 20 26 20 15 0 23 4 18
11 -3 6 -15 9 -25 6 -11 -3 -16 -1 -13 5 3 5 16 8 27 6 16 -2 23 -11 25 -33z
m78 0 c1 -30 1 -30 -3 -2 -6 38 -36 32 -44 -8 -7 -30 -7 -30 -8 6 -1 33 1 36
27 35 23 -1 27 -5 28 -31z m158 27 c3 -5 -5 -8 -17 -8 -16 1 -22 -5 -22 -19 0
-14 6 -20 23 -19 14 0 19 -3 13 -9 -25 -25 -61 12 -47 49 6 15 41 19 50 6z
m87 -8 c17 -21 0 -49 -32 -49 -24 0 -36 23 -25 51 7 19 40 18 57 -2z m121 2
c11 -16 10 -56 -2 -56 -5 0 -10 14 -10 30 0 43 -30 41 -31 -2 l-1 -33 -7 30
c-3 17 -13 30 -21 30 -8 0 -18 -13 -21 -30 -6 -29 -7 -29 -8 7 l-1 37 48 -1
c26 0 50 -6 54 -12z m-17299 -61 c-3 -9 -8 -14 -10 -11 -3 3 -2 9 2 15 9 16
15 13 8 -4z m940 0 c-3 -9 -8 -14 -10 -11 -3 3 -2 9 2 15 9 16 15 13 8 -4z
m930 0 c-3 -9 -8 -14 -10 -11 -3 3 -2 9 2 15 9 16 15 13 8 -4z m15397 -905 l0
-290 -1315 0 -1315 0 0 290 0 290 1315 0 1315 0 0 -290z m-18056 191 c18 -7
23 -15 19 -30 -4 -17 -11 -19 -56 -15 -88 9 -153 -41 -164 -123 -8 -57 12
-108 55 -141 29 -22 45 -27 93 -27 33 1 64 6 73 14 21 18 26 13 19 -21 -4 -21
-14 -30 -42 -38 -56 -15 -83 -12 -142 18 -45 22 -59 36 -81 81 -34 67 -35 110
-4 176 40 88 148 137 230 106z m149 -23 c30 -40 27 -98 -6 -137 -30 -37 -33
-65 -15 -153 10 -50 10 -61 -2 -68 -44 -28 -65 8 -45 75 23 74 19 110 -12 140
-39 35 -40 111 -3 150 29 31 56 29 83 -7z m312 -5 c2 -27 -7 -29 -25 -8 -14
17 -57 20 -94 5 -29 -11 -56 -57 -56 -95 0 -62 60 -120 118 -113 24 3 27 8 30
46 2 24 -2 50 -9 58 -9 12 -6 14 17 14 l29 0 -5 -67 -5 -68 -63 -3 c-62 -3
-64 -2 -103 36 -34 35 -39 45 -39 87 0 91 49 136 144 132 54 -2 60 -4 61 -24z
m183 11 c30 -21 29 -69 -2 -97 l-24 -21 25 -41 c14 -22 35 -51 47 -63 l21 -24
-25 4 c-22 3 -45 27 -103 108 -17 25 -17 24 -15 -43 3 -66 2 -67 -22 -67 l-25
0 0 130 0 130 50 0 c30 0 60 -6 73 -16z m147 -114 l0 -130 -25 0 -25 0 0 130
0 130 25 0 25 0 0 -130z m100 13 l0 -118 36 -3 c23 -2 42 3 52 12 22 22 29 20
25 -6 -3 -21 -9 -23 -83 -26 l-80 -3 0 131 0 130 25 0 25 0 0 -117z m187 -1
l-3 -118 42 2 c28 1 47 8 56 20 12 16 13 15 13 -14 l0 -32 -77 0 -78 0 0 130
0 130 25 0 25 0 -3 -118z m193 -12 l0 -130 -25 0 -25 0 0 130 0 130 25 0 25 0
0 -130z m-1287 54 c14 -4 22 -14 22 -29 0 -12 14 -39 30 -60 17 -21 30 -41 30
-44 0 -3 -9 -21 -20 -39 -42 -69 -130 -79 -186 -21 -24 25 -29 39 -29 79 0 84
70 136 153 114z m7062 -33 c0 -5 -7 -12 -16 -15 -14 -5 -15 -4 -4 9 14 17 20
19 20 6z m1280 -12 c-12 -7 -11 -10 8 -15 27 -8 39 -48 21 -70 -7 -8 -24 -14
-38 -12 -20 2 -27 9 -29 33 -3 19 2 33 14 42 10 7 14 13 10 13 -5 0 -3 7 4 15
7 9 15 13 19 10 3 -3 -1 -10 -9 -16z m-2274 -45 c8 -32 -13 -56 -45 -52 -20 2
-27 9 -29 33 -6 53 61 71 74 19z m614 10 c0 -2 -11 -2 -25 2 -32 8 -45 -20
-21 -44 15 -15 18 -15 26 -2 5 8 12 11 16 7 13 -12 -12 -29 -37 -25 -31 4 -40
55 -13 75 15 11 54 3 54 -13z m656 -10 c8 -32 -13 -56 -45 -52 -20 2 -27 9
-29 33 -6 53 61 71 74 19z m384 16 c0 -5 -10 -6 -22 -3 -21 5 -20 2 7 -20 23
-19 27 -28 19 -37 -15 -15 -46 -9 -52 10 -5 13 -3 13 12 1 9 -8 19 -11 22 -8
9 9 -5 27 -22 27 -17 0 -19 37 -1 43 15 5 37 -2 37 -13z m106 -16 c8 -32 -13
-56 -45 -52 -20 2 -27 9 -29 33 -6 53 61 71 74 19z m634 16 c0 -5 -10 -6 -22
-3 -21 5 -20 2 7 -20 23 -19 27 -28 19 -37 -15 -15 -46 -9 -52 10 -5 13 -3 13
12 1 9 -8 19 -11 22 -8 9 9 -5 27 -22 27 -17 0 -19 37 -1 43 15 5 37 -2 37
-13z m526 -16 c8 -32 -13 -56 -45 -52 -20 2 -27 9 -29 33 -6 53 61 71 74 19z
m74 16 c0 -5 -10 -6 -22 -3 -21 5 -20 2 7 -20 23 -19 27 -28 19 -37 -15 -15
-46 -9 -52 10 -5 13 -3 13 12 1 9 -8 19 -11 22 -8 9 9 -5 27 -22 27 -17 0 -19
37 -1 43 15 5 37 -2 37 -13z m90 0 c0 -5 -10 -6 -22 -3 -21 5 -20 2 7 -20 23
-19 27 -28 19 -37 -15 -15 -46 -9 -52 10 -5 13 -3 13 12 1 9 -8 19 -11 22 -8
9 9 -5 27 -22 27 -17 0 -19 37 -1 43 15 5 37 -2 37 -13z m116 -16 c8 -32 -13
-56 -45 -52 -20 2 -27 9 -29 33 -6 53 61 71 74 19z m84 16 c0 -5 -10 -6 -22
-3 -21 5 -20 2 7 -20 23 -19 27 -28 19 -37 -15 -15 -46 -9 -52 10 -5 13 -3 13
12 1 9 -8 19 -11 22 -8 9 9 -5 27 -22 27 -17 0 -19 37 -1 43 15 5 37 -2 37
-13z m150 -6 c0 -2 -11 -2 -25 2 -32 8 -45 -20 -21 -44 15 -15 18 -15 26 -2 5
8 12 11 16 7 13 -12 -12 -29 -37 -25 -31 4 -40 55 -13 75 15 11 54 3 54 -13z
m380 6 c0 -5 -10 -6 -22 -3 -21 5 -20 2 7 -20 23 -19 27 -28 19 -37 -15 -15
-46 -9 -52 10 -5 13 -3 13 12 1 9 -8 19 -11 22 -8 9 9 -5 27 -22 27 -17 0 -19
37 -1 43 15 5 37 -2 37 -13z m400 -6 c0 -2 -11 -2 -25 2 -32 8 -45 -20 -21
-44 15 -15 18 -15 26 -2 5 8 12 11 16 7 13 -12 -12 -29 -37 -25 -31 4 -40 55
-13 75 15 11 54 3 54 -13z m116 -10 c8 -32 -13 -56 -45 -52 -20 2 -27 9 -29
33 -6 53 61 71 74 19z m480 0 c8 -32 -13 -56 -45 -52 -20 2 -27 9 -29 33 -6
53 61 71 74 19z m-4965 -4 c10 0 19 7 19 15 0 8 5 15 10 15 6 0 10 -18 10 -40
0 -22 -4 -40 -10 -40 -5 0 -10 9 -10 20 0 29 -37 27 -43 -2 -2 -13 -4 -3 -4
22 -1 25 1 37 4 28 2 -10 13 -18 24 -18z m220 8 l12 -23 10 23 c17 37 37 27
37 -18 0 -22 -4 -40 -10 -40 -5 0 -10 10 -10 22 0 21 0 21 -14 3 -14 -19 -15
-19 -28 10 l-13 29 -6 -34 -6 -35 -2 43 c-1 46 12 55 30 20z m122 15 c-13 -2
-23 -9 -23 -14 0 -5 10 -10 23 -10 l22 -2 -22 -4 c-13 -2 -23 -11 -23 -18 0
-7 10 -16 23 -18 19 -4 18 -4 -5 -6 -26 -1 -28 2 -28 39 0 37 2 40 28 39 23
-2 24 -2 5 -6z m525 -30 c10 -33 6 -66 -5 -35 -5 14 -43 16 -43 2 0 -5 -4 -10
-9 -10 -5 0 -2 18 6 40 20 50 36 51 51 3z m109 20 c4 -9 1 -19 -5 -21 -9 -3
-9 -9 -2 -23 8 -13 7 -19 0 -19 -6 0 -13 7 -16 15 -8 20 -21 19 -27 -2 -3 -10
-5 1 -6 25 -1 39 1 42 24 42 15 0 28 -7 32 -17z m109 -8 c8 -31 -10 -55 -42
-55 -21 0 -24 5 -24 40 0 38 2 40 30 40 23 0 31 -5 36 -25z m72 -12 c10 -33 6
-66 -5 -35 -5 14 -43 16 -43 2 0 -5 -4 -10 -9 -10 -5 0 -2 18 6 40 20 50 36
51 51 3z m107 12 c0 -13 -8 -21 -22 -23 -12 -2 -24 -11 -26 -20 -3 -9 -5 2 -6
26 -1 42 0 43 27 40 19 -2 27 -9 27 -23z m42 -37 c-2 -13 -4 -3 -4 22 0 25 2
35 4 23 2 -13 2 -33 0 -45z m700 25 c-2 -33 -5 -38 -29 -41 -27 -3 -28 -1 -28
37 0 39 2 41 30 41 27 0 29 -2 27 -37z m100 20 c4 -9 1 -19 -5 -21 -9 -3 -9
-9 -2 -23 8 -13 7 -19 0 -19 -6 0 -13 7 -16 15 -8 20 -21 19 -27 -2 -3 -10 -5
1 -6 25 -1 39 1 42 24 42 15 0 28 -7 32 -17z m76 10 c-13 -2 -23 -9 -23 -14 0
-5 10 -10 23 -10 l22 -2 -22 -4 c-13 -2 -23 -11 -23 -18 0 -7 10 -16 23 -18
19 -4 18 -4 -5 -6 -26 -1 -28 2 -28 39 0 37 2 40 28 39 23 -2 24 -2 5 -6z
m130 -15 l16 -23 0 23 c1 40 21 23 21 -18 0 -48 -12 -51 -37 -9 l-18 31 -6
-34 c-6 -32 -6 -32 -8 10 -1 47 9 53 32 20z m610 0 l16 -23 0 23 c1 40 21 23
21 -18 0 -48 -12 -51 -37 -9 l-18 31 -6 -34 c-6 -32 -6 -32 -8 10 -1 47 9 53
32 20z m738 -8 c10 0 19 7 19 15 0 8 5 15 10 15 6 0 10 -18 10 -40 0 -22 -4
-40 -10 -40 -5 0 -10 9 -10 20 0 29 -37 27 -43 -2 -2 -13 -4 -3 -4 22 -1 25 1
37 4 28 2 -10 13 -18 24 -18z m112 23 c-13 -2 -23 -9 -23 -14 0 -5 10 -10 23
-10 l22 -2 -22 -4 c-13 -2 -23 -11 -23 -18 0 -7 10 -16 23 -18 19 -4 18 -4 -5
-6 -26 -1 -28 2 -28 39 0 37 2 40 28 39 23 -2 24 -2 5 -6z m90 0 c-13 -2 -23
-9 -23 -14 0 -5 10 -10 23 -10 l22 -2 -22 -4 c-13 -2 -24 -13 -26 -26 -2 -12
-5 -3 -6 21 -1 40 0 42 27 41 23 -2 24 -2 5 -6z m690 -15 l16 -23 0 23 c1 40
21 23 21 -18 0 -48 -12 -51 -37 -9 l-18 31 -6 -34 c-6 -32 -6 -32 -8 10 -1 47
9 53 32 20z m125 15 c-13 -3 -19 -16 -20 -41 l-1 -37 -4 37 c-3 24 -10 38 -21
41 -9 3 1 5 23 5 22 0 32 -2 23 -5z m90 -30 c10 -33 6 -66 -5 -35 -5 14 -43
16 -43 2 0 -5 -4 -10 -9 -10 -5 0 -2 18 6 40 20 50 36 51 51 3z m80 30 c-13
-3 -19 -16 -20 -41 l-1 -37 -4 37 c-3 24 -10 38 -21 41 -9 3 1 5 23 5 22 0 32
-2 23 -5z m-10441 -197 c-1 -19 -6 -32 -10 -29 -5 3 -6 16 -3 29 5 17 2 24 -8
24 -9 0 -16 -13 -19 -32 -4 -32 -4 -32 -5 5 -2 33 1 37 22 37 22 0 24 -4 23
-34z m91 27 c-10 -2 -18 -9 -18 -14 0 -5 8 -10 18 -10 15 -1 15 -2 0 -6 -9 -2
-19 -12 -21 -21 -3 -9 -5 0 -6 21 -1 32 2 37 22 36 16 -1 18 -2 5 -6z m86 -7
c-3 -9 3 -17 15 -21 21 -6 30 -35 11 -35 -5 0 -9 4 -7 9 1 5 -7 16 -17 24 -10
8 -16 19 -12 25 10 17 16 15 10 -2z m129 7 c-7 -2 -14 -19 -14 -36 l-2 -32 -4
30 c-3 16 -10 33 -16 37 -7 4 2 7 18 7 17 0 24 -3 18 -6z m105 -33 c14 -38 5
-40 -9 -2 l-11 27 -14 -30 c-15 -35 -19 -19 -4 20 12 31 24 26 38 -15z m74 5
c2 -19 0 -35 -4 -35 -4 0 -8 16 -8 35 0 19 2 35 4 35 2 0 6 -16 8 -35z m145 0
c-2 -29 -4 -32 -13 -20 -15 20 -21 19 -27 -2 -3 -10 -5 -1 -6 20 -1 33 2 37
24 37 22 0 25 -4 22 -35z m110 0 c13 -42 7 -47 -8 -7 l-11 27 -14 -30 c-7 -16
-13 -25 -14 -18 0 16 22 63 30 63 4 0 11 -16 17 -35z m92 13 l15 -23 7 25 c6
21 7 18 8 -15 l0 -40 -24 29 -23 29 -5 -29 c-3 -25 -4 -24 -6 9 -1 42 8 47 28
15z m134 15 c-7 -2 -14 -19 -14 -36 l-2 -32 -4 30 c-3 16 -10 33 -16 37 -7 4
2 7 18 7 17 0 24 -3 18 -6z m-439 -47 c-3 -9 -10 -16 -15 -16 -5 0 -4 9 3 20
14 22 21 20 12 -4z m-349 -6 c3 -5 1 -10 -4 -10 -6 0 -11 5 -11 10 0 6 2 10 4
10 3 0 8 -4 11 -10z m5697 -27 c-62 -2 -161 -2 -220 0 -59 1 -8 3 113 3 121 0
169 -2 107 -3z m0 -40 c-62 -2 -161 -2 -220 0 -59 1 -8 3 113 3 121 0 169 -2
107 -3z m2448 -1354 c0 -4 -9 -7 -19 -6 -11 0 -18 4 -16 7 6 9 35 8 35 -1z
m-120 -35 c0 -2 -11 -2 -25 2 -32 8 -45 -20 -21 -44 15 -15 18 -15 26 -2 5 8
13 11 17 6 14 -14 -28 -36 -48 -25 -24 13 -25 64 -2 78 16 9 53 -1 53 -15z
m276 -10 c8 -32 -13 -56 -45 -52 -20 2 -27 9 -29 33 -6 53 61 71 74 19z m192
18 c2 -8 -3 -10 -15 -5 -16 6 -16 5 -4 -11 8 -9 22 -16 30 -13 11 3 16 -3 16
-18 0 -18 -6 -22 -35 -23 -37 -2 -53 12 -40 37 5 9 11 24 14 34 6 20 27 19 34
-1z m446 2 c9 -8 16 -29 16 -45 0 -29 -2 -30 -37 -27 -34 3 -38 6 -41 33 -3
19 2 33 14 42 23 17 29 16 48 -3z m-1526 -1 c-13 -3 -19 -16 -20 -41 l-1 -37
-4 37 c-3 24 -10 38 -21 41 -9 3 1 5 23 5 22 0 32 -2 23 -5z m129 -10 c4 -9 1
-19 -5 -21 -9 -3 -9 -9 -2 -23 8 -13 7 -19 0 -19 -6 0 -13 7 -16 15 -8 20 -21
19 -27 -2 -3 -10 -5 1 -6 25 -1 39 1 42 24 42 15 0 28 -7 32 -17z m121 -20
c10 -33 6 -66 -5 -35 -5 14 -43 16 -43 2 0 -5 -4 -10 -9 -10 -5 0 -2 18 6 40
20 50 36 51 51 3z m148 12 c8 -31 -10 -55 -42 -55 -21 0 -24 5 -24 40 0 38 2
40 30 40 23 0 31 -5 36 -25z m71 -37 c-2 -13 -4 -3 -4 22 0 25 2 35 4 23 2
-13 2 -33 0 -45z m271 25 c10 -33 6 -66 -5 -35 -5 14 -43 16 -43 2 0 -5 -4
-10 -9 -10 -5 0 -2 18 6 40 20 50 36 51 51 3z m543 7 c10 0 19 7 19 15 0 8 5
15 10 15 6 0 10 -18 10 -40 0 -22 -4 -40 -10 -40 -5 0 -10 9 -10 20 0 29 -37
27 -43 -2 -2 -13 -4 -3 -4 22 -1 25 1 37 4 28 2 -10 13 -18 24 -18z m106 -32
c-2 -13 -4 -3 -4 22 0 25 2 35 4 23 2 -13 2 -33 0 -45z m220 0 c-2 -13 -4 -3
-4 22 0 25 2 35 4 23 2 -13 2 -33 0 -45z m106 55 c-13 -2 -23 -9 -23 -14 0 -5
10 -10 23 -10 l22 -2 -22 -4 c-13 -2 -23 -11 -23 -18 0 -7 10 -16 23 -18 19
-4 18 -4 -5 -6 -26 -1 -28 2 -28 39 0 37 2 40 28 39 23 -2 24 -2 5 -6z m120
-15 l16 -23 0 23 c1 40 21 23 21 -18 0 -48 -12 -51 -37 -9 l-18 31 -6 -34 c-6
-32 -6 -32 -8 10 -1 47 9 53 32 20z m130 15 c-13 -2 -23 -9 -23 -14 0 -5 10
-10 23 -10 l22 -2 -22 -4 c-13 -2 -23 -11 -23 -18 0 -7 10 -16 23 -18 19 -4
18 -4 -5 -6 -26 -1 -28 2 -28 39 0 37 2 40 28 39 23 -2 24 -2 5 -6z m-1373
-93 c0 -5 -8 -10 -17 -10 -15 0 -16 2 -3 10 19 12 20 12 20 0z m291 -316 l28
-26 -30 -26 -31 -25 -26 26 -26 26 24 26 c13 14 26 25 29 25 3 0 17 -12 32
-26z m279 1 l24 -26 -27 -26 -26 -27 -25 23 c-21 20 -27 21 -48 11 -12 -7 -3
6 22 29 25 22 48 41 51 41 3 0 16 -11 29 -25z m-620 -25 c0 -21 -33 -29 -45
-10 -9 15 4 30 26 30 12 0 19 -7 19 -20z m945 10 c9 -15 -14 -40 -31 -33 -22
8 -18 43 5 43 11 0 23 -5 26 -10z m-2375 -1130 c0 -418 4 -480 32 -480 4 0 8
-4 8 -10 0 -6 -37 -10 -92 -10 -75 1 -90 3 -77 13 37 29 39 48 39 437 0 382
-3 420 -35 420 -34 0 -11 17 48 37 34 12 65 22 70 22 4 1 7 -192 7 -429z
m-965 405 c114 -30 172 -90 182 -188 7 -70 -10 -119 -58 -172 -53 -57 -140
-95 -235 -102 l-74 -6 0 -184 c0 -186 4 -214 39 -240 13 -10 -3 -12 -84 -12
l-100 -1 25 20 25 19 0 421 0 421 -25 19 -25 20 135 0 c91 0 156 -5 195 -15z
m5785 -214 c47 -36 87 -66 89 -68 2 -2 2 -5 0 -7 -2 -2 -54 17 -115 43 l-111
46 15 32 c9 19 20 29 26 25 6 -3 49 -35 96 -71z m-2770 -126 l0 -36 40 32 c58
46 129 52 204 15 35 -17 63 -39 76 -62 l22 -34 30 41 c42 58 102 83 185 76 82
-6 132 -38 164 -104 22 -44 24 -63 29 -251 4 -179 7 -205 23 -216 9 -7 17 -16
17 -20 0 -3 -42 -6 -92 -6 -75 1 -90 3 -77 13 34 26 39 54 39 239 0 206 -7
234 -69 275 -68 45 -152 18 -190 -61 -19 -38 -21 -61 -21 -219 0 -167 8 -227
32 -227 4 0 8 -4 8 -10 0 -6 -35 -10 -85 -10 -50 0 -85 4 -85 10 0 6 4 10 8
10 24 0 32 60 32 233 0 154 -3 187 -18 216 -24 48 -62 73 -119 78 -39 4 -55 0
-83 -19 -63 -42 -70 -70 -70 -275 0 -173 8 -233 32 -233 4 0 8 -4 8 -10 0 -6
-35 -10 -85 -10 -50 0 -85 4 -85 10 0 6 4 10 8 10 25 0 32 61 32 266 0 215 -5
254 -35 254 -34 0 -11 17 48 37 81 28 77 28 77 -12z m-2467 5 c92 -34 149
-117 163 -233 l7 -57 -242 0 c-270 0 -254 5 -227 -73 49 -137 179 -199 319
-151 43 15 117 80 117 104 0 6 5 10 10 10 6 0 10 -24 10 -52 l0 -53 -73 -35
c-68 -33 -78 -35 -173 -35 -92 0 -105 3 -159 30 -139 71 -193 245 -125 403 58
134 224 198 373 142z m1005 5 c69 -21 129 -69 166 -135 28 -50 31 -63 31 -140
0 -134 -53 -223 -163 -277 -50 -24 -69 -28 -147 -28 -103 0 -161 22 -222 83
-57 57 -78 113 -78 212 0 73 4 92 27 135 71 135 229 196 386 150z m1008 0 c50
-14 89 -47 115 -95 10 -18 15 -85 19 -233 5 -208 5 -208 30 -227 l25 -20 -72
0 -73 0 0 35 0 36 -37 -30 c-128 -100 -343 -46 -343 87 0 102 89 171 291 223
97 26 101 31 75 92 -32 76 -119 117 -204 95 -32 -8 -54 -23 -87 -62 l-45 -51
0 53 0 53 48 21 c26 11 58 24 72 28 41 13 133 11 186 -5z m1792 0 c69 -21 129
-69 166 -135 28 -50 31 -63 31 -140 0 -134 -53 -223 -163 -277 -50 -24 -69
-28 -147 -28 -103 0 -161 22 -222 83 -57 57 -78 113 -78 212 0 73 4 92 27 135
71 135 229 196 386 150z m462 -27 c0 -42 1 -43 18 -21 26 32 83 63 117 63 40
0 105 -19 105 -30 0 -5 -8 -25 -17 -45 l-17 -35 -22 21 c-31 30 -93 21 -143
-19 l-36 -29 -3 -189 c-2 -181 5 -244 29 -244 5 0 9 -4 9 -10 0 -6 -35 -10
-85 -10 -50 0 -85 4 -85 10 0 6 4 10 8 10 25 0 32 61 32 266 l0 215 -25 23
-26 24 63 20 c35 11 66 20 71 21 4 1 7 -18 7 -41z m1016 27 c50 -14 89 -47
115 -95 10 -18 15 -85 19 -233 5 -208 5 -208 30 -227 l25 -20 -72 0 -73 0 0
35 0 36 -37 -30 c-128 -100 -343 -46 -343 87 0 102 89 171 291 223 97 26 101
31 75 92 -32 76 -119 117 -204 95 -32 -8 -54 -23 -87 -62 l-45 -51 0 53 0 53
48 21 c26 11 58 24 72 28 41 13 133 11 186 -5z m-11666 -370 l155 -155 -155
-155 c-85 -85 -159 -155 -165 -155 -6 0 -80 70 -165 155 l-155 155 155 155
c85 85 159 155 165 155 6 0 80 -70 165 -155z m17690 0 l155 -155 -155 -155
c-85 -85 -159 -155 -165 -155 -6 0 -80 70 -165 155 l-155 155 155 155 c85 85
159 155 165 155 6 0 80 -70 165 -155z m-10370 -1095 c0 -418 4 -480 32 -480 4
0 8 -4 8 -10 0 -6 -28 -10 -65 -10 l-65 0 0 32 0 31 -23 -21 c-109 -102 -325
-45 -398 105 -19 39 -23 65 -23 138 -1 79 2 97 27 147 16 32 47 74 70 93 79
68 212 83 305 36 l42 -21 0 145 c0 146 -7 185 -35 185 -34 0 -11 17 48 37 34
12 65 22 70 22 4 1 7 -192 7 -429z m1710 0 c0 -418 4 -480 32 -480 4 0 8 -4 8
-10 0 -6 -28 -10 -65 -10 l-65 0 0 32 0 31 -23 -21 c-109 -102 -325 -45 -398
105 -19 39 -23 65 -23 138 -1 79 2 97 27 147 16 32 47 74 70 93 79 68 212 83
305 36 l42 -21 0 145 c0 146 -7 185 -35 185 -34 0 -11 17 48 37 34 12 65 22
70 22 4 1 7 -192 7 -429z m990 0 c0 -418 4 -480 32 -480 4 0 8 -4 8 -10 0 -6
-37 -10 -92 -10 -75 1 -90 3 -77 13 37 29 39 48 39 437 0 382 -3 420 -35 420
-34 0 -11 17 48 37 34 12 65 22 70 22 4 1 7 -192 7 -429z m-3440 280 c42 -42
13 -110 -47 -110 -30 0 -63 34 -63 65 0 32 33 65 65 65 14 0 34 -9 45 -20z
m3760 0 c42 -42 13 -110 -47 -110 -30 0 -63 34 -63 65 0 32 33 65 65 65 14 0
34 -9 45 -20z m960 0 c42 -42 13 -110 -47 -110 -30 0 -63 34 -63 65 0 32 33
65 65 65 14 0 34 -9 45 -20z m-5790 -215 l0 -36 40 32 c58 46 129 52 204 15
35 -17 63 -39 76 -62 l22 -34 30 41 c42 58 102 83 185 76 82 -6 132 -38 164
-104 22 -44 24 -63 29 -251 4 -179 7 -205 23 -216 9 -7 17 -16 17 -20 0 -3
-42 -6 -92 -6 -75 1 -90 3 -77 13 34 26 39 54 39 239 0 206 -7 234 -69 275
-68 45 -152 18 -190 -61 -19 -38 -21 -61 -21 -219 0 -167 8 -227 32 -227 4 0
8 -4 8 -10 0 -6 -35 -10 -85 -10 -50 0 -85 4 -85 10 0 6 4 10 8 10 24 0 32 60
32 233 0 154 -3 187 -18 216 -24 48 -62 73 -119 78 -39 4 -55 0 -83 -19 -63
-42 -70 -70 -70 -275 0 -173 8 -233 32 -233 4 0 8 -4 8 -10 0 -6 -35 -10 -85
-10 -50 0 -85 4 -85 10 0 6 4 10 8 10 25 0 32 61 32 266 0 215 -5 254 -35 254
-34 0 -11 17 48 37 81 28 77 28 77 -12z m1092 -246 c3 -254 5 -282 21 -293 9
-7 17 -16 17 -20 0 -3 -41 -6 -91 -6 l-91 0 26 31 26 31 0 219 c0 220 -5 259
-35 259 -34 0 -11 17 48 37 34 12 65 22 69 22 4 1 8 -125 10 -280z m3760 0 c3
-254 5 -282 21 -293 9 -7 17 -16 17 -20 0 -3 -41 -6 -91 -6 l-91 0 26 31 26
31 0 219 c0 220 -5 259 -35 259 -34 0 -11 17 48 37 34 12 65 22 69 22 4 1 8
-125 10 -280z m960 0 c3 -254 5 -282 21 -293 9 -7 17 -16 17 -20 0 -3 -41 -6
-91 -6 l-91 0 26 31 26 31 0 219 c0 220 -5 259 -35 259 -34 0 -11 17 48 37 34
12 65 22 69 22 4 1 8 -125 10 -280z m-6867 245 l65 -26 0 -52 0 -51 -26 33
c-70 88 -228 98 -312 19 -117 -109 -79 -347 67 -424 92 -48 224 -19 266 59 11
21 23 38 28 38 4 0 7 -24 7 -54 l0 -53 -62 -29 c-54 -25 -75 -29 -148 -29 -71
0 -94 4 -142 27 -73 34 -132 95 -158 164 -94 251 158 481 415 378z m593 11
c69 -21 129 -69 166 -135 28 -50 31 -63 31 -140 0 -134 -53 -223 -163 -277
-50 -24 -69 -28 -147 -28 -103 0 -161 22 -222 83 -57 57 -78 113 -78 212 0 73
4 92 27 135 71 135 229 196 386 150z m2778 0 c50 -14 89 -47 115 -95 10 -18
15 -85 19 -233 5 -208 5 -208 30 -227 l25 -20 -72 0 -73 0 0 35 0 36 -37 -30
c-128 -100 -343 -46 -343 87 0 102 89 171 291 223 97 26 101 31 75 92 -32 76
-119 117 -204 95 -32 -8 -54 -23 -87 -62 l-45 -51 0 53 0 53 48 21 c26 11 58
24 72 28 41 13 133 11 186 -5z m1777 -5 c92 -34 149 -117 163 -233 l7 -57
-242 0 c-270 0 -254 5 -227 -73 49 -137 179 -199 319 -151 43 15 117 80 117
104 0 6 5 10 10 10 6 0 10 -24 10 -52 l0 -53 -73 -35 c-68 -33 -78 -35 -173
-35 -92 0 -105 3 -159 30 -139 71 -193 245 -125 403 58 134 224 198 373 142z
m1372 -6 l65 -26 0 -52 0 -51 -26 33 c-70 88 -228 98 -312 19 -117 -109 -79
-347 67 -424 92 -48 224 -19 266 59 11 21 23 38 28 38 4 0 7 -24 7 -54 l0 -53
-62 -29 c-54 -25 -75 -29 -148 -29 -71 0 -94 4 -142 27 -73 34 -132 95 -158
164 -94 251 158 481 415 378z m943 11 c69 -21 129 -69 166 -135 28 -50 31 -63
31 -140 0 -134 -53 -223 -163 -277 -50 -24 -69 -28 -147 -28 -103 0 -161 22
-222 83 -57 57 -78 113 -78 212 0 73 4 92 27 135 71 135 229 196 386 150z
m664 -7 l68 -23 0 -47 c0 -27 -3 -48 -6 -48 -3 0 -15 12 -27 26 -61 78 -248
87 -287 15 -16 -32 -12 -66 13 -88 31 -28 35 -30 144 -69 117 -42 156 -65 182
-108 40 -65 17 -143 -58 -193 -81 -55 -179 -58 -277 -8 -38 19 -75 35 -81 35
-9 0 -13 18 -13 57 l0 57 35 -41 c44 -51 125 -93 179 -93 50 0 120 31 135 58
38 72 -9 116 -187 177 -133 46 -184 103 -168 190 20 106 189 155 348 103z
m554 7 c50 -14 89 -47 115 -95 10 -18 15 -85 19 -233 5 -208 5 -208 30 -227
l25 -20 -72 0 -73 0 0 35 0 36 -37 -30 c-128 -100 -343 -46 -343 87 0 102 89
171 291 223 97 26 101 31 75 92 -32 76 -119 117 -204 95 -32 -8 -54 -23 -87
-62 l-45 -51 0 53 0 53 48 21 c26 11 58 24 72 28 41 13 133 11 186 -5z m-6186
-1045 c0 -5 -10 -15 -22 -21 -23 -12 -23 -12 -4 10 21 23 26 26 26 11z m74
-11 c-3 -5 -10 -7 -15 -3 -5 3 -7 10 -3 15 3 5 10 7 15 3 5 -3 7 -10 3 -15z
m470 0 c-3 -5 -10 -7 -15 -3 -5 3 -7 10 -3 15 3 5 10 7 15 3 5 -3 7 -10 3 -15z
m1000 0 c-3 -5 -10 -7 -15 -3 -5 3 -7 10 -3 15 3 5 10 7 15 3 5 -3 7 -10 3
-15z m1360 0 c-3 -5 -10 -7 -15 -3 -5 3 -7 10 -3 15 3 5 10 7 15 3 5 -3 7 -10
3 -15z m1026 11 c0 -5 -10 -15 -22 -21 -23 -12 -23 -12 -4 10 21 23 26 26 26
11z m-5514 -65 l21 -58 23 62 c12 33 26 61 31 61 7 0 -36 -128 -47 -139 -8 -9
-22 14 -47 77 -14 36 -20 61 -14 59 7 -2 21 -30 33 -62z m324 42 c0 -18 5 -22
33 -22 32 0 32 -1 34 -50 l1 -50 -7 42 c-4 24 -11 46 -15 50 -15 15 -41 -15
-44 -51 -6 -64 -22 -39 -22 34 0 40 4 70 10 70 6 0 10 -10 10 -23z m913 16
c-7 -2 -13 -11 -13 -19 0 -8 6 -14 13 -15 10 0 10 -2 0 -6 -8 -3 -13 -23 -13
-49 0 -24 -4 -44 -10 -44 -5 0 -10 20 -10 45 0 29 -4 45 -12 46 -10 0 -10 2 0
6 6 2 12 13 12 24 0 13 7 19 23 18 12 0 16 -3 10 -6z m377 -63 c0 -40 -4 -70
-10 -70 -6 0 -10 30 -10 70 0 40 4 70 10 70 6 0 10 -30 10 -70z m1180 0 c0
-40 -4 -70 -10 -70 -6 0 -10 30 -10 70 0 40 4 70 10 70 6 0 10 -30 10 -70z
m620 2 l0 -68 -42 1 c-37 0 -44 3 -52 28 -14 37 2 61 43 65 23 2 31 8 31 23 0
10 5 19 10 19 6 0 10 -29 10 -68z m1200 0 l0 -68 -42 1 c-37 0 -44 3 -52 28
-14 37 2 61 43 65 23 2 31 8 31 23 0 10 5 19 10 19 6 0 10 -29 10 -68z m290 0
l0 -68 -42 1 c-37 0 -44 3 -52 28 -14 37 2 61 43 65 23 2 31 8 31 23 0 10 5
19 10 19 6 0 10 -29 10 -68z m290 0 l0 -68 -42 1 c-37 0 -44 3 -52 28 -14 37
2 61 43 65 23 2 31 8 31 23 0 10 5 19 10 19 6 0 10 -29 10 -68z m1040 45 c0
-20 4 -23 29 -19 23 3 33 -2 46 -22 16 -24 16 -28 1 -51 -13 -20 -24 -25 -56
-23 l-40 1 0 69 c0 39 4 68 10 68 6 0 10 -10 10 -23z m-3922 -18 c15 -1 15 -2
0 -6 -13 -3 -18 -14 -18 -38 0 -22 6 -38 18 -44 15 -9 15 -10 -5 -11 -12 0
-24 8 -27 18 -9 31 -9 77 0 97 7 18 9 18 12 3 2 -10 11 -19 20 -19z m-2137
-26 c8 -21 6 -23 -31 -23 -29 0 -40 -4 -40 -15 0 -21 27 -30 45 -15 9 7 19 10
22 6 10 -10 -17 -26 -42 -26 -28 0 -45 19 -45 50 0 35 19 52 54 48 19 -2 32
-10 37 -25z m105 -28 c1 -34 0 -38 -3 -13 -8 71 -63 73 -63 2 0 -19 -4 -34
-10 -34 -5 0 -10 22 -10 49 l0 49 43 -2 42 -1 1 -50z m212 43 c7 -7 12 -29 12
-49 l0 -37 -42 2 c-33 1 -44 5 -46 20 -5 22 13 36 46 36 12 0 22 5 22 10 0 16
-30 24 -43 11 -17 -17 -31 -13 -17 4 15 18 51 20 68 3z m170 -6 c3 -11 0 -11
-16 -1 -29 18 -52 5 -52 -30 0 -32 24 -48 47 -30 15 13 28 6 18 -10 -11 -19
-63 -13 -75 8 -14 26 -13 54 2 69 16 16 70 11 76 -6z m114 -7 c17 -37 -3 -75
-40 -75 -35 0 -52 16 -52 50 0 34 17 50 52 50 21 0 32 -7 40 -25z m178 5 c13
-24 13 -80 1 -80 -6 0 -11 19 -13 43 -2 34 -7 42 -23 42 -16 0 -21 -8 -23 -42
-4 -55 -22 -56 -22 -3 0 28 -5 43 -16 47 -21 8 -34 -13 -34 -54 0 -18 -4 -33
-10 -33 -5 0 -10 22 -10 48 l0 49 70 1 c59 1 71 -2 80 -18z m158 8 c7 -7 12
-29 12 -49 l0 -37 -42 2 c-33 1 -44 5 -46 20 -5 22 13 36 46 36 12 0 22 5 22
10 0 16 -30 24 -43 11 -17 -17 -31 -13 -17 4 15 18 51 20 68 3z m230 0 c7 -7
12 -29 12 -49 l0 -37 -42 2 c-33 1 -44 5 -46 20 -5 22 13 36 46 36 12 0 22 5
22 10 0 16 -30 24 -43 11 -17 -17 -31 -13 -17 4 15 18 51 20 68 3z m182 -8
c13 -24 13 -80 1 -80 -6 0 -11 19 -13 43 -2 34 -7 42 -23 42 -16 0 -21 -8 -23
-42 -4 -55 -22 -56 -22 -3 0 28 -5 43 -16 47 -21 8 -34 -13 -34 -54 0 -18 -4
-33 -10 -33 -5 0 -10 22 -10 48 l0 49 70 1 c59 1 71 -2 80 -18z m50 -30 c0
-27 -4 -50 -10 -50 -5 0 -10 23 -10 50 0 28 5 50 10 50 6 0 10 -22 10 -50z
m77 -27 c-2 -16 -4 -3 -4 27 0 30 2 43 4 28 2 -16 2 -40 0 -55z m111 65 c7 -7
12 -29 12 -49 l0 -37 -42 2 c-33 1 -44 5 -46 20 -5 22 13 36 46 36 12 0 22 5
22 10 0 16 -30 24 -43 11 -17 -17 -31 -13 -17 4 15 18 51 20 68 3z m173 -15
c8 -21 6 -23 -31 -23 -29 0 -40 -4 -40 -15 0 -21 27 -30 45 -15 9 7 19 10 22
6 10 -10 -17 -26 -42 -26 -28 0 -45 19 -45 50 0 35 19 52 54 48 19 -2 32 -10
37 -25z m143 12 c6 -17 -9 -21 -19 -5 -8 13 -35 13 -35 -1 0 -5 14 -15 31 -21
41 -14 38 -51 -5 -56 -29 -4 -55 12 -43 25 4 4 13 1 19 -5 16 -16 38 -15 38 2
0 8 -13 19 -30 25 -32 11 -33 12 -24 35 8 20 60 21 68 1z m43 -62 c-2 -16 -4
-3 -4 27 0 30 2 43 4 28 2 -16 2 -40 0 -55z m119 22 c1 -34 0 -38 -3 -13 -8
71 -63 73 -63 2 0 -19 -4 -34 -10 -34 -5 0 -10 22 -10 49 l0 49 43 -2 42 -1 1
-50z m182 43 c7 -7 12 -29 12 -49 l0 -37 -42 2 c-33 1 -44 5 -46 20 -5 22 13
36 46 36 12 0 22 5 22 10 0 16 -30 24 -43 11 -17 -17 -31 -13 -17 4 15 18 51
20 68 3z m160 0 c7 -7 12 -29 12 -49 l0 -37 -42 2 c-33 1 -44 5 -46 20 -5 22
13 36 46 36 12 0 22 5 22 10 0 16 -30 24 -43 11 -17 -17 -31 -13 -17 4 15 18
51 20 68 3z m160 0 c7 -7 12 -29 12 -49 l0 -37 -42 2 c-33 1 -44 5 -46 20 -5
22 13 36 46 36 12 0 22 5 22 10 0 16 -30 24 -43 11 -17 -17 -31 -13 -17 4 15
18 51 20 68 3z m163 -15 c8 -21 6 -23 -31 -23 -29 0 -40 -4 -40 -15 0 -21 27
-30 45 -15 9 7 19 10 22 6 10 -10 -17 -26 -42 -26 -28 0 -45 19 -45 50 0 35
19 52 54 48 19 -2 32 -10 37 -25z m112 20 c-7 -2 -13 -15 -13 -29 0 -18 -8
-26 -32 -33 -30 -8 -31 -9 -7 -10 47 -2 65 -41 28 -62 -15 -8 -28 -8 -44 -1
-20 9 -23 17 -21 64 3 70 9 78 59 77 23 0 36 -3 30 -6z m60 -10 c-16 -11 -23
-25 -23 -49 0 -19 -4 -34 -10 -34 -5 0 -10 22 -10 48 0 48 0 49 33 50 32 0 32
0 10 -15z m44 -60 c-2 -16 -4 -3 -4 27 0 30 2 43 4 28 2 -16 2 -40 0 -55z
m111 65 c7 -7 12 -29 12 -49 l0 -37 -42 2 c-33 1 -44 5 -46 20 -5 22 13 36 46
36 12 0 22 5 22 10 0 16 -30 24 -43 11 -17 -17 -31 -13 -17 4 15 18 51 20 68
3z m303 -15 c8 -21 6 -23 -31 -23 -29 0 -40 -4 -40 -15 0 -21 27 -30 45 -15 9
7 19 10 22 6 10 -10 -17 -26 -42 -26 -28 0 -45 19 -45 50 0 35 19 52 54 48 19
-2 32 -10 37 -25z m91 -15 c2 -35 7 -43 23 -43 16 0 21 8 23 43 4 58 22 53 22
-5 0 -47 -1 -48 -32 -50 -43 -3 -58 12 -58 58 0 53 18 50 22 -3z m238 22 c13
-24 13 -80 1 -80 -6 0 -11 19 -13 43 -2 34 -7 42 -23 42 -16 0 -21 -8 -23 -42
-4 -55 -22 -56 -22 -3 0 28 -5 43 -16 47 -21 8 -34 -13 -34 -54 0 -18 -4 -33
-10 -33 -5 0 -10 22 -10 48 l0 49 70 1 c59 1 71 -2 80 -18z m108 8 c7 -7 12
-29 12 -49 l0 -37 -42 2 c-33 1 -44 5 -46 20 -5 22 13 36 46 36 12 0 22 5 22
10 0 16 -30 24 -43 11 -17 -17 -31 -13 -17 4 15 18 51 20 68 3z m170 -6 c3
-11 0 -11 -16 -1 -29 18 -52 5 -52 -30 0 -32 24 -48 47 -30 15 13 28 6 18 -10
-11 -19 -63 -13 -75 8 -14 26 -13 54 2 69 16 16 70 11 76 -6z m114 -7 c17 -37
-3 -75 -40 -75 -35 0 -52 16 -52 50 0 34 17 50 52 50 21 0 32 -7 40 -25z m178
5 c13 -24 13 -80 1 -80 -6 0 -11 19 -13 43 -2 34 -7 42 -23 42 -16 0 -21 -8
-23 -42 -4 -55 -22 -56 -22 -3 0 28 -5 43 -16 47 -21 8 -34 -13 -34 -54 0 -18
-4 -33 -10 -33 -5 0 -10 22 -10 48 l0 49 70 1 c59 1 71 -2 80 -18z m47 -57
c-2 -16 -4 -3 -4 27 0 30 2 43 4 28 2 -16 2 -40 0 -55z m241 65 c7 -7 12 -29
12 -49 l0 -37 -42 2 c-33 1 -44 5 -46 20 -5 22 13 36 46 36 12 0 22 5 22 10 0
16 -30 24 -43 11 -17 -17 -31 -13 -17 4 15 18 51 20 68 3z m303 -15 c8 -21 6
-23 -31 -23 -29 0 -40 -4 -40 -15 0 -21 27 -30 45 -15 9 7 19 10 22 6 10 -10
-17 -26 -42 -26 -28 0 -45 19 -45 50 0 35 19 52 54 48 19 -2 32 -10 37 -25z
m277 15 c7 -7 12 -29 12 -49 l0 -37 -42 2 c-33 1 -44 5 -46 20 -5 22 13 36 46
36 12 0 22 5 22 10 0 16 -30 24 -43 11 -17 -17 -31 -13 -17 4 15 18 51 20 68
3z m75 -5 c-16 -11 -23 -25 -23 -49 0 -19 -4 -34 -10 -34 -5 0 -10 22 -10 48
0 48 0 49 33 50 32 0 32 0 10 -15z m155 5 c7 -7 12 -29 12 -49 l0 -37 -42 2
c-33 1 -44 5 -46 20 -5 22 13 36 46 36 12 0 22 5 22 10 0 16 -30 24 -43 11
-17 -17 -31 -13 -17 4 15 18 51 20 68 3z m125 5 c-7 -2 -13 -15 -13 -29 0 -18
-8 -26 -32 -33 -30 -8 -31 -9 -7 -10 47 -2 65 -41 28 -62 -15 -8 -28 -8 -44
-1 -20 9 -23 17 -21 64 3 70 9 78 59 77 23 0 36 -3 30 -6z m39 -35 c2 -35 7
-43 23 -43 16 0 21 8 23 43 4 58 22 53 22 -5 0 -47 -1 -48 -32 -50 -43 -3 -58
12 -58 58 0 53 18 50 22 -3z m166 30 c7 -7 12 -29 12 -49 l0 -37 -42 2 c-33 1
-44 5 -46 20 -5 22 13 36 46 36 12 0 22 5 22 10 0 16 -30 24 -43 11 -17 -17
-31 -13 -17 4 15 18 51 20 68 3z m168 -43 c1 -34 0 -38 -3 -13 -8 71 -63 73
-63 2 0 -19 -4 -34 -10 -34 -5 0 -10 22 -10 49 l0 49 43 -2 42 -1 1 -50z m102
43 c7 -7 12 -29 12 -49 l0 -37 -42 2 c-33 1 -44 5 -46 20 -5 22 13 36 46 36
12 0 22 5 22 10 0 16 -30 24 -43 11 -17 -17 -31 -13 -17 4 15 18 51 20 68 3z
m304 -13 c17 -37 -3 -75 -40 -75 -35 0 -52 16 -52 50 0 34 17 50 52 50 21 0
32 -7 40 -25z m116 7 c3 -11 0 -11 -16 -1 -29 18 -52 5 -52 -30 0 -32 24 -48
47 -30 15 13 28 6 18 -10 -11 -19 -63 -13 -75 8 -14 26 -13 54 2 69 16 16 70
11 76 -6z m100 6 c7 -7 12 -29 12 -49 l0 -37 -42 2 c-33 1 -44 5 -46 20 -5 22
13 36 46 36 12 0 22 5 22 10 0 16 -30 24 -43 11 -17 -17 -31 -13 -17 4 15 18
51 20 68 3z m-2575 -578 l397 0 0 -280 0 -280 -1160 0 -1160 0 0 280 0 280
308 2 c169 2 512 2 762 1 250 -1 634 -2 853 -3z m7177 -584 c0 -2 -9 -6 -20
-9 -11 -3 -20 -1 -20 4 0 5 9 9 20 9 11 0 20 -2 20 -4z m43 -13 c-7 -2 -19 -2
-25 0 -7 3 -2 5 12 5 14 0 19 -2 13 -5z m117 -22 c41 -11 66 -19 55 -19 -24 0
-166 35 -145 36 8 1 49 -7 90 -17z m-203 -23 c-3 -7 -5 -2 -5 12 0 14 2 19 5
13 2 -7 2 -19 0 -25z m310 -4 c-3 -3 -12 -4 -19 -1 -8 3 -5 6 6 6 11 1 17 -2
13 -5z m50 -10 c-3 -3 -12 -4 -19 -1 -8 3 -5 6 6 6 11 1 17 -2 13 -5z m-136
-24 c123 1 342 1 487 1 l262 -1 0 -55 c0 -37 4 -55 13 -56 9 0 9 -2 0 -6 -10
-3 -13 -95 -12 -396 l0 -392 57 -1 c98 -2 175 -54 219 -150 42 -92 21 -195
-54 -271 -57 -57 -155 -84 -229 -64 -75 20 -129 63 -163 132 -17 35 -37 67
-44 71 -9 6 -9 8 1 8 7 0 12 15 12 40 l0 40 -172 0 c-94 0 -169 -2 -167 -4 2
-2 73 -18 158 -37 85 -18 149 -35 144 -36 -6 -2 -91 14 -189 37 l-178 40 -248
0 -248 0 0 55 c0 37 -4 55 -12 56 -10 0 -10 2 0 6 9 3 12 56 11 216 -1 136 -4
203 -10 187 -8 -22 -8 -21 -2 5 3 17 8 153 10 303 l4 272 55 0 c36 0 54 4 54
13 0 9 2 9 9 -1 6 -10 57 -13 232 -12z m176 14 c-3 -3 -12 -4 -19 -1 -8 3 -5
6 6 6 11 1 17 -2 13 -5z m636 -141 c-7 -2 -19 -2 -25 0 -7 3 -2 5 12 5 14 0
19 -2 13 -5z m37 -18 c0 -24 -33 -166 -37 -161 -3 2 3 38 12 80 9 41 14 80 10
86 -3 5 -1 10 4 10 6 0 11 -7 11 -15z m-43 -207 c-3 -7 -5 -2 -5 12 0 14 2 19
5 13 2 -7 2 -19 0 -25z m-18 -82 c-7 -31 -14 -54 -16 -52 -3 3 1 30 8 60 7 31
14 54 16 52 3 -3 -1 -30 -8 -60z m-22 -98 c-3 -7 -5 -2 -5 12 0 14 2 19 5 13
2 -7 2 -19 0 -25z m-1140 -100 c-3 -8 -6 -5 -6 6 -1 11 2 17 5 13 3 -3 4 -12
1 -19z m-22 -108 c-10 -44 -20 -78 -22 -76 -3 2 4 40 14 85 9 44 20 78 22 75
2 -2 -4 -40 -14 -84z m-28 -122 c-3 -7 -5 -2 -5 12 0 14 2 19 5 13 2 -7 2 -19
0 -25z m-10 -40 c-3 -8 -6 -5 -6 6 -1 11 2 17 5 13 3 -3 4 -12 1 -19z m-5 -43
c3 -14 1 -25 -3 -25 -5 0 -9 11 -9 25 0 14 2 25 4 25 2 0 6 -11 8 -25z m51
-32 c-7 -2 -19 -2 -25 0 -7 3 -2 5 12 5 14 0 19 -2 13 -5z"/>
<path d="M187 9407 c-6 -17 19 -77 32 -77 15 0 31 34 31 64 0 22 -5 26 -29 26
-16 0 -31 -6 -34 -13z m53 -17 c0 -13 -7 -20 -20 -20 -13 0 -20 7 -20 20 0 13
7 20 20 20 13 0 20 -7 20 -20z"/>
<path d="M4076 9402 c-41 -47 19 -108 64 -67 25 23 25 47 0 70 -19 18 -20 17
-20 -2 0 -12 8 -24 17 -27 11 -5 13 -10 6 -17 -17 -17 -42 1 -45 33 l-3 30
-19 -20z"/>
<path d="M15040 9406 c0 -9 5 -16 10 -16 6 0 10 4 10 9 0 6 -4 13 -10 16 -5 3
-10 -1 -10 -9z"/>
<path d="M15110 9330 c0 -5 7 -10 16 -10 8 0 12 5 9 10 -3 6 -10 10 -16 10 -5
0 -9 -4 -9 -10z"/>
<path d="M380 9400 c0 -13 7 -20 20 -20 13 0 20 7 20 20 0 13 -7 20 -20 20
-13 0 -20 -7 -20 -20z"/>
<path d="M1330 9380 c0 -37 2 -41 21 -38 12 2 27 11 33 21 14 22 -3 51 -33 55
-19 3 -21 -1 -21 -38z"/>
<path d="M2504 9375 c-7 -18 3 -35 21 -35 15 0 24 19 18 38 -6 17 -32 15 -39
-3z"/>
<path d="M2797 9414 c-16 -16 -6 -35 16 -32 12 2 22 10 22 18 0 16 -26 25 -38
14z"/>
<path d="M3047 9414 c-9 -10 2 -24 19 -24 8 0 14 7 14 15 0 15 -21 21 -33 9z"/>
<path d="M3045 9371 c-8 -15 3 -31 21 -31 9 0 14 7 12 17 -4 20 -24 28 -33 14z"/>
<path d="M4270 9380 c0 -37 2 -41 21 -38 30 4 47 33 33 56 -6 9 -21 18 -33 20
-19 3 -21 -1 -21 -38z"/>
<path d="M4640 9380 c0 -37 2 -41 21 -38 30 4 47 33 33 56 -6 9 -21 18 -33 20
-19 3 -21 -1 -21 -38z"/>
<path d="M4927 9414 c-9 -10 2 -24 19 -24 8 0 14 7 14 15 0 15 -21 21 -33 9z"/>
<path d="M4925 9371 c-8 -15 3 -31 21 -31 9 0 14 7 12 17 -4 20 -24 28 -33 14z"/>
<path d="M5034 9406 c-11 -28 0 -61 20 -61 27 0 44 30 30 53 -15 22 -43 27
-50 8z"/>
<path d="M5134 9406 c-11 -28 0 -61 20 -61 27 0 44 30 30 53 -15 22 -43 27
-50 8z"/>
<path d="M5724 9406 c-11 -28 0 -61 20 -61 27 0 44 30 30 53 -15 22 -43 27
-50 8z"/>
<path d="M5824 9406 c-11 -28 0 -61 20 -61 27 0 44 30 30 53 -15 22 -43 27
-50 8z"/>
<path d="M16998 9394 c20 -14 24 -14 44 0 22 16 21 16 -22 16 -43 0 -44 0 -22
-16z"/>
<path d="M16960 9360 l0 -30 60 0 60 0 0 30 c0 33 -11 38 -30 15 -7 -8 -20
-15 -30 -15 -10 0 -23 7 -30 15 -19 23 -30 18 -30 -15z"/>
<path d="M3665 9390 c-18 -20 -18 -21 3 -43 l22 -21 22 21 c21 22 21 23 3 43
-10 11 -21 20 -25 20 -4 0 -15 -9 -25 -20z"/>
<path d="M16575 9390 c-18 -20 -18 -21 3 -43 l22 -21 22 21 c21 22 21 23 3 43
-10 11 -21 20 -25 20 -4 0 -15 -9 -25 -20z"/>
<path d="M17493 9365 c-3 -9 -3 -18 0 -22 10 -10 37 6 37 22 0 20 -29 20 -37
0z"/>
<path d="M460 9380 c0 -5 9 -10 20 -10 11 0 20 5 20 10 0 6 -9 10 -20 10 -11
0 -20 -4 -20 -10z"/>
<path d="M660 9350 c0 -5 7 -10 15 -10 8 0 15 5 15 10 0 6 -7 10 -15 10 -8 0
-15 -4 -15 -10z"/>
<path d="M870 9350 c0 -5 7 -10 15 -10 8 0 15 5 15 10 0 6 -7 10 -15 10 -8 0
-15 -4 -15 -10z"/>
<path d="M1430 9380 c0 -5 9 -10 20 -10 11 0 20 5 20 10 0 6 -9 10 -20 10 -11
0 -20 -4 -20 -10z"/>
<path d="M1684 9375 c-7 -18 3 -35 22 -35 8 0 14 10 14 25 0 27 -27 35 -36 10z"/>
<path d="M2344 9375 c-7 -18 3 -35 22 -35 8 0 14 10 14 25 0 27 -27 35 -36 10z"/>
<path d="M2594 9375 c-7 -18 3 -35 22 -35 8 0 14 10 14 25 0 27 -27 35 -36 10z"/>
<path d="M4400 9350 c0 -5 7 -10 15 -10 8 0 15 5 15 10 0 6 -7 10 -15 10 -8 0
-15 -4 -15 -10z"/>
<path d="M4520 9350 c0 -5 7 -10 15 -10 8 0 15 5 15 10 0 6 -7 10 -15 10 -8 0
-15 -4 -15 -10z"/>
<path d="M4770 9350 c0 -5 7 -10 15 -10 8 0 15 5 15 10 0 6 -7 10 -15 10 -8 0
-15 -4 -15 -10z"/>
<path d="M5350 9350 c0 -5 7 -10 15 -10 8 0 15 5 15 10 0 6 -7 10 -15 10 -8 0
-15 -4 -15 -10z"/>
<path d="M17650 9380 c0 -5 9 -10 20 -10 11 0 20 5 20 10 0 6 -9 10 -20 10
-11 0 -20 -4 -20 -10z"/>
<path d="M17850 9350 c0 -5 7 -10 15 -10 8 0 15 5 15 10 0 6 -7 10 -15 10 -8
0 -15 -4 -15 -10z"/>
<path d="M18060 9350 c0 -5 7 -10 15 -10 8 0 15 5 15 10 0 6 -7 10 -15 10 -8
0 -15 -4 -15 -10z"/>
<path d="M18384 9375 c-7 -18 3 -35 22 -35 8 0 14 10 14 25 0 27 -27 35 -36
10z"/>
<path d="M16606 8467 c-27 -20 -18 -71 13 -75 25 -4 50 13 37 25 -4 4 -11 1
-16 -7 -8 -13 -11 -13 -26 2 -24 24 -11 52 21 44 29 -8 33 -1 6 13 -13 7 -23
6 -35 -2z"/>
<path d="M16725 8466 c-11 -8 -16 -23 -13 -41 2 -24 9 -31 29 -33 32 -4 53 20
45 52 -7 28 -38 39 -61 22z m43 -30 c2 -10 -1 -23 -7 -29 -15 -15 -46 16 -37
38 8 21 40 15 44 -9z"/>
<path d="M17223 8473 c-18 -6 -16 -43 1 -43 17 0 31 -18 22 -27 -3 -3 -13 0
-22 8 -15 12 -17 12 -12 -1 6 -19 37 -25 52 -10 8 9 4 18 -19 37 -27 22 -28
25 -7 20 12 -3 22 -2 22 3 0 11 -22 18 -37 13z"/>
<path d="M17853 8473 c-18 -6 -16 -43 1 -43 17 0 31 -18 22 -27 -3 -3 -13 0
-22 8 -15 12 -17 12 -12 -1 6 -19 37 -25 52 -10 8 9 4 18 -19 37 -27 22 -28
25 -7 20 12 -3 22 -2 22 3 0 11 -22 18 -37 13z"/>
<path d="M16370 8430 c0 -37 2 -40 28 -39 23 2 24 2 5 6 -13 2 -23 11 -23 18
0 7 10 16 23 18 l22 4 -22 2 c-13 0 -23 5 -23 10 0 5 10 12 23 14 19 4 18 4
-5 6 -26 1 -28 -2 -28 -39z"/>
<path d="M16471 8428 c2 -42 2 -42 8 -10 l6 34 18 -31 c25 -42 37 -39 37 9 0
41 -20 58 -21 18 l0 -23 -16 23 c-23 33 -33 27 -32 -20z"/>
<path d="M16831 8428 c2 -42 2 -42 8 -10 l6 34 18 -31 c25 -42 37 -39 37 9 0
41 -20 58 -21 18 l0 -23 -16 23 c-23 33 -33 27 -32 -20z"/>
<path d="M16952 8463 c11 -3 18 -17 21 -41 l4 -37 1 37 c1 25 7 38 20 41 9 3
-1 5 -23 5 -22 0 -32 -2 -23 -5z"/>
<path d="M17050 8430 c0 -37 2 -40 28 -39 23 2 24 2 5 6 -13 2 -23 11 -23 18
0 7 10 16 23 18 l22 4 -22 2 c-13 0 -23 5 -23 10 0 5 10 12 23 14 19 4 18 4
-5 6 -26 1 -28 -2 -28 -39z"/>
<path d="M17313 8435 c2 -36 5 -40 27 -40 22 0 25 4 27 40 l1 40 -6 -35 c-4
-22 -13 -35 -22 -35 -9 0 -18 13 -22 35 l-6 35 1 -40z"/>
<path d="M17427 8430 c-8 -22 -11 -40 -6 -40 5 0 9 5 9 10 0 14 38 12 43 -2
11 -31 15 2 5 35 -15 48 -31 47 -51 -3z m33 5 c0 -8 -4 -15 -10 -15 -5 0 -7 7
-4 15 4 8 8 15 10 15 2 0 4 -7 4 -15z"/>
<path d="M17601 8428 l2 -43 6 35 6 34 13 -29 c13 -29 14 -29 28 -10 14 18 14
18 14 -3 0 -12 5 -22 10 -22 6 0 10 18 10 40 0 45 -20 55 -37 18 l-10 -23 -12
23 c-18 35 -31 26 -30 -20z"/>
<path d="M17740 8430 c0 -37 2 -40 28 -39 23 2 24 2 5 6 -13 2 -23 11 -23 18
0 7 10 16 23 18 l22 4 -22 2 c-13 0 -23 5 -23 10 0 5 10 12 23 14 19 4 18 4
-5 6 -26 1 -28 -2 -28 -39z"/>
<path d="M17947 8430 c-8 -22 -11 -40 -6 -40 5 0 9 5 9 10 0 14 38 12 43 -2
11 -31 15 2 5 35 -15 48 -31 47 -51 -3z m33 5 c0 -8 -4 -15 -10 -15 -5 0 -7 7
-4 15 4 8 8 15 10 15 2 0 4 -7 4 -15z"/>
<path d="M1030 8546 c0 -35 4 -46 16 -46 64 0 74 70 11 85 -26 7 -27 6 -27
-39z"/>
<path d="M8764 8445 c-9 -22 22 -53 37 -38 15 15 7 47 -14 51 -9 2 -20 -4 -23
-13z"/>
<path d="M6454 8445 c-9 -22 22 -53 37 -38 15 15 7 47 -14 51 -9 2 -20 -4 -23
-13z"/>
<path d="M7724 8445 c-9 -22 22 -53 37 -38 15 15 7 47 -14 51 -9 2 -20 -4 -23
-13z"/>
<path d="M8214 8445 c-9 -22 22 -53 37 -38 15 15 7 47 -14 51 -9 2 -20 -4 -23
-13z"/>
<path d="M9374 8445 c-9 -22 22 -53 37 -38 15 15 7 47 -14 51 -9 2 -20 -4 -23
-13z"/>
<path d="M9654 8445 c-9 -22 22 -53 37 -38 15 15 7 47 -14 51 -9 2 -20 -4 -23
-13z"/>
<path d="M10784 8445 c-9 -22 22 -53 37 -38 15 15 7 47 -14 51 -9 2 -20 -4
-23 -13z"/>
<path d="M11264 8445 c-9 -22 22 -53 37 -38 15 15 7 47 -14 51 -9 2 -20 -4
-23 -13z"/>
<path d="M7196 8435 c-3 -8 -1 -15 4 -15 6 0 10 7 10 15 0 8 -2 15 -4 15 -2 0
-6 -7 -10 -15z"/>
<path d="M7290 8444 c0 -9 5 -14 12 -12 18 6 21 28 4 28 -9 0 -16 -7 -16 -16z"/>
<path d="M7390 8430 c0 -25 4 -31 18 -28 11 2 17 12 17 28 0 16 -6 26 -17 28
-14 3 -18 -3 -18 -28z"/>
<path d="M7486 8435 c-3 -8 -1 -15 4 -15 6 0 10 7 10 15 0 8 -2 15 -4 15 -2 0
-6 -7 -10 -15z"/>
<path d="M7580 8444 c0 -9 5 -14 12 -12 18 6 21 28 4 28 -9 0 -16 -7 -16 -16z"/>
<path d="M8320 8450 c0 -5 7 -10 15 -10 8 0 15 5 15 10 0 6 -7 10 -15 10 -8 0
-15 -4 -15 -10z"/>
<path d="M8320 8415 c0 -10 7 -15 18 -13 21 4 19 22 -2 26 -10 2 -16 -3 -16
-13z"/>
<path d="M8420 8444 c0 -9 5 -14 12 -12 18 6 21 28 4 28 -9 0 -16 -7 -16 -16z"/>
<path d="M11096 8435 c-3 -8 -1 -15 4 -15 6 0 10 7 10 15 0 8 -2 15 -4 15 -2
0 -6 -7 -10 -15z"/>
<path d="M1360 8280 c0 -5 7 -10 15 -10 8 0 15 5 15 10 0 6 -7 10 -15 10 -8 0
-15 -4 -15 -10z"/>
<path d="M9184 6775 c-9 -22 22 -53 37 -38 15 15 7 47 -14 51 -9 2 -20 -4 -23
-13z"/>
<path d="M9402 6749 c2 -7 10 -15 17 -17 8 -3 12 1 9 9 -2 7 -10 15 -17 17 -8
3 -12 -1 -9 -9z"/>
<path d="M9833 6774 c-8 -23 23 -52 39 -36 9 9 9 12 0 12 -7 0 -12 5 -12 10 0
6 8 10 18 10 14 0 15 2 2 10 -22 14 -40 12 -47 -6z"/>
<path d="M8440 6774 c0 -9 5 -14 12 -12 18 6 21 28 4 28 -9 0 -16 -7 -16 -16z"/>
<path d="M8576 6765 c-3 -8 -1 -15 4 -15 6 0 10 7 10 15 0 8 -2 15 -4 15 -2 0
-6 -7 -10 -15z"/>
<path d="M8700 6760 c0 -25 4 -31 18 -28 11 2 17 12 17 28 0 16 -6 26 -17 28
-14 3 -18 -3 -18 -28z"/>
<path d="M9066 6765 c-3 -8 -1 -15 4 -15 6 0 10 7 10 15 0 8 -2 15 -4 15 -2 0
-6 -7 -10 -15z"/>
<path d="M9185 6380 c-18 -20 -18 -21 3 -43 l22 -21 22 21 c21 22 21 23 3 43
-10 11 -21 20 -25 20 -4 0 -15 -9 -25 -20z"/>
<path d="M9465 6380 c-18 -20 -18 -21 3 -43 l22 -21 22 21 c21 22 21 23 3 43
-10 11 -21 20 -25 20 -4 0 -15 -9 -25 -20z"/>
<path d="M6320 5420 l0 -190 43 0 c174 0 280 130 218 267 -31 68 -119 112
-223 113 l-38 0 0 -190z"/>
<path d="M6876 5275 c-68 -24 -116 -83 -135 -164 l-9 -41 200 0 200 0 -7 38
c-16 85 -71 152 -142 171 -48 14 -59 13 -107 -4z"/>
<path d="M7876 5275 c-47 -17 -91 -57 -119 -110 -17 -31 -22 -58 -22 -121 0
-70 4 -88 30 -139 42 -82 94 -118 179 -123 49 -3 71 0 104 17 141 72 164 300
43 420 -65 66 -136 84 -215 56z"/>
<path d="M9033 5050 c-181 -53 -262 -153 -185 -230 55 -55 157 -49 225 14 l37
34 0 101 c0 55 -3 101 -7 100 -5 0 -36 -9 -70 -19z"/>
<path d="M10676 5275 c-47 -17 -91 -57 -119 -110 -17 -31 -22 -58 -22 -121 0
-70 4 -88 30 -139 42 -82 94 -118 179 -123 49 -3 71 0 104 17 141 72 164 300
43 420 -65 66 -136 84 -215 56z"/>
<path d="M12303 5050 c-181 -53 -262 -153 -185 -230 55 -55 157 -49 225 14
l37 34 0 101 c0 55 -3 101 -7 100 -5 0 -36 -9 -70 -19z"/>
<path d="M346 4940 l-151 -150 140 -140 c77 -78 148 -146 159 -152 16 -8 39
11 170 141 l151 151 -150 150 c-82 82 -154 150 -159 150 -5 0 -77 -67 -160
-150z m173 -126 l-33 -34 34 -35 c19 -19 30 -35 25 -35 -13 0 -75 62 -75 74 0
16 62 76 72 69 6 -3 -5 -20 -23 -39z"/>
<path d="M18039 4939 l-146 -149 149 -150 c82 -82 151 -150 153 -150 3 0 72
67 155 150 l149 150 -149 150 c-82 82 -153 150 -157 149 -4 0 -74 -67 -154
-150z m168 -190 c-18 -20 -39 -38 -46 -38 -9 -1 -1 14 19 34 l34 35 -32 33
c-45 46 -27 56 20 11 l37 -37 -32 -38z"/>
<path d="M7682 3889 c-53 -16 -109 -79 -128 -145 -33 -113 6 -253 89 -318 52
-42 137 -48 186 -14 60 41 71 76 71 221 0 108 -3 134 -20 167 -36 71 -125 111
-198 89z"/>
<path d="M9392 3889 c-53 -16 -109 -79 -128 -145 -33 -113 6 -253 89 -318 52
-42 137 -48 186 -14 60 41 71 76 71 221 0 108 -3 134 -20 167 -36 71 -125 111
-198 89z"/>
<path d="M5536 3885 c-47 -17 -91 -57 -119 -110 -17 -31 -22 -58 -22 -121 0
-70 4 -88 30 -139 42 -82 94 -118 179 -123 49 -3 71 0 104 17 141 72 164 300
43 420 -65 66 -136 84 -215 56z"/>
<path d="M8463 3660 c-181 -53 -262 -153 -185 -230 55 -55 157 -49 225 14 l37
34 0 101 c0 55 -3 101 -7 100 -5 0 -36 -9 -70 -19z"/>
<path d="M10096 3885 c-68 -24 -116 -83 -135 -164 l-9 -41 200 0 200 0 -7 38
c-16 85 -71 152 -142 171 -48 14 -59 13 -107 -4z"/>
<path d="M12406 3885 c-47 -17 -91 -57 -119 -110 -17 -31 -22 -58 -22 -121 0
-70 4 -88 30 -139 42 -82 94 -118 179 -123 49 -3 71 0 104 17 141 72 164 300
43 420 -65 66 -136 84 -215 56z"/>
<path d="M13773 3660 c-181 -53 -262 -153 -185 -230 55 -55 157 -49 225 14
l37 34 0 101 c0 55 -3 101 -7 100 -5 0 -36 -9 -70 -19z"/>
<path d="M9383 2823 c-18 -7 -16 -60 2 -67 28 -11 46 5 43 38 -3 30 -19 41
-45 29z"/>
<path d="M10583 2823 c-18 -7 -16 -60 2 -67 28 -11 46 5 43 38 -3 30 -19 41
-45 29z"/>
<path d="M10873 2823 c-18 -7 -16 -60 2 -67 28 -11 46 5 43 38 -3 30 -19 41
-45 29z"/>
<path d="M11163 2823 c-18 -7 -16 -60 2 -67 28 -11 46 5 43 38 -3 30 -19 41
-45 29z"/>
<path d="M12280 2815 c-26 -31 13 -82 44 -56 19 16 21 42 4 59 -16 16 -33 15
-48 -3z"/>
<path d="M6147 2823 c-15 -14 -6 -23 24 -23 27 0 30 2 19 15 -13 16 -32 19
-43 8z"/>
<path d="M6474 2779 c-11 -18 13 -34 31 -19 8 7 15 16 15 21 0 13 -38 11 -46
-2z"/>
<path d="M6747 2823 c-14 -13 -7 -61 9 -67 22 -8 44 11 44 39 0 27 -36 46 -53
28z"/>
<path d="M7094 2779 c-11 -18 13 -34 31 -19 8 7 15 16 15 21 0 13 -38 11 -46
-2z"/>
<path d="M7324 2779 c-11 -18 13 -34 31 -19 8 7 15 16 15 21 0 13 -38 11 -46
-2z"/>
<path d="M7744 2779 c-11 -18 13 -34 31 -19 8 7 15 16 15 21 0 13 -38 11 -46
-2z"/>
<path d="M7907 2823 c-15 -14 -6 -23 24 -23 27 0 30 2 19 15 -13 16 -32 19
-43 8z"/>
<path d="M8404 2779 c-11 -18 13 -34 31 -19 8 7 15 16 15 21 0 13 -38 11 -46
-2z"/>
<path d="M8564 2779 c-11 -18 13 -34 31 -19 8 7 15 16 15 21 0 13 -38 11 -46
-2z"/>
<path d="M8724 2779 c-11 -18 13 -34 31 -19 8 7 15 16 15 21 0 13 -38 11 -46
-2z"/>
<path d="M8877 2823 c-15 -14 -6 -23 24 -23 27 0 30 2 19 15 -13 16 -32 19
-43 8z"/>
<path d="M8987 2824 c-16 -16 -6 -35 16 -32 12 2 22 10 22 18 0 16 -26 25 -38
14z"/>
<path d="M8980 2736 c-13 -16 -3 -26 27 -26 13 0 23 6 23 14 0 18 -37 27 -50
12z"/>
<path d="M9214 2779 c-11 -18 13 -34 31 -19 8 7 15 16 15 21 0 13 -38 11 -46
-2z"/>
<path d="M9507 2823 c-15 -14 -6 -23 24 -23 27 0 30 2 19 15 -13 16 -32 19
-43 8z"/>
<path d="M9954 2779 c-11 -18 13 -34 31 -19 8 7 15 16 15 21 0 13 -38 11 -46
-2z"/>
<path d="M10227 2823 c-14 -13 -7 -61 9 -67 22 -8 44 11 44 39 0 27 -36 46
-53 28z"/>
<path d="M10704 2779 c-11 -18 13 -34 31 -19 8 7 15 16 15 21 0 13 -38 11 -46
-2z"/>
<path d="M10997 2823 c-15 -14 -6 -23 24 -23 27 0 30 2 19 15 -13 16 -32 19
-43 8z"/>
<path d="M11284 2779 c-11 -18 13 -34 31 -19 8 7 15 16 15 21 0 13 -38 11 -46
-2z"/>
<path d="M11514 2779 c-11 -18 13 -34 31 -19 8 7 15 16 15 21 0 13 -38 11 -46
-2z"/>
<path d="M11627 2824 c-16 -16 -6 -35 16 -32 12 2 22 10 22 18 0 16 -26 25
-38 14z"/>
<path d="M11620 2736 c-13 -16 -3 -26 27 -26 13 0 23 6 23 14 0 18 -37 27 -50
12z"/>
<path d="M11844 2779 c-11 -18 13 -34 31 -19 8 7 15 16 15 21 0 13 -38 11 -46
-2z"/>
<path d="M12114 2779 c-11 -18 13 -34 31 -19 8 7 15 16 15 21 0 13 -38 11 -46
-2z"/>
<path d="M12407 2823 c-14 -13 -7 -61 9 -67 22 -8 44 11 44 39 0 27 -36 46
-53 28z"/>
<path d="M12634 2779 c-11 -18 13 -34 31 -19 8 7 15 16 15 21 0 13 -38 11 -46
-2z"/>
<path d="M8210 1970 l0 -270 1140 0 1140 0 0 269 0 270 -1140 0 -1140 0 0
-269z m530 24 c0 -2 -11 -2 -25 2 -32 8 -45 -20 -21 -44 15 -15 18 -15 26 -2
5 8 12 11 16 7 13 -12 -12 -29 -37 -25 -31 4 -40 55 -13 75 15 11 54 3 54 -13z
m346 -10 c4 -13 1 -31 -5 -38 -9 -11 -9 -15 1 -20 7 -3 -3 -3 -22 0 -47 8 -50
11 -50 44 0 51 64 62 76 14z m390 0 c8 -32 -13 -56 -45 -52 -20 2 -27 9 -29
33 -6 53 61 71 74 19z m-655 -4 c10 0 19 7 19 15 0 8 5 15 10 15 6 0 10 -18
10 -40 0 -22 -4 -40 -10 -40 -5 0 -10 9 -10 20 0 29 -37 27 -43 -2 -2 -13 -4
-3 -4 22 -1 25 1 37 4 28 2 -10 13 -18 24 -18z m122 23 c-13 -2 -23 -9 -23
-14 0 -5 10 -10 23 -10 l22 -2 -22 -4 c-13 -2 -23 -11 -23 -18 0 -7 10 -16 23
-18 19 -4 18 -4 -5 -6 -26 -1 -28 2 -28 39 0 37 2 40 28 39 23 -2 24 -2 5 -6z
m217 -58 c9 0 18 13 22 35 l6 35 -1 -40 c-2 -36 -5 -40 -27 -40 -22 0 -25 4
-27 40 l-1 40 6 -35 c4 -22 13 -35 22 -35z m113 58 c-13 -2 -23 -9 -23 -14 0
-5 10 -10 23 -10 l22 -2 -22 -4 c-13 -2 -23 -11 -23 -18 0 -7 10 -16 23 -18
19 -4 18 -4 -5 -6 -26 -1 -28 2 -28 39 0 37 2 40 28 39 23 -2 24 -2 5 -6z
m338 -15 l12 -23 10 23 c17 37 37 27 37 -18 0 -22 -4 -40 -10 -40 -5 0 -10 10
-10 22 0 21 0 21 -14 3 -14 -19 -15 -19 -28 10 l-13 29 -6 -34 -6 -35 -2 43
c-1 46 12 55 30 20z m142 15 c-13 -2 -23 -9 -23 -14 0 -5 10 -10 23 -10 l22
-2 -22 -4 c-13 -2 -23 -11 -23 -18 0 -7 10 -16 23 -18 19 -4 18 -4 -5 -6 -26
-1 -28 2 -28 39 0 37 2 40 28 39 23 -2 24 -2 5 -6z m100 -15 l16 -23 0 23 c1
40 21 23 21 -18 0 -48 -12 -51 -37 -9 l-18 31 -6 -34 c-6 -32 -6 -32 -8 10 -1
47 9 53 32 20z m117 -43 c9 0 18 13 22 35 l6 35 -1 -40 c-2 -36 -5 -40 -27
-40 -22 0 -25 4 -27 40 l-1 40 6 -35 c4 -22 13 -35 22 -35z"/>
<path d="M9024 1985 c-4 -10 1 -23 11 -33 11 -11 15 -12 10 -3 -6 11 -4 13 9
8 14 -6 17 -2 14 15 -4 27 -35 36 -44 13z"/>
<path d="M9414 1985 c-9 -22 22 -53 37 -38 15 15 7 47 -14 51 -9 2 -20 -4 -23
-13z"/>
<path d="M17658 1443 c-24 -4 -28 -9 -28 -37 0 -19 7 -39 15 -46 10 -8 11 -17
5 -31 -6 -10 -14 -28 -20 -39 -5 -11 -10 -27 -10 -35 0 -9 -9 -15 -23 -15 -32
0 -47 -18 -47 -57 0 -31 -2 -33 -35 -33 l-35 0 0 115 0 115 -25 0 -25 0 0
-140 c0 -87 4 -140 10 -140 6 0 10 -18 10 -41 0 -22 4 -38 9 -35 5 3 8 22 6
41 -1 19 2 35 7 35 5 0 8 -25 7 -55 -1 -30 -6 -55 -11 -55 -5 0 -6 5 -3 10 3
6 1 10 -4 10 -6 0 -11 -9 -11 -20 0 -13 7 -20 20 -20 15 0 20 7 20 25 0 21 5
25 30 25 25 0 30 -4 30 -25 0 -18 5 -25 20 -25 17 0 20 7 20 40 0 22 4 40 9
40 5 0 16 3 25 6 12 5 16 0 16 -20 0 -19 -5 -26 -20 -26 -13 0 -20 -7 -20 -20
0 -18 7 -20 70 -20 63 0 70 2 70 20 0 13 -7 20 -20 20 -27 0 -28 46 -1 53 27
7 31 0 31 -50 0 -36 3 -43 20 -43 15 0 20 7 20 25 0 21 5 25 30 25 25 0 30 -4
30 -25 0 -18 5 -25 20 -25 18 0 20 7 20 65 0 37 4 65 10 65 6 0 10 53 10 140
l0 140 -25 0 c-21 0 -25 -5 -25 -29 0 -39 17 -49 23 -14 2 16 4 -21 3 -82 0
-82 -1 -90 -3 -32 -5 99 -23 101 -23 2 l0 -75 -34 0 c-33 0 -35 2 -38 38 -3
32 -7 38 -35 47 -21 6 -33 16 -33 26 0 10 -4 21 -10 24 -5 3 -10 15 -10 25 0
10 -6 20 -12 23 -10 3 -8 10 5 25 14 15 17 29 12 56 -4 20 -10 35 -14 35 -3
-1 -18 -4 -33 -6z m32 -58 c0 -8 -9 -15 -20 -15 -15 0 -20 7 -20 25 0 23 2 24
20 15 11 -6 20 -17 20 -25z m-233 -182 c-2 -32 -3 -8 -3 52 0 61 1 87 3 58 2
-29 2 -78 0 -110z m235 83 c19 -39 15 -46 -22 -46 -15 0 -29 3 -33 6 -6 6 24
74 33 74 3 0 13 -16 22 -34z m78 -136 l0 -70 -32 -1 c-113 -4 -144 -4 -155 -1
-9 3 -13 27 -13 73 l0 69 100 0 100 0 0 -70z m-242 -27 c-15 -2 -42 -2 -60 0
-18 2 -6 4 27 4 33 0 48 -2 33 -4z m350 0 c-15 -2 -42 -2 -60 0 -18 2 -6 4 27
4 33 0 48 -2 33 -4z m-328 -53 c0 -27 -3 -30 -30 -30 -27 0 -30 3 -30 30 0 27
3 30 30 30 27 0 30 -3 30 -30z m300 0 c0 -27 -3 -30 -30 -30 -27 0 -30 3 -30
30 0 27 3 30 30 30 27 0 30 -3 30 -30z m30 -25 c0 -30 -4 -55 -10 -55 -5 0
-10 25 -10 55 0 30 5 55 10 55 6 0 10 -25 10 -55z m-300 -20 c0 -19 -4 -35 -8
-35 -5 0 -8 10 -6 23 1 12 3 28 3 35 2 28 11 9 11 -23z m100 10 c0 -14 -4 -25
-10 -25 -5 0 -10 11 -10 25 0 14 5 25 10 25 6 0 10 -11 10 -25z m92 -15 c3
-16 1 -30 -4 -30 -4 0 -8 14 -8 30 0 17 2 30 4 30 2 0 6 -13 8 -30z m-74 -27
c-16 -2 -40 -2 -55 0 -16 2 -3 4 27 4 30 0 43 -2 28 -4z"/>
<path d="M17553 863 c-18 -6 -16 -43 1 -43 17 0 31 -18 22 -27 -3 -3 -13 0
-22 8 -15 12 -17 12 -12 -1 6 -19 37 -25 52 -10 8 9 4 18 -19 37 -27 22 -28
25 -7 20 12 -3 22 -2 22 3 0 11 -22 18 -37 13z"/>
<path d="M17361 818 c1 -24 3 -35 6 -25 6 21 19 22 27 2 3 -8 10 -15 16 -15 7
0 8 6 0 19 -7 14 -7 20 2 23 21 7 0 38 -27 38 -23 0 -25 -3 -24 -42z m37 20
c-6 -18 -28 -21 -28 -4 0 9 7 16 16 16 9 0 14 -5 12 -12z"/>
<path d="M17450 820 c0 -37 2 -40 28 -39 23 2 24 2 5 6 -13 2 -23 11 -23 18 0
7 10 16 23 18 l22 4 -22 2 c-13 0 -23 5 -23 10 0 5 10 12 23 14 19 4 18 4 -5
6 -26 1 -28 -2 -28 -39z"/>
<path d="M17630 820 c0 -37 2 -40 28 -39 23 2 24 2 5 6 -13 2 -23 11 -23 18 0
7 10 16 23 18 l22 4 -22 2 c-13 0 -23 5 -23 10 0 5 10 12 23 14 19 4 18 4 -5
6 -26 1 -28 -2 -28 -39z"/>
<path d="M17721 818 c1 -24 3 -35 6 -25 6 21 19 22 27 2 3 -8 10 -15 16 -15 7
0 8 6 0 19 -7 14 -7 20 2 23 21 7 0 38 -27 38 -23 0 -25 -3 -24 -42z m37 20
c-6 -18 -28 -21 -28 -4 0 9 7 16 16 16 9 0 14 -5 12 -12z"/>
<path d="M17827 820 c9 -22 20 -40 25 -40 5 0 16 16 24 35 17 40 17 45 5 45
-5 0 -13 -15 -17 -32 l-7 -33 -14 33 c-19 47 -34 40 -16 -8z"/>
<path d="M17910 820 c0 -37 2 -40 28 -39 23 2 24 2 5 6 -13 2 -23 11 -23 18 0
7 10 16 23 18 l22 4 -22 2 c-13 0 -23 5 -23 10 0 5 10 12 23 14 19 4 18 4 -5
6 -26 1 -28 -2 -28 -39z"/>
<path d="M17893 683 c-18 -6 -16 -43 1 -43 17 0 31 -18 22 -27 -3 -3 -13 0
-22 8 -15 12 -17 12 -12 -1 6 -19 37 -25 52 -10 8 9 4 18 -19 37 -27 22 -28
25 -7 20 12 -3 22 -2 22 3 0 11 -22 18 -37 13z"/>
<path d="M17283 645 c2 -36 5 -40 27 -40 22 0 25 4 27 40 l1 40 -6 -35 c-4
-22 -13 -35 -22 -35 -9 0 -18 13 -22 35 l-6 35 1 -40z"/>
<path d="M17381 638 l2 -43 6 35 6 34 13 -29 c13 -29 14 -29 28 -10 14 18 14
18 14 -3 0 -12 5 -22 10 -22 6 0 10 18 10 40 0 45 -20 55 -37 18 l-10 -23 -12
23 c-18 35 -31 26 -30 -20z"/>
<path d="M17517 640 c-8 -22 -11 -40 -6 -40 5 0 9 5 9 10 0 14 38 12 43 -2 11
-31 15 2 5 35 -15 48 -31 47 -51 -3z m33 5 c0 -8 -4 -15 -10 -15 -5 0 -7 7 -4
15 4 8 8 15 10 15 2 0 4 -7 4 -15z"/>
<path d="M17661 638 l2 -43 6 35 6 34 13 -29 c13 -29 14 -29 28 -10 14 18 14
18 14 -3 0 -12 5 -22 10 -22 6 0 10 18 10 40 0 45 -20 55 -37 18 l-10 -23 -12
23 c-18 35 -31 26 -30 -20z"/>
<path d="M17790 640 c0 -37 2 -40 28 -39 23 2 24 2 5 6 -13 2 -23 11 -23 18 0
7 10 16 23 18 l22 4 -22 2 c-13 0 -23 5 -23 10 0 5 10 12 23 14 19 4 18 4 -5
6 -26 1 -28 -2 -28 -39z"/>
<path d="M17977 640 c-8 -22 -11 -40 -6 -40 5 0 9 5 9 10 0 14 38 12 43 -2 11
-31 15 2 5 35 -15 48 -31 47 -51 -3z m33 5 c0 -8 -4 -15 -10 -15 -5 0 -7 7 -4
15 4 8 8 15 10 15 2 0 4 -7 4 -15z"/>
<path d="M18230 425 c-41 -42 -32 -60 10 -20 l30 29 30 -29 c42 -40 51 -22 10
20 -19 19 -37 35 -40 35 -3 0 -21 -16 -40 -35z"/>
</g>
</svg>
