<?xml version="1.0" standalone="no"?>
<!DOCTYPE svg PUBLIC "-//W3C//DTD SVG 20010904//EN"
 "http://www.w3.org/TR/2001/REC-SVG-20010904/DTD/svg10.dtd">
<svg version="1.0" xmlns="http://www.w3.org/2000/svg"
 width="1861.000000pt" height="958.000000pt" viewBox="0 0 1861.000000 958.000000"
 preserveAspectRatio="xMidYMid meet">

<g transform="translate(0.000000,958.000000) scale(0.100000,-0.100000)"
fill="#000000" stroke="none">
<path d="M0 4790 l0 -4790 9305 0 9305 0 0 4790 0 4790 -9305 0 -9305 0 0
-4790z m9034 4225 c16 -25 16 -28 -4 -60 -12 -19 -25 -35 -28 -35 -4 0 -16 15
-28 33 -11 17 -29 44 -38 60 l-18 27 50 0 c42 0 52 -4 66 -25z m194 18 c-1 -5
-25 -41 -52 -80 l-49 -73 52 -78 c28 -43 51 -81 51 -85 0 -4 -20 -7 -43 -7
-50 0 -55 5 -117 103 l-42 68 52 79 53 80 49 0 c27 0 48 -3 46 -7z m685 -73
c8 0 7 4 -1 12 -7 7 -12 16 -12 22 0 5 6 1 14 -9 7 -10 11 -28 8 -39 -5 -19
-3 -19 17 4 22 24 22 24 11 2 -6 -13 -9 -30 -6 -38 3 -8 0 -14 -7 -15 -7 0 -4
-4 6 -8 16 -6 17 -9 5 -18 -11 -10 -21 3 -51 65 -22 45 -28 66 -16 50 11 -16
26 -28 32 -28z m-560 9 c87 -24 104 -146 27 -206 -8 -7 -36 -13 -62 -13 -38 0
-54 6 -78 28 -61 54 -46 155 28 186 45 18 39 18 85 5z m-746 -51 l53 -52 0 52
c0 51 1 52 30 52 l30 0 0 -110 c0 -83 -3 -110 -13 -110 -7 0 -35 23 -62 51
l-50 50 -5 -48 c-5 -43 -8 -48 -32 -51 l-28 -3 0 110 c0 81 3 111 12 111 7 0
36 -23 65 -52z m301 30 c-2 -19 -10 -24 -40 -26 -51 -4 -53 -32 -3 -32 31 0
35 -3 35 -25 0 -22 -4 -25 -35 -25 -28 0 -35 -4 -35 -20 0 -17 7 -20 40 -20
36 0 40 -2 40 -25 0 -24 -2 -25 -70 -25 l-70 0 0 110 0 110 71 0 c67 0 70 -1
67 -22z m702 -5 c28 -36 12 -52 -33 -31 -23 11 -38 13 -51 6 -24 -14 -2 -38
34 -38 39 0 73 -30 73 -65 0 -39 -34 -65 -87 -65 -48 0 -86 22 -86 51 0 14 7
19 24 19 14 0 28 -4 31 -10 8 -14 52 -13 61 1 9 15 -15 29 -50 29 -38 0 -66
26 -66 62 0 42 32 68 84 68 36 0 48 -5 66 -27z m-6390 -28 c0 -9 -9 -15 -25
-15 -14 0 -25 -4 -25 -10 0 -5 9 -10 20 -10 11 0 20 -7 20 -15 0 -8 -9 -15
-20 -15 -15 0 -20 -7 -20 -25 0 -16 -6 -25 -15 -25 -12 0 -15 14 -15 65 l0 65
40 0 c29 0 40 -4 40 -15z m42 -32 c3 -40 6 -48 23 -48 17 0 20 8 23 48 2 33 7
47 18 47 20 0 19 -79 -2 -108 -18 -26 -56 -29 -78 -6 -21 21 -22 114 -2 114
11 0 16 -14 18 -47z m153 10 l25 -38 0 38 c0 26 4 37 15 37 12 0 15 -14 15
-65 0 -77 -16 -86 -52 -27 l-23 37 -3 -37 c-2 -25 -8 -38 -18 -38 -11 0 -14
15 -14 65 0 78 15 85 55 28z m173 21 c27 -19 28 -34 2 -34 -11 0 -20 5 -20 11
0 6 -10 9 -22 7 -18 -2 -23 -10 -23 -33 0 -29 1 -30 44 -27 45 3 45 3 26 -18
-39 -43 -105 -14 -105 46 0 34 28 64 60 64 9 0 26 -7 38 -16z m72 -49 c0 -51
-3 -65 -15 -65 -12 0 -15 14 -15 65 0 51 3 65 15 65 12 0 15 -14 15 -65z m110
47 c43 -35 17 -112 -38 -112 -58 0 -87 82 -40 114 29 21 51 20 78 -2z m95 -19
l25 -38 0 38 c0 26 4 37 15 37 12 0 15 -14 15 -65 0 -77 -16 -86 -52 -27 l-23
37 -3 -37 c-2 -25 -8 -38 -18 -38 -11 0 -14 15 -14 65 0 78 15 85 55 28z m172
-31 c18 -49 20 -62 8 -62 -7 0 -17 5 -20 10 -3 6 -17 10 -31 10 -13 0 -24 -4
-24 -10 0 -5 -9 -10 -19 -10 -19 0 -19 1 0 53 11 28 22 58 24 65 11 31 41 5
62 -56z m63 13 c0 -48 2 -55 20 -55 11 0 20 -4 20 -10 0 -5 -16 -10 -35 -10
l-35 0 0 65 c0 51 3 65 15 65 12 0 15 -13 15 -55z m80 -10 c0 -51 -3 -65 -15
-65 -12 0 -15 14 -15 65 0 51 3 65 15 65 12 0 15 -14 15 -65z m115 45 c20 -17
19 -69 -2 -92 -10 -11 -30 -18 -55 -18 l-38 0 0 66 0 67 40 -6 c23 -3 47 -11
55 -17z m122 -45 l22 -60 0 64 1 64 40 -6 c52 -7 70 -22 70 -60 0 -48 -25 -67
-86 -67 -29 0 -56 5 -59 10 -3 6 -17 10 -31 10 -13 0 -24 -4 -24 -10 0 -5 -9
-10 -19 -10 -19 0 -19 1 0 53 11 28 22 58 24 65 11 31 41 5 62 -53z m233 50
c0 -9 -9 -15 -25 -15 -14 0 -25 -4 -25 -10 0 -5 9 -10 20 -10 11 0 20 -7 20
-15 0 -8 -9 -15 -20 -15 -11 0 -20 -7 -20 -15 0 -9 9 -15 25 -15 14 0 25 -4
25 -10 0 -5 -18 -10 -40 -10 l-40 0 0 65 0 65 40 0 c29 0 40 -4 40 -15z m81 5
c30 -17 23 -33 -11 -25 -17 4 -30 2 -30 -3 0 -6 14 -15 30 -21 22 -7 30 -16
30 -34 0 -37 -55 -52 -80 -22 -17 21 -4 32 20 17 13 -8 21 -8 26 -1 7 12 8 11
-28 27 -29 12 -36 40 -16 60 15 15 33 15 59 2z m1923 -6 c29 -29 12 -64 -31
-64 -18 0 -23 -6 -23 -25 0 -16 -6 -25 -15 -25 -12 0 -15 14 -15 65 l0 65 34
0 c19 0 42 -7 50 -16z m107 6 c23 -13 25 -43 4 -60 -12 -10 -12 -15 2 -36 14
-23 14 -24 -4 -24 -12 0 -26 12 -33 28 l-14 27 -4 -27 c-2 -16 -10 -28 -18
-28 -11 0 -14 15 -14 65 l0 65 31 0 c17 0 39 -5 50 -10z m109 -5 c0 -9 -9 -15
-25 -15 -14 0 -25 -4 -25 -10 0 -5 9 -10 20 -10 11 0 20 -7 20 -15 0 -8 -9
-15 -20 -15 -11 0 -20 -7 -20 -15 0 -9 9 -15 25 -15 14 0 25 -4 25 -10 0 -5
-18 -10 -40 -10 l-40 0 0 65 0 65 40 0 c29 0 40 -4 40 -15z m108 -1 c27 -19
28 -34 2 -34 -11 0 -20 5 -20 11 0 6 -10 9 -22 7 -18 -2 -23 -10 -23 -33 0
-29 1 -30 45 -28 l45 3 -27 -24 c-16 -14 -22 -26 -16 -28 19 -7 1 -38 -22 -38
-11 0 -20 5 -20 10 0 6 7 10 17 10 11 0 4 10 -20 31 -29 25 -37 39 -37 65 0
34 28 64 60 64 9 0 26 -7 38 -16z m142 -2 c43 -35 17 -112 -38 -112 -58 0 -87
82 -40 114 29 21 51 20 78 -2z m101 8 c30 -17 23 -33 -11 -25 -17 4 -30 2 -30
-3 0 -6 14 -15 30 -21 22 -7 30 -16 30 -34 0 -37 -55 -52 -80 -22 -17 21 -4
32 20 17 13 -8 21 -8 26 -1 7 12 8 11 -28 27 -29 12 -36 40 -16 60 15 15 33
15 59 2z m4243 -6 c29 -29 12 -64 -31 -64 -18 0 -23 -6 -23 -25 0 -16 -6 -25
-15 -25 -12 0 -15 14 -15 65 l0 65 34 0 c19 0 42 -7 50 -16z m106 1 c0 -9 -9
-15 -25 -15 -14 0 -25 -4 -25 -10 0 -5 9 -10 20 -10 11 0 20 -7 20 -15 0 -8
-9 -15 -20 -15 -11 0 -20 -7 -20 -15 0 -9 9 -15 25 -15 14 0 25 -4 25 -10 0
-5 -18 -10 -40 -10 l-40 0 0 65 0 65 40 0 c29 0 40 -4 40 -15z m91 5 c23 -13
25 -43 4 -60 -12 -10 -12 -15 2 -36 14 -23 14 -24 -4 -24 -12 0 -26 12 -33 28
l-14 27 -4 -27 c-2 -16 -10 -28 -18 -28 -11 0 -14 15 -14 65 l0 65 31 0 c17 0
39 -5 50 -10z m130 -10 l24 -20 -45 3 c-44 2 -45 1 -45 -28 0 -25 4 -30 28
-33 15 -2 27 1 27 7 0 6 -9 11 -20 11 -11 0 -20 5 -20 10 0 6 16 10 35 10 40
0 47 -20 18 -52 -37 -41 -103 -10 -103 48 0 57 57 82 101 44z m71 -27 c3 -40
6 -48 23 -48 17 0 20 8 23 48 2 33 7 47 18 47 20 0 19 -79 -2 -108 -18 -26
-56 -29 -78 -6 -21 21 -22 114 -2 114 11 0 16 -14 18 -47z m143 10 l25 -38 0
38 c0 26 4 37 15 37 12 0 15 -14 15 -65 0 -77 -16 -86 -52 -27 l-23 37 -3 -37
c-2 -25 -8 -38 -18 -38 -11 0 -14 15 -14 65 0 78 15 85 55 28z m175 22 c0 -8
-7 -15 -15 -15 -11 0 -15 -12 -15 -50 0 -38 -4 -50 -15 -50 -11 0 -15 12 -15
50 0 43 -3 50 -20 50 -11 0 -20 7 -20 15 0 11 12 15 50 15 38 0 50 -4 50 -15z
m107 -53 c18 -49 20 -62 8 -62 -7 0 -17 5 -20 10 -3 6 -17 10 -31 10 -13 0
-24 -4 -24 -10 0 -5 -9 -10 -19 -10 -19 0 -19 1 0 53 11 28 22 58 24 65 11 31
41 5 62 -56z m104 58 c30 -17 23 -33 -11 -25 -17 4 -30 2 -30 -3 0 -6 14 -15
30 -21 22 -7 30 -16 30 -34 0 -37 -55 -52 -80 -22 -17 21 -4 32 20 17 13 -8
21 -8 26 -1 7 12 8 11 -28 27 -29 12 -36 40 -16 60 15 15 33 15 59 2z m149 -5
c0 -9 -9 -15 -25 -15 -14 0 -25 -4 -25 -10 0 -5 9 -10 20 -10 11 0 20 -7 20
-15 0 -8 -9 -15 -20 -15 -15 0 -20 -7 -20 -25 0 -16 -6 -25 -15 -25 -12 0 -15
14 -15 65 l0 65 40 0 c29 0 40 -4 40 -15z m91 5 c23 -13 25 -43 4 -60 -12 -10
-12 -15 2 -36 14 -23 14 -24 -4 -24 -12 0 -26 12 -33 28 l-14 27 -4 -27 c-2
-16 -10 -28 -18 -28 -11 0 -14 15 -14 65 l0 65 31 0 c17 0 39 -5 50 -10z m119
-5 c0 -9 -9 -15 -25 -15 -14 0 -25 -4 -25 -10 0 -5 9 -10 20 -10 11 0 20 -7
20 -15 0 -8 -9 -15 -20 -15 -11 0 -20 -7 -20 -15 0 -9 9 -15 25 -15 14 0 25
-4 25 -10 0 -5 -18 -10 -40 -10 l-40 0 0 65 0 65 40 0 c29 0 40 -4 40 -15z
m107 0 c27 -19 34 -48 18 -79 -12 -22 -11 -28 1 -41 14 -13 13 -15 -5 -15 -11
0 -23 5 -26 10 -3 6 -16 10 -27 10 -55 0 -81 83 -36 114 28 20 48 20 75 1z
m75 -32 c3 -40 6 -48 23 -48 17 0 20 8 23 48 2 33 7 47 18 47 20 0 19 -79 -2
-108 -18 -26 -56 -29 -78 -6 -21 21 -22 114 -2 114 11 0 16 -14 18 -47z m168
32 c0 -9 -9 -15 -25 -15 -14 0 -25 -4 -25 -10 0 -5 9 -10 20 -10 11 0 20 -7
20 -15 0 -8 -9 -15 -20 -15 -11 0 -20 -7 -20 -15 0 -9 9 -15 25 -15 14 0 25
-4 25 -10 0 -5 -18 -10 -40 -10 l-40 0 0 65 0 65 40 0 c29 0 40 -4 40 -15z
m75 -22 l25 -38 0 38 c0 26 4 37 15 37 12 0 15 -14 15 -65 0 -77 -16 -86 -52
-27 l-23 37 -3 -37 c-2 -25 -8 -38 -18 -38 -11 0 -14 15 -14 65 0 78 15 85 55
28z m165 22 c0 -8 -7 -15 -15 -15 -11 0 -15 -12 -15 -50 0 -38 -4 -50 -15 -50
-11 0 -15 12 -15 50 0 43 -3 50 -20 50 -11 0 -20 7 -20 15 0 11 12 15 50 15
38 0 50 -4 50 -15z m100 0 c0 -9 -9 -15 -25 -15 -14 0 -25 -4 -25 -10 0 -5 9
-10 20 -10 11 0 20 -7 20 -15 0 -8 -9 -15 -20 -15 -11 0 -20 -7 -20 -15 0 -9
9 -15 25 -15 14 0 25 -4 25 -10 0 -5 -18 -10 -40 -10 l-40 0 0 65 0 65 40 0
c29 0 40 -4 40 -15z m81 5 c30 -17 23 -33 -11 -25 -17 4 -30 2 -30 -3 0 -6 14
-15 30 -21 22 -7 30 -16 30 -34 0 -37 -55 -52 -80 -22 -17 21 -4 32 20 17 13
-8 21 -8 26 -1 7 12 8 11 -28 27 -29 12 -36 40 -16 60 15 15 33 15 59 2z
m1207 -6 c27 -19 28 -34 2 -34 -11 0 -20 5 -20 11 0 6 -10 9 -22 7 -18 -2 -23
-10 -23 -33 0 -29 1 -30 44 -27 45 3 45 3 26 -18 -39 -43 -105 -14 -105 46 0
34 28 64 60 64 9 0 26 -7 38 -16z m132 -2 c43 -35 17 -112 -38 -112 -58 0 -87
82 -40 114 29 21 51 20 78 -2z m95 -19 l25 -38 0 38 c0 26 4 37 15 37 12 0 15
-14 15 -65 0 -77 -16 -86 -52 -27 l-23 37 -3 -37 c-2 -25 -8 -38 -18 -38 -11
0 -14 15 -14 65 0 78 15 85 55 28z m165 22 c0 -8 -7 -15 -15 -15 -11 0 -15
-12 -15 -50 0 -38 -4 -50 -15 -50 -11 0 -15 12 -15 50 0 43 -3 50 -20 50 -11
0 -20 7 -20 15 0 11 12 15 50 15 38 0 50 -4 50 -15z m117 -53 c18 -49 20 -62
8 -62 -7 0 -17 5 -20 10 -3 6 -17 10 -31 10 -13 0 -24 -4 -24 -10 0 -5 -9 -10
-19 -10 -19 0 -19 1 0 53 11 28 22 58 24 65 11 31 41 5 62 -56z m113 53 c0 -8
-7 -15 -15 -15 -11 0 -15 -12 -15 -50 0 -38 -4 -50 -15 -50 -11 0 -15 12 -15
50 0 43 -3 50 -20 50 -11 0 -20 7 -20 15 0 11 12 15 50 15 38 0 50 -4 50 -15z
m120 -3 c43 -35 17 -112 -38 -112 -58 0 -87 82 -40 114 29 21 51 20 78 -2z
m-5470 -2 c0 -5 -2 -10 -4 -10 -3 0 -8 5 -11 10 -3 6 -1 10 4 10 6 0 11 -4 11
-10z m-103 -57 c17 -27 40 -67 51 -89 20 -40 20 -42 3 -58 -28 -26 -64 -19
-99 17 l-32 33 29 32 c16 18 29 44 29 57 0 14 -3 23 -7 21 -4 -3 -7 4 -7 15 0
10 1 19 1 19 1 0 15 -21 32 -47z m163 34 c0 -7 -7 -23 -16 -36 -13 -18 -18
-20 -25 -10 -13 21 -11 39 6 39 8 0 15 5 15 10 0 6 5 10 10 10 6 0 10 -6 10
-13z m-100 -32 c-11 -13 -10 -14 2 -10 18 7 40 -37 31 -61 -5 -13 -11 -8 -29
21 -22 37 -23 65 -2 65 6 0 5 -7 -2 -15z m-900 -70 c0 -3 -10 -21 -22 -40 -21
-32 -27 -35 -70 -35 -27 0 -48 2 -48 5 0 3 10 21 23 40 20 32 26 35 70 35 26
0 47 -2 47 -5z m3630 -1680 c17 -132 20 -146 32 -139 7 4 8 3 4 -4 -4 -7 -4
-17 0 -24 5 -8 10 -6 15 8 7 16 8 15 8 -7 2 -55 41 -46 41 10 0 56 9 76 42 95
40 24 68 17 203 -46 60 -29 121 -51 135 -50 19 1 22 0 10 -8 -12 -8 -11 -10 7
-10 16 0 21 4 17 15 -4 8 -14 15 -23 15 -10 0 -27 11 -39 25 -12 14 -20 25
-18 25 9 0 72 -24 76 -29 3 -4 30 -19 60 -35 30 -16 129 -67 220 -114 91 -47
219 -114 285 -148 66 -35 156 -82 200 -104 85 -44 165 -86 280 -149 39 -21 97
-53 130 -71 33 -18 69 -38 80 -45 11 -7 65 -36 120 -65 55 -29 107 -59 116
-66 8 -8 18 -14 22 -14 3 0 32 -15 64 -34 32 -18 182 -96 333 -174 348 -177
356 -181 382 -209 21 -22 21 -26 8 -50 -8 -14 -22 -29 -30 -33 -40 -18 -232
-123 -295 -162 -16 -10 -37 -21 -45 -25 -8 -4 -47 -26 -87 -49 -39 -24 -106
-61 -149 -85 -117 -62 -148 -80 -161 -91 -7 -6 -13 -7 -13 -2 0 5 -4 5 -8 -1
-4 -5 -25 -20 -47 -31 -143 -76 -201 -108 -205 -114 -3 -4 -16 -11 -30 -15
-14 -4 -27 -11 -30 -14 -3 -3 -50 -29 -105 -57 -55 -28 -116 -61 -135 -72 -38
-24 -89 -29 -107 -11 -6 6 -21 9 -33 7 -22 -3 -23 -5 -19 -118 4 -169 2 -270
-6 -312 -6 -32 -3 -41 19 -62 47 -48 49 -41 44 159 -5 211 -8 205 74 205 32 0
57 8 91 30 26 17 49 30 51 30 2 0 45 23 97 51 172 94 433 236 514 279 44 23
99 54 123 67 71 41 381 193 392 193 6 0 10 -34 10 -87 0 -88 26 -203 48 -211
5 -1 17 4 26 13 9 9 16 15 17 13 0 -2 2 -25 5 -53 4 -55 -17 -101 -42 -91 -8
3 -14 1 -14 -4 0 -5 -7 -7 -15 -4 -9 4 -15 0 -15 -9 0 -8 -14 -27 -31 -41 -25
-21 -28 -27 -15 -32 13 -5 16 -24 16 -99 0 -67 6 -110 21 -156 11 -35 21 -74
21 -86 1 -29 10 -29 47 3 l30 25 7 -26 c12 -48 -9 -70 -123 -131 -94 -50 -172
-92 -373 -202 -25 -14 -72 -39 -105 -57 -33 -18 -82 -45 -110 -60 -390 -215
-639 -346 -677 -356 -40 -11 -55 -10 -100 4 -72 23 -118 53 -118 76 0 11 5 23
10 26 13 8 13 55 1 55 -5 0 -11 -6 -14 -12 -3 -10 -8 -10 -16 -2 -10 9 -10 21
-1 54 l12 43 19 -42 c10 -24 19 -52 19 -62 0 -10 7 -19 15 -19 8 0 15 -5 15
-11 0 -7 16 -27 35 -45 29 -29 41 -34 83 -34 41 0 57 6 95 35 25 19 48 35 50
35 3 0 72 38 154 83 202 114 259 146 313 174 25 13 52 28 60 33 49 31 173 100
180 100 4 0 14 8 21 17 12 14 -164 -73 -196 -97 -5 -4 -39 -23 -75 -42 -76
-40 -113 -61 -120 -68 -3 -3 -43 -24 -90 -48 -47 -24 -113 -58 -146 -77 -77
-41 -105 -50 -113 -36 -4 6 -3 39 2 73 4 35 11 118 13 186 5 115 5 122 -13
122 -11 0 -28 -6 -39 -14 -18 -13 -19 -28 -19 -208 l0 -193 -42 -3 -43 -3 0
190 0 189 -42 20 c-24 11 -60 26 -80 33 -37 13 -38 14 -38 64 0 27 -1 150 -2
273 l-3 223 -25 19 c-14 10 -92 54 -175 96 -82 42 -181 95 -220 116 -38 22
-74 41 -80 42 -18 5 -50 19 -55 25 -3 3 -30 19 -60 35 -30 16 -62 35 -71 42
-8 8 -22 14 -30 14 -8 0 -34 12 -58 26 -25 13 -50 23 -56 20 -6 -2 -17 5 -23
15 -7 10 -17 19 -22 19 -5 0 -34 16 -64 35 -62 39 -81 43 -108 18 -28 -25 -22
-43 13 -43 17 0 40 -5 51 -11 15 -8 22 -8 28 1 6 9 11 7 19 -9 7 -11 19 -21
27 -21 8 0 13 -4 9 -9 -3 -5 0 -13 6 -17 8 -4 9 -3 5 4 -9 15 5 15 41 0 15 -6
30 -11 33 -11 3 1 16 -14 30 -32 14 -19 43 -43 65 -54 22 -11 50 -29 61 -40
12 -10 46 -29 75 -42 30 -12 59 -28 65 -36 6 -7 18 -13 26 -13 8 0 34 -12 59
-27 52 -32 119 -65 169 -84 19 -7 42 -18 50 -24 8 -6 35 -17 60 -25 144 -43
167 -98 68 -155 -29 -16 -66 -38 -83 -48 l-30 -17 -12 32 c-11 32 -11 32 -12
6 -1 -37 -73 -109 -122 -121 -14 -4 -42 -18 -63 -32 -20 -14 -40 -25 -44 -25
-6 0 -98 -48 -152 -79 -108 -63 -217 -124 -325 -180 -33 -18 -91 -49 -130 -70
-38 -21 -114 -60 -167 -87 -60 -30 -99 -56 -102 -68 -4 -15 -11 -18 -34 -13
l-30 6 -4 -232 c-5 -320 -22 -330 -28 -17 l-5 245 -41 -3 c-40 -3 -74 16 -45
26 13 4 -28 35 -84 64 -46 24 -127 68 -160 88 -16 9 -64 35 -105 57 -41 22
-91 49 -110 60 -19 11 -62 35 -95 53 -33 18 -103 56 -155 85 -52 29 -117 65
-145 80 -163 90 -205 117 -205 137 0 15 4 18 21 13 15 -5 9 5 -20 33 -23 22
-41 47 -41 57 0 24 47 65 111 98 56 28 177 92 309 164 140 76 195 106 270 145
41 22 80 43 85 48 6 4 51 29 100 55 50 27 106 58 125 70 74 45 139 68 157 57
18 -11 21 -43 29 -317 8 -230 9 -241 15 -140 4 61 7 182 8 271 1 187 9 211 58
182 30 -17 132 -58 147 -58 5 0 -3 9 -18 21 -37 29 -33 43 12 36 24 -4 32 -3
22 3 -8 5 -12 11 -9 14 8 9 74 -31 71 -43 -1 -6 13 -11 32 -11 44 0 60 34 29
60 -21 16 -40 60 -27 60 7 0 163 -78 179 -90 6 -4 51 -29 100 -55 50 -26 178
-96 285 -155 343 -188 504 -275 535 -287 41 -16 65 -16 65 1 0 14 -41 46 -60
46 -12 0 -65 25 -155 74 -33 17 -105 56 -160 86 -55 29 -116 62 -135 73 -19
11 -87 47 -150 80 -63 33 -119 63 -125 67 -10 8 -86 49 -275 148 -131 69 -267
159 -294 195 -20 28 -21 41 -26 525 -3 273 -2 544 3 602 4 58 10 144 13 193 3
48 10 85 15 81 5 -3 9 8 9 24 0 32 9 47 22 34 4 -4 12 -43 18 -87z m-523 -83
c7 -4 20 -26 30 -47 15 -36 18 -98 24 -600 4 -308 3 -584 -2 -614 -5 -30 -6
-64 -3 -76 6 -25 -1 -31 -76 -71 -30 -16 -56 -32 -58 -36 -2 -5 -8 -8 -14 -8
-6 0 -43 -20 -83 -44 -40 -24 -95 -54 -121 -66 -27 -13 -60 -31 -74 -40 -14
-10 -73 -42 -132 -73 -59 -31 -124 -67 -145 -81 -21 -14 -41 -26 -46 -26 -4 0
-65 -33 -135 -72 -184 -105 -183 -104 -229 -128 -23 -12 -47 -28 -54 -36 -6
-8 -17 -14 -23 -14 -6 0 -29 -14 -50 -30 -33 -25 -49 -30 -93 -30 -61 0 -105
16 -82 31 8 4 25 5 39 2 22 -6 24 -5 11 10 -7 10 -22 17 -32 17 -11 0 -19 6
-19 14 0 8 -7 17 -16 20 -8 3 -12 2 -9 -4 9 -14 -1 -12 -17 3 -7 6 -38 24 -68
39 -30 16 -98 51 -150 79 -52 28 -144 77 -205 108 -244 129 -272 144 -320 171
-27 15 -86 47 -130 70 -119 62 -113 52 -136 204 l-11 70 33 28 c19 15 37 28
41 28 3 0 57 28 120 63 62 35 145 81 183 102 39 21 115 62 170 93 55 30 125
68 155 84 99 53 313 170 400 218 97 54 159 88 385 207 88 47 174 93 190 103
17 9 64 35 105 57 41 22 116 62 165 88 116 63 162 85 174 85 5 0 11 3 13 8 4
10 90 52 106 52 6 0 12 5 12 10 0 6 8 10 18 10 10 0 22 4 28 9 19 18 109 27
131 13z m-8337 -74 c0 -4 -12 -8 -26 -8 -14 0 -23 4 -19 9 6 11 45 10 45 -1z
m-635 -27 c3 -5 -5 -12 -17 -14 l-23 -4 23 -8 c32 -11 27 -50 -7 -50 -13 0
-26 6 -29 14 -3 9 2 11 19 7 l24 -7 -22 17 c-31 23 -30 54 1 54 14 0 27 -4 31
-9z m145 -11 c16 -29 3 -59 -27 -66 -46 -12 -77 52 -39 78 21 14 55 8 66 -12z
m80 -15 c0 -24 5 -35 15 -35 8 0 15 -4 15 -10 0 -5 -11 -10 -25 -10 -23 0 -25
4 -25 45 0 25 5 45 10 45 6 0 10 -16 10 -35z m100 0 c0 -24 5 -35 15 -35 10 0
15 11 15 35 0 19 5 35 11 35 6 0 9 -17 7 -42 -3 -40 -5 -43 -33 -43 -28 0 -30
3 -33 43 -2 25 1 42 7 42 6 0 11 -16 11 -35z m188 18 c2 -9 -5 -11 -27 -7 -29
6 -31 4 -31 -21 0 -24 2 -26 30 -20 29 6 44 -9 18 -17 -7 -3 -13 -13 -13 -23
0 -10 -6 -20 -12 -22 -8 -3 -13 4 -13 16 0 11 -6 24 -13 28 -21 12 -28 42 -16
64 7 15 19 19 41 17 17 -2 33 -9 36 -15z m142 -3 c16 -29 3 -59 -27 -66 -46
-12 -77 52 -39 78 21 14 55 8 66 -12z m110 10 c0 -5 -8 -11 -17 -11 -17 -1
-17 -2 0 -6 21 -5 23 -23 2 -23 -8 0 -15 -4 -15 -10 0 -5 7 -10 15 -10 8 0 15
-4 15 -10 0 -5 -11 -10 -25 -10 -23 0 -25 4 -25 45 0 41 2 45 25 45 14 0 25
-4 25 -10z m115 1 c3 -5 -5 -12 -17 -14 l-23 -4 23 -8 c32 -11 27 -50 -7 -50
-13 0 -26 6 -29 14 -3 9 2 11 19 7 l24 -7 -22 17 c-31 23 -30 54 1 54 14 0 27
-4 31 -9z m193 -3 c7 -7 12 -21 12 -33 0 -29 -19 -45 -52 -45 -27 0 -28 2 -28
45 0 43 1 45 28 45 15 0 33 -5 40 -12z m82 -33 c0 -25 -4 -45 -10 -45 -5 0
-10 20 -10 45 0 25 5 45 10 45 6 0 10 -20 10 -45z m138 28 c2 -9 -5 -11 -27
-7 -28 6 -31 4 -31 -20 0 -19 5 -26 20 -26 22 0 27 15 8 23 -7 3 -3 6 10 6 28
1 31 -35 2 -44 -46 -15 -81 25 -59 67 12 22 69 22 77 1z m82 -28 c0 -25 -4
-45 -10 -45 -5 0 -10 20 -10 45 0 25 5 45 10 45 6 0 10 -20 10 -45z m120 35
c0 -5 -4 -10 -10 -10 -5 0 -10 -16 -10 -35 0 -19 -4 -35 -10 -35 -5 0 -10 16
-10 35 0 24 -5 35 -15 35 -8 0 -15 5 -15 10 0 6 16 10 35 10 19 0 35 -4 35
-10z m127 -34 c7 -22 10 -42 7 -45 -4 -3 -9 0 -11 7 -5 14 -43 16 -43 2 0 -5
-7 -10 -15 -10 -12 0 -12 7 3 45 20 55 40 55 59 1z m93 -1 c0 -25 -4 -45 -10
-45 -5 0 -10 20 -10 45 0 25 5 45 10 45 6 0 10 -20 10 -45z m115 36 c3 -5 -5
-12 -17 -14 l-23 -4 23 -8 c32 -11 27 -50 -7 -50 -13 0 -26 6 -29 14 -3 9 2
11 19 7 l24 -7 -22 17 c-31 23 -30 54 1 54 14 0 27 -4 31 -9z m-1470 -498 c50
-26 80 -58 100 -105 31 -76 29 -78 -93 -78 -102 0 -108 1 -117 23 -7 14 -19
22 -35 22 -20 0 -25 -5 -25 -25 0 -27 22 -40 153 -96 106 -45 154 -119 137
-211 -11 -62 -48 -108 -112 -140 -104 -51 -264 -32 -341 40 -31 29 -62 90 -62
122 l0 25 104 0 c96 0 105 -2 111 -20 15 -46 85 -50 85 -5 0 28 -16 38 -137
84 -86 34 -146 85 -159 136 -13 52 1 132 30 169 49 65 109 86 231 83 68 -3
100 -8 130 -24z m3150 0 c50 -26 80 -58 100 -105 31 -76 29 -78 -93 -78 -102
0 -108 1 -117 23 -7 14 -19 22 -35 22 -20 0 -25 -5 -25 -25 0 -27 22 -40 153
-96 106 -45 154 -119 137 -211 -11 -62 -48 -108 -112 -140 -104 -51 -264 -32
-341 40 -31 29 -62 90 -62 122 l0 25 104 0 c96 0 105 -2 111 -20 15 -46 85
-50 85 -5 0 28 -16 38 -137 84 -86 34 -146 85 -159 136 -13 52 1 132 30 169
49 65 109 86 231 83 68 -3 100 -8 130 -24z m-2785 -308 l0 -325 -100 0 -100 0
0 325 0 325 100 0 100 0 0 -325z m386 135 c38 -104 72 -186 76 -182 3 4 36 88
71 187 l64 180 127 3 126 3 0 -326 0 -325 -100 0 -100 0 -2 163 -3 162 -49
-162 -50 -163 -87 0 -88 0 -41 133 c-23 72 -45 143 -50 157 -5 16 -9 -31 -9
-132 l-1 -158 -100 0 -100 0 0 325 0 325 124 0 123 0 69 -190z m902 178 c89
-22 152 -114 152 -220 0 -38 -39 -125 -66 -150 -43 -38 -107 -58 -186 -58
l-78 0 0 -105 0 -105 -100 0 -100 0 0 325 0 325 166 0 c93 0 185 -5 212 -12z
m402 -238 l0 -250 100 0 100 0 0 -75 0 -75 -200 0 -200 0 0 325 0 325 100 0
100 0 0 -250z m670 170 l0 -80 -115 0 -115 0 0 -40 0 -40 100 0 100 0 0 -80 0
-80 -100 0 -100 0 0 -45 0 -45 115 0 115 0 0 -80 0 -80 -215 0 -215 0 0 325 0
325 215 0 215 0 0 -80z m1160 0 l0 -80 -115 0 -115 0 0 -40 0 -40 100 0 100 0
0 -80 0 -80 -100 0 -100 0 0 -45 0 -45 115 0 115 0 0 -80 0 -80 -215 0 -215 0
0 325 0 325 215 0 215 0 0 -80z m2238 -794 c57 -28 126 -65 335 -180 87 -47
160 -86 162 -86 2 0 41 -22 88 -50 47 -27 90 -50 96 -50 6 0 11 -4 11 -10 0
-5 5 -10 11 -10 14 0 82 -41 77 -46 -2 -2 -53 21 -113 51 -60 30 -110 53 -112
51 -6 -5 196 -124 287 -169 25 -12 47 -25 50 -28 3 -3 34 -23 70 -45 96 -58
127 -83 111 -93 -9 -6 -10 -11 -2 -15 6 -4 9 -17 5 -30 -3 -12 -8 -69 -12
-126 -6 -83 -10 -105 -22 -106 -8 -1 -30 -2 -47 -2 -28 -2 -33 -6 -33 -27 0
-33 -35 -34 -99 -2 -101 51 -182 87 -198 87 -9 0 -13 3 -10 7 4 3 -20 19 -54
34 -34 14 -70 34 -80 43 -11 9 -24 16 -29 16 -10 0 -95 45 -120 64 -19 14 -37
24 -164 92 -56 30 -108 59 -116 64 -8 5 -42 22 -75 39 -33 16 -73 41 -88 55
l-27 25 0 214 c0 117 3 216 6 220 4 3 33 -8 66 -24 72 -36 110 -32 58 6 -19
14 -39 25 -44 25 -12 1 -54 30 -43 30 4 0 28 -11 55 -24z m2714 -8 c-7 -7 -12
-22 -12 -35 0 -13 -5 -23 -11 -23 -6 0 -9 7 -6 15 4 8 1 17 -5 21 -7 5 -5 12
7 21 23 16 43 17 27 1z m-7519 -61 c65 -30 113 -77 143 -142 40 -85 40 -85
-81 -85 -94 0 -105 2 -115 20 -14 26 -61 50 -99 50 -117 0 -147 -229 -36 -276
44 -18 87 -9 121 27 27 28 30 29 131 29 119 0 119 0 79 -85 -28 -62 -101 -128
-163 -149 -60 -21 -186 -21 -246 0 -65 22 -139 91 -167 156 -50 114 -37 266
31 365 77 111 264 153 402 90z m-1263 -57 l0 -80 -115 0 -115 0 0 -40 0 -40
100 0 100 0 0 -80 0 -80 -100 0 -100 0 0 -45 0 -45 115 0 115 0 0 -80 0 -80
-215 0 -215 0 0 325 0 325 215 0 215 0 0 -80z m510 0 l0 -80 -130 0 -130 0 0
-45 0 -45 90 0 90 0 0 -75 0 -75 -90 0 -90 0 0 -125 0 -125 -100 0 -100 0 0
325 0 325 230 0 230 0 0 -80z m240 -245 l0 -325 -100 0 -100 0 0 325 0 325
100 0 100 0 0 -325z m940 0 l0 -325 -100 0 -100 0 0 325 0 325 100 0 100 0 0
-325z m500 245 l0 -80 -115 0 -115 0 0 -40 0 -40 100 0 100 0 0 -80 0 -80
-100 0 -100 0 0 -45 0 -45 115 0 115 0 0 -80 0 -80 -215 0 -215 0 0 325 0 325
215 0 215 0 0 -80z m360 -87 l110 -168 0 168 0 167 100 0 100 0 0 -325 0 -325
-102 0 -103 0 -105 160 -105 160 -3 -160 -2 -160 -100 0 -100 0 0 325 0 325
100 0 101 0 109 -167z m890 87 l0 -80 -90 0 -90 0 0 -245 0 -245 -100 0 -100
0 0 245 0 245 -85 0 -85 0 0 80 0 80 275 0 275 0 0 -80z m470 0 l0 -80 -115 0
-115 0 0 -40 0 -40 100 0 100 0 0 -80 0 -80 -100 0 -100 0 0 -45 0 -45 115 0
115 0 0 -80 0 -80 -215 0 -215 0 0 325 0 325 215 0 215 0 0 -80z m5440 -30 c0
-5 -7 -10 -16 -10 -8 0 -12 5 -9 10 3 6 10 10 16 10 5 0 9 -4 9 -10z m-2448
-301 c18 -12 24 -18 13 -14 -11 4 -28 10 -37 12 -10 3 -18 9 -18 14 0 13 6 11
42 -12z m315 -211 c5 -7 9 -38 9 -68 -1 -42 -5 -55 -16 -55 -11 0 -16 15 -20
57 -3 32 -4 62 -2 68 5 14 18 13 29 -2z m576 -327 c95 -48 192 -99 217 -113
25 -14 113 -60 195 -103 83 -43 155 -81 160 -85 6 -4 64 -36 130 -71 66 -35
156 -83 200 -106 44 -24 92 -49 108 -55 l27 -12 0 -248 c0 -169 -3 -248 -11
-248 -6 0 -8 -9 -4 -20 4 -14 2 -20 -9 -20 -12 0 -14 7 -10 28 5 26 2 30 -63
61 -73 35 -249 129 -323 172 -25 15 -115 63 -200 107 -310 160 -570 300 -602
325 -15 12 -16 39 -15 245 1 187 4 232 15 232 7 0 91 -40 185 -89z m2387 60
c0 -49 -18 -88 -42 -87 -29 1 -34 -24 -47 -214 -5 -85 -12 -162 -15 -170 -9
-21 -67 -59 -110 -71 -20 -5 -36 -14 -36 -19 0 -4 -13 -11 -30 -15 -16 -4 -32
-11 -35 -16 -4 -5 -28 -19 -56 -30 -27 -12 -49 -25 -49 -30 0 -5 -11 -9 -25
-9 -14 0 -25 -3 -25 -8 0 -4 -10 -13 -22 -21 -21 -13 -22 -13 -9 3 8 9 10 20
6 24 -4 4 -14 -3 -22 -15 -9 -13 -23 -23 -33 -23 -9 0 -30 -12 -46 -27 -16
-15 -40 -29 -54 -30 -14 -1 -26 -7 -28 -12 -2 -5 -19 -15 -38 -21 -19 -6 -34
-18 -34 -26 0 -8 -7 -15 -15 -15 -37 -3 -66 -19 -58 -33 3 -6 2 -8 -2 -3 -5 4
-18 1 -29 -6 -12 -8 -33 -17 -48 -21 -15 -3 -32 -15 -38 -26 -7 -12 -21 -20
-38 -20 -29 -1 -62 -21 -62 -38 0 -6 -7 -9 -15 -6 -8 4 -15 1 -15 -5 0 -6 -7
-11 -16 -11 -8 0 -13 -4 -10 -9 9 -14 -18 -19 -29 -6 -5 7 -22 15 -37 19 -32
7 -48 -14 -48 -63 0 -16 -4 -33 -10 -36 -7 -4 -10 80 -10 244 0 242 1 251 19
251 11 0 23 4 26 10 3 5 47 30 98 56 51 25 97 50 102 54 6 4 46 27 90 50 102
55 155 84 230 125 79 43 152 82 315 170 74 40 156 84 182 99 26 14 57 26 68
26 12 0 33 9 47 20 36 28 53 25 53 -9z m-20 -261 c0 -5 -4 -10 -10 -10 -5 0
-10 5 -10 10 0 6 5 10 10 10 6 0 10 -4 10 -10z m-10330 -25 c0 -8 -4 -15 -9
-15 -13 0 -22 16 -14 24 11 11 23 6 23 -9z m1050 -75 c0 -53 -4 -90 -10 -90
-6 0 -10 37 -10 90 0 53 4 90 10 90 6 0 10 -37 10 -90z m1150 53 c0 -29 3 -34
12 -25 17 17 58 15 80 -5 22 -20 23 -70 1 -95 -18 -20 -63 -24 -81 -6 -9 9
-12 9 -12 0 0 -7 -4 -12 -10 -12 -6 0 -10 37 -10 90 0 53 4 90 10 90 6 0 10
-17 10 -37z m1160 -53 c0 -53 -4 -90 -10 -90 -6 0 -10 37 -10 90 0 53 4 90 10
90 6 0 10 -37 10 -90z m50 75 c0 -8 -4 -15 -9 -15 -13 0 -22 16 -14 24 11 11
23 6 23 -9z m420 -75 c0 -53 -4 -90 -10 -90 -5 0 -10 5 -10 12 0 9 -3 9 -12 0
-20 -20 -65 -14 -82 10 -20 29 -20 58 0 87 14 20 23 22 55 18 38 -5 39 -4 39
24 0 16 5 29 10 29 6 0 10 -37 10 -90z m-4006 69 c28 -13 43 -39 22 -39 -7 0
-19 7 -26 15 -27 33 -85 11 -95 -35 -14 -63 56 -108 99 -64 9 8 21 14 28 12 7
-3 4 -12 -10 -26 -46 -46 -142 -11 -142 52 0 73 60 114 124 85z m1639 -2 c-3
-4 -15 -7 -26 -5 -12 1 -28 -1 -34 -5 -9 -5 -11 -3 -7 6 3 9 18 15 39 14 19 0
31 -5 28 -10z m-1513 -38 c0 -5 -6 -9 -14 -9 -18 0 -26 -22 -26 -71 0 -21 -4
-39 -10 -39 -6 0 -10 28 -10 63 l0 64 30 1 c17 0 30 -4 30 -9z m50 -54 c0 -37
-4 -65 -10 -65 -6 0 -10 28 -10 65 0 37 4 65 10 65 6 0 10 -28 10 -65z m150
-2 c0 -35 -4 -63 -10 -63 -5 0 -10 5 -10 12 0 9 -3 9 -12 0 -20 -20 -65 -14
-82 10 -20 28 -20 58 0 86 12 18 23 22 65 20 l49 -2 0 -63z m137 55 c10 -8 17
-8 25 0 19 19 66 14 78 -7 13 -25 13 -111 0 -111 -5 0 -10 19 -10 43 0 53 -11
70 -41 65 -21 -3 -24 -9 -27 -55 -2 -37 -7 -53 -17 -53 -10 0 -15 16 -17 53
-3 50 -4 52 -33 52 -29 0 -30 -2 -33 -52 -4 -75 -22 -66 -22 10 l0 64 41 1
c23 1 48 -3 56 -10z m245 -5 c22 -20 23 -70 1 -95 -23 -26 -78 -24 -97 4 -33
47 -7 108 46 108 17 0 40 -7 50 -17z m128 2 c18 -21 5 -31 -15 -12 -8 9 -22
14 -30 11 -26 -10 -16 -32 20 -44 27 -9 35 -17 35 -35 0 -36 -65 -50 -90 -20
-16 19 -5 34 12 17 17 -17 58 -15 58 2 0 8 -15 20 -34 26 -38 12 -52 35 -35
56 15 19 63 18 79 -1z m180 0 c18 -21 5 -31 -15 -12 -8 9 -22 14 -30 11 -26
-10 -16 -32 20 -44 27 -9 35 -17 35 -35 0 -36 -65 -50 -90 -20 -16 19 -5 34
12 17 17 -17 58 -15 58 2 0 8 -15 20 -34 26 -38 12 -52 35 -35 56 15 19 63 18
79 -1z m142 -2 c22 -20 23 -70 1 -95 -23 -26 -78 -24 -97 4 -33 47 -7 108 46
108 17 0 40 -7 50 -17z m120 -35 c3 -51 4 -53 33 -53 29 0 30 2 33 53 2 37 7
52 18 52 11 0 14 -15 14 -64 l0 -63 -47 -1 c-62 -2 -73 9 -73 74 0 69 18 70
22 2z m227 22 l16 -24 -37 22 -37 23 -20 -20 c-24 -24 -25 -34 -11 -62 11 -20
54 -26 65 -9 3 6 13 10 22 10 14 0 14 -3 -2 -20 -10 -11 -25 -20 -34 -20 -13
-1 -13 -3 3 -15 24 -18 14 -45 -16 -44 -17 1 -18 2 -5 6 18 5 24 23 7 23 -5 0
-10 7 -10 15 0 8 -6 15 -14 15 -19 0 -46 38 -46 65 0 11 7 31 16 43 22 32 80
27 103 -8z m143 13 c22 -20 23 -70 1 -95 -23 -26 -78 -24 -97 4 -33 47 -7 108
46 108 17 0 40 -7 50 -17z m142 -5 c28 -39 21 -48 -39 -48 -30 0 -55 -4 -55
-8 0 -26 61 -44 75 -22 3 6 13 10 22 10 14 0 14 -3 -2 -20 -25 -28 -79 -27
-99 2 -34 49 -7 108 49 108 24 0 39 -7 49 -22z m126 7 c18 -21 5 -31 -15 -12
-8 9 -22 14 -30 11 -26 -10 -16 -32 20 -44 27 -9 35 -17 35 -35 0 -36 -65 -50
-90 -20 -16 19 -5 34 12 17 17 -17 58 -15 58 2 0 8 -15 20 -34 26 -38 12 -52
35 -35 56 15 19 63 18 79 -1z m121 -42 l13 -58 16 55 c9 32 22 55 29 55 8 0
21 -22 29 -50 l15 -50 13 48 c13 52 20 64 30 54 9 -8 -30 -120 -43 -124 -6 -2
-17 13 -23 34 -18 57 -26 59 -40 9 -7 -26 -18 -46 -24 -46 -7 0 -21 29 -33 65
-16 50 -18 65 -8 65 8 0 19 -23 26 -57z m273 35 c28 -39 21 -48 -39 -48 -30 0
-55 -4 -55 -8 0 -26 61 -44 75 -22 3 6 13 10 22 10 14 0 14 -3 -2 -20 -25 -28
-79 -27 -99 2 -34 49 -7 108 49 108 24 0 39 -7 49 -22z m276 10 c0 -9 3 -9 12
0 17 17 58 15 80 -5 22 -20 23 -70 1 -95 -18 -20 -63 -24 -81 -6 -9 9 -12 3
-12 -30 0 -23 -4 -42 -10 -42 -6 0 -10 38 -10 95 0 57 4 95 10 95 6 0 10 -5
10 -12z m234 -10 c28 -39 21 -48 -39 -48 -30 0 -55 -4 -55 -8 0 -26 61 -44 75
-22 3 6 13 10 22 10 14 0 14 -3 -2 -20 -25 -28 -79 -27 -99 2 -34 49 -7 108
49 108 24 0 39 -7 49 -22z m106 11 c0 -5 -6 -9 -14 -9 -18 0 -26 -22 -26 -71
0 -21 -4 -39 -10 -39 -6 0 -10 28 -10 63 l0 64 30 1 c17 0 30 -4 30 -9z m100
-4 c18 -21 5 -31 -15 -12 -8 9 -22 14 -30 11 -26 -10 -16 -32 20 -44 27 -9 35
-17 35 -35 0 -36 -65 -50 -90 -20 -16 19 -5 34 12 17 17 -17 58 -15 58 2 0 8
-15 20 -34 26 -38 12 -52 35 -35 56 15 19 63 18 79 -1z m152 -2 c22 -20 23
-70 1 -95 -23 -26 -78 -24 -97 4 -33 47 -7 108 46 108 17 0 40 -7 50 -17z
m137 8 c8 -5 16 -32 19 -65 4 -46 2 -56 -11 -56 -12 0 -17 13 -19 53 -3 50 -4
52 -33 52 -29 0 -30 -2 -33 -52 -4 -75 -22 -66 -22 10 l0 64 43 1 c23 1 48 -2
56 -7z m171 -58 c0 -35 -4 -63 -10 -63 -5 0 -10 5 -10 12 0 9 -3 9 -12 0 -20
-20 -65 -14 -82 10 -20 28 -20 58 0 86 12 18 23 22 65 20 l49 -2 0 -63z m100
2 c0 -37 -4 -65 -10 -65 -6 0 -10 28 -10 65 0 37 4 65 10 65 6 0 10 -28 10
-65z m120 58 c0 -5 -14 -28 -30 -53 l-30 -45 30 -3 c47 -5 35 -22 -15 -22 -25
0 -45 5 -45 11 0 6 14 30 30 55 l31 44 -31 0 c-16 0 -30 5 -30 10 0 6 20 10
45 10 25 0 45 -3 45 -7z m140 -60 c0 -35 -4 -63 -10 -63 -5 0 -10 5 -10 12 0
9 -3 9 -12 0 -20 -20 -65 -14 -82 10 -20 28 -20 58 0 86 12 18 23 22 65 20
l49 -2 0 -63z m310 0 c0 -35 -4 -63 -10 -63 -5 0 -10 5 -10 12 0 9 -3 9 -12 0
-20 -20 -65 -14 -82 10 -20 28 -20 58 0 86 12 18 23 22 65 20 l49 -2 0 -63z
m120 52 c18 -21 5 -31 -15 -12 -8 9 -22 14 -30 11 -26 -10 -16 -32 20 -44 27
-9 35 -17 35 -35 0 -36 -65 -50 -90 -20 -16 19 -5 34 12 17 17 -17 58 -15 58
2 0 8 -15 20 -34 26 -38 12 -52 35 -35 56 15 19 63 18 79 -1z m3750 -188 c309
-168 512 -287 517 -303 2 -7 -6 -10 -22 -7 -14 3 -25 9 -25 12 0 4 -12 8 -27
9 -31 1 -43 3 -93 19 -19 6 -48 14 -65 18 l-29 6 35 -33 36 -34 -23 -11 c-15
-7 -22 -7 -18 -1 4 6 -3 5 -15 -1 -11 -7 -20 -17 -18 -24 1 -6 -8 -13 -20 -15
-13 -2 -23 -8 -23 -13 0 -5 -13 -9 -30 -9 -16 0 -30 -5 -30 -11 0 -6 -9 -8
-20 -4 -19 6 -18 4 4 -18 13 -13 30 -26 38 -29 7 -3 50 -30 95 -59 45 -30 121
-79 169 -109 49 -30 109 -69 134 -85 25 -17 79 -48 120 -70 41 -21 100 -52
130 -68 30 -17 92 -50 138 -73 86 -45 131 -86 132 -118 0 -15 -5 -17 -27 -11
-16 3 -35 13 -44 21 -18 16 -29 18 -29 4 0 -5 19 -18 43 -29 43 -20 79 -53 90
-83 4 -10 2 -18 -2 -18 -5 0 -101 50 -213 111 -111 62 -219 119 -238 128 -19
9 -37 18 -40 21 -3 3 -84 45 -180 94 -267 135 -540 286 -561 312 -10 12 -8 17
6 28 13 10 16 20 11 40 -4 16 -2 33 3 40 15 18 28 159 23 241 -2 41 -12 88
-24 112 -33 72 -11 77 92 20z m2474 -2 c-4 -8 -14 -15 -23 -15 -14 1 -13 3 3
15 25 19 27 19 20 0z m-2934 -66 c0 -37 -4 -58 -10 -54 -5 3 -10 31 -10 61 0
30 5 54 10 54 6 0 10 -27 10 -61z m-4530 -69 c0 -5 -13 -16 -30 -25 -38 -19
-40 -6 -2 17 32 21 32 21 32 8z m-2370 -15 c0 -8 -4 -15 -10 -15 -5 0 -10 7
-10 15 0 8 5 15 10 15 6 0 10 -7 10 -15z m300 -75 c0 -53 -4 -90 -10 -90 -5 0
-10 5 -10 12 0 9 -3 9 -12 0 -20 -20 -65 -14 -82 10 -20 29 -20 58 0 87 14 20
23 22 55 18 38 -5 39 -4 39 24 0 16 5 29 10 29 6 0 10 -37 10 -90z m2290 75
c0 -8 -4 -15 -9 -15 -13 0 -22 16 -14 24 11 11 23 6 23 -9z m-3350 -47 c0 -9
3 -9 12 0 17 17 58 15 80 -5 22 -20 23 -70 1 -95 -18 -20 -63 -24 -81 -6 -9 9
-12 3 -12 -30 0 -23 -4 -42 -10 -42 -6 0 -10 38 -10 95 0 57 4 95 10 95 6 0
10 -5 10 -12z m250 -55 c0 -35 -4 -63 -10 -63 -5 0 -10 5 -10 12 0 9 -3 9 -12
0 -20 -20 -65 -14 -82 10 -20 28 -20 58 0 86 12 18 23 22 65 20 l49 -2 0 -63z
m100 56 c0 -5 -6 -9 -14 -9 -18 0 -26 -22 -26 -71 0 -21 -4 -39 -10 -39 -6 0
-10 28 -10 63 l0 64 30 1 c17 0 30 -4 30 -9z m140 -56 c0 -35 -4 -63 -10 -63
-5 0 -10 5 -10 12 0 9 -3 9 -12 0 -20 -20 -65 -14 -82 10 -20 28 -20 58 0 86
12 18 23 22 65 20 l49 -2 0 -63z m210 0 c0 -35 -4 -63 -10 -63 -5 0 -10 5 -10
12 0 9 -3 9 -12 0 -20 -20 -65 -14 -82 10 -20 28 -20 58 0 86 12 18 23 22 65
20 l49 -2 0 -63z m58 -25 c-3 -88 -4 -93 -25 -96 -13 -2 -23 1 -23 7 0 6 7 11
15 11 12 0 15 16 15 85 0 52 4 85 10 85 7 0 10 -33 8 -92z m54 40 c3 -51 4
-53 33 -53 29 0 30 2 33 53 2 37 7 52 18 52 11 0 14 -15 14 -64 l0 -63 -47 -1
c-62 -2 -73 9 -73 74 0 69 18 70 22 2z m398 -15 c0 -35 -4 -63 -10 -63 -5 0
-10 5 -10 12 0 9 -3 9 -12 0 -20 -20 -65 -14 -82 10 -20 28 -20 58 0 86 12 18
23 22 65 20 l49 -2 0 -63z m100 56 c0 -5 -6 -9 -14 -9 -18 0 -26 -22 -26 -71
0 -21 -4 -39 -10 -39 -6 0 -10 28 -10 63 l0 64 30 1 c17 0 30 -4 30 -9z m90
-1 c0 -9 3 -9 12 0 17 17 58 15 80 -5 22 -20 23 -70 1 -95 -18 -20 -63 -24
-81 -6 -9 9 -12 3 -12 -30 0 -23 -4 -42 -10 -42 -6 0 -10 38 -10 95 0 57 4 95
10 95 6 0 10 -5 10 -12z m244 -10 c28 -39 21 -48 -39 -48 -30 0 -55 -4 -55 -8
0 -26 61 -44 75 -22 3 6 13 10 22 10 14 0 14 -3 -2 -20 -25 -28 -79 -27 -99 2
-34 49 -7 108 49 108 24 0 39 -7 49 -22z m156 -75 c0 -55 -4 -93 -10 -93 -5 0
-10 19 -10 42 0 33 -3 39 -12 30 -20 -20 -65 -14 -82 10 -20 28 -20 58 0 86
12 18 23 22 65 20 l49 -2 0 -93z m62 45 c3 -51 4 -53 33 -53 29 0 30 2 33 53
2 37 7 52 18 52 11 0 14 -15 14 -64 l0 -63 -47 -1 c-62 -2 -73 9 -73 74 0 69
18 70 22 2z m222 30 c28 -39 21 -48 -39 -48 -30 0 -55 -4 -55 -8 0 -26 61 -44
75 -22 3 6 13 10 22 10 14 0 14 -3 -2 -20 -25 -28 -79 -27 -99 2 -34 49 -7
108 49 108 24 0 39 -7 49 -22z m145 13 c8 -5 16 -32 19 -65 4 -46 2 -56 -11
-56 -12 0 -17 13 -19 53 -3 50 -4 52 -33 52 -29 0 -30 -2 -33 -52 -4 -75 -22
-66 -22 10 l0 64 43 1 c23 1 48 -2 56 -7z m143 -8 c22 -20 23 -70 1 -95 -23
-26 -78 -24 -97 4 -33 47 -7 108 46 108 17 0 40 -7 50 -17z m128 2 c18 -21 5
-31 -15 -12 -8 9 -22 14 -30 11 -26 -10 -16 -32 20 -44 27 -9 35 -17 35 -35 0
-36 -65 -50 -90 -20 -16 19 -5 34 12 17 17 -17 58 -15 58 2 0 8 -15 20 -34 26
-38 12 -52 35 -35 56 15 19 63 18 79 -1z m199 6 c8 -5 16 -32 19 -65 4 -46 2
-56 -11 -56 -12 0 -17 13 -19 53 -3 50 -4 52 -33 52 -29 0 -30 -2 -33 -52 -4
-75 -22 -66 -22 10 l0 64 43 1 c23 1 48 -2 56 -7z m145 -13 c28 -39 21 -48
-39 -48 -30 0 -55 -4 -55 -8 0 -26 61 -44 75 -22 3 6 13 10 22 10 14 0 14 -3
-2 -20 -25 -28 -79 -27 -99 2 -34 49 -7 108 49 108 24 0 39 -7 49 -22z m166
-63 c0 -50 -5 -86 -12 -93 -17 -17 -83 -15 -98 3 -19 23 -5 29 23 10 34 -22
67 -6 67 32 0 21 -3 24 -12 15 -20 -20 -65 -14 -82 10 -20 28 -20 58 0 86 12
18 23 22 65 20 l49 -2 0 -81z m132 68 c22 -20 23 -70 1 -95 -23 -26 -78 -24
-97 4 -33 47 -7 108 46 108 17 0 40 -7 50 -17z m157 -13 l16 -24 -37 22 -37
23 -20 -20 c-24 -24 -25 -34 -11 -62 11 -20 54 -26 65 -9 3 6 13 10 22 10 14
0 14 -3 -2 -20 -25 -28 -79 -27 -99 2 -20 29 -20 58 0 86 22 32 80 27 103 -8z
m51 -35 c0 -37 -4 -65 -10 -65 -6 0 -10 28 -10 65 0 37 4 65 10 65 6 0 10 -28
10 -65z m142 48 c22 -20 23 -70 1 -95 -23 -26 -78 -24 -97 4 -33 47 -7 108 46
108 17 0 40 -7 50 -17z m118 2 c18 -21 5 -31 -15 -12 -8 9 -22 14 -30 11 -26
-10 -16 -32 20 -44 27 -9 35 -17 35 -35 0 -36 -65 -50 -90 -20 -16 19 -5 34
12 17 17 -17 58 -15 58 2 0 8 -15 20 -34 26 -38 12 -52 35 -35 56 15 19 63 18
79 -1z m220 -52 c0 -35 -4 -63 -10 -63 -5 0 -10 5 -10 12 0 9 -3 9 -12 0 -20
-20 -65 -14 -82 10 -20 28 -20 58 0 86 12 18 23 22 65 20 l49 -2 0 -63z m6808
-45 c18 -20 23 -37 25 -98 l2 -74 -40 -26 c-22 -15 -85 -51 -140 -80 -128 -68
-217 -116 -280 -150 -27 -15 -99 -53 -160 -85 -60 -32 -114 -61 -120 -65 -5
-4 -50 -29 -100 -55 -49 -26 -137 -74 -195 -105 -170 -94 -203 -110 -207 -106
-6 5 27 69 39 77 6 4 6 9 -1 13 -31 20 10 86 72 115 51 24 141 74 159 88 7 5
72 40 143 78 72 37 135 71 140 75 6 4 48 27 95 52 47 25 103 55 125 68 22 12
76 43 120 68 138 77 190 107 206 117 27 18 49 58 49 91 0 17 3 34 6 37 9 9 34
-6 62 -35z m2205 -120 c-4 -7 -9 -24 -10 -38 -10 -86 -26 -112 -93 -155 -36
-23 -108 -64 -160 -92 -52 -28 -169 -90 -260 -138 -177 -94 -263 -139 -405
-215 -186 -100 -468 -244 -695 -356 -327 -162 -548 -273 -665 -334 -229 -120
-350 -180 -362 -180 -7 0 -13 -4 -13 -10 0 -5 -12 -13 -27 -16 -16 -4 -30 -10
-33 -14 -7 -8 -75 -40 -87 -40 -6 0 -18 -9 -28 -20 -10 -11 -26 -20 -35 -20
-10 0 -23 -7 -30 -15 -7 -8 -21 -15 -31 -15 -11 0 -19 -4 -19 -10 0 -5 -4 -10
-9 -10 -5 0 -36 -16 -68 -35 -223 -133 -495 -164 -877 -100 -62 11 -113 25
-135 39 -20 13 -61 36 -91 53 -30 16 -86 47 -125 68 -72 39 -381 211 -470 260
-27 16 -88 49 -135 75 -47 26 -123 69 -170 95 -47 27 -103 58 -125 70 -287
155 -1147 659 -1153 676 -2 5 -10 9 -19 9 -8 0 -32 18 -52 39 -29 30 -41 37
-50 28 -8 -8 -11 -4 -11 16 0 18 -5 27 -16 27 -8 0 -12 5 -9 10 3 6 -1 10 -9
10 -9 0 -16 5 -16 10 0 12 -57 70 -69 70 -4 0 -7 14 -7 30 0 31 9 39 23 18 4
-7 15 -13 23 -13 8 0 14 -6 12 -13 -1 -7 3 -12 10 -10 13 3 78 -21 88 -31 3
-4 25 -16 50 -29 25 -12 63 -33 85 -45 22 -12 85 -47 140 -77 55 -30 109 -60
120 -67 11 -7 27 -15 35 -20 8 -4 36 -19 62 -34 26 -15 96 -53 155 -85 59 -31
113 -60 118 -64 6 -4 35 -21 65 -38 47 -25 203 -112 355 -197 22 -12 110 -61
195 -109 85 -48 200 -113 255 -144 55 -31 153 -86 218 -124 65 -37 120 -68
123 -68 2 0 21 -11 42 -24 121 -76 345 -189 427 -215 133 -43 207 -53 401 -52
299 0 370 23 824 264 118 62 261 137 435 227 251 130 359 187 515 270 80 43
197 104 260 137 63 33 149 78 190 100 41 22 147 77 235 123 88 45 205 106 260
135 126 66 488 252 663 340 111 56 149 73 190 84 2 1 0 -5 -5 -11z m-1913 -22
c0 -3 -4 -8 -10 -11 -5 -3 -10 -1 -10 4 0 6 5 11 10 11 6 0 10 -2 10 -4z
m-10780 -186 c0 -53 -4 -90 -10 -90 -6 0 -10 37 -10 90 0 53 4 90 10 90 6 0
10 -37 10 -90z m1730 75 c0 -8 -4 -15 -9 -15 -13 0 -22 16 -14 24 11 11 23 6
23 -9z m380 -75 c0 -53 -4 -90 -10 -90 -6 0 -10 37 -10 90 0 53 4 90 10 90 6
0 10 -37 10 -90z m50 75 c0 -8 -4 -15 -9 -15 -13 0 -22 16 -14 24 11 11 23 6
23 -9z m7027 -44 c-6 -40 -17 -34 -17 10 1 33 3 40 10 27 6 -9 9 -26 7 -37z
m-6667 24 c0 -8 7 -15 15 -15 8 0 15 -4 15 -10 0 -5 -7 -10 -15 -10 -11 0 -15
-12 -15 -45 0 -33 4 -45 15 -45 8 0 15 -4 15 -10 0 -14 -36 -12 -48 3 -9 11
-17 84 -13 130 1 21 31 23 31 2z m-2570 -82 c0 -35 -4 -63 -10 -63 -5 0 -10 5
-10 12 0 9 -3 9 -12 0 -20 -20 -65 -14 -82 10 -20 28 -20 58 0 86 12 18 23 22
65 20 l49 -2 0 -63z m199 37 l16 -24 -37 22 -37 23 -20 -20 c-24 -24 -25 -34
-11 -62 11 -20 54 -26 65 -9 3 6 13 10 22 10 14 0 14 -3 -2 -20 -25 -28 -79
-27 -99 2 -20 29 -20 58 0 86 22 32 80 27 103 -8z m151 -37 c0 -35 -4 -63 -10
-63 -5 0 -10 5 -10 12 0 9 -3 9 -12 0 -20 -20 -65 -14 -82 10 -20 28 -20 58 0
86 12 18 23 22 65 20 l49 -2 0 -63z m139 58 c8 -5 16 -32 19 -65 4 -46 2 -56
-11 -56 -12 0 -17 13 -19 53 -3 50 -4 52 -33 52 -29 0 -30 -2 -33 -52 -4 -75
-22 -66 -22 10 l0 64 43 1 c23 1 48 -2 56 -7z m150 -21 l16 -24 -37 22 -37 23
-20 -20 c-24 -24 -25 -34 -11 -62 11 -20 54 -26 65 -9 3 6 13 10 22 10 14 0
14 -3 -2 -20 -10 -11 -25 -20 -34 -20 -13 -1 -13 -3 3 -15 24 -18 14 -45 -16
-44 -17 1 -18 2 -5 6 18 5 24 23 7 23 -5 0 -10 7 -10 15 0 8 -6 15 -14 15 -19
0 -46 38 -46 65 0 11 7 31 16 43 22 32 80 27 103 -8z m161 -37 c0 -35 -4 -63
-10 -63 -5 0 -10 5 -10 12 0 9 -3 9 -12 0 -20 -20 -65 -14 -82 10 -20 28 -20
58 0 86 12 18 23 22 65 20 l49 -2 0 -63z m90 56 c0 -5 -6 -9 -14 -9 -18 0 -26
-22 -26 -71 0 -21 -4 -39 -10 -39 -6 0 -10 28 -10 63 l0 64 30 1 c17 0 30 -4
30 -9z m134 -11 c28 -39 21 -48 -39 -48 -30 0 -55 -4 -55 -8 0 -26 61 -44 75
-22 3 6 13 10 22 10 14 0 14 -3 -2 -20 -25 -28 -79 -27 -99 2 -34 49 -7 108
49 108 24 0 39 -7 49 -22z m133 10 c10 -8 17 -8 25 0 19 19 66 14 78 -7 13
-25 13 -111 0 -111 -5 0 -10 19 -10 43 0 53 -11 70 -41 65 -21 -3 -24 -9 -27
-55 -2 -37 -7 -53 -17 -53 -10 0 -15 16 -17 53 -3 50 -4 52 -33 52 -29 0 -30
-2 -33 -52 -4 -75 -22 -66 -22 10 l0 64 41 1 c23 1 48 -3 56 -10z m300 0 c10
-8 17 -8 25 0 19 19 66 14 78 -7 13 -25 13 -111 0 -111 -5 0 -10 19 -10 43 0
53 -11 70 -41 65 -21 -3 -24 -9 -27 -55 -2 -37 -7 -53 -17 -53 -10 0 -15 16
-17 53 -3 50 -4 52 -33 52 -29 0 -30 -2 -33 -52 -4 -75 -22 -66 -22 10 l0 64
41 1 c23 1 48 -3 56 -10z m263 -55 c0 -35 -4 -63 -10 -63 -5 0 -10 5 -10 12 0
9 -3 9 -12 0 -20 -20 -65 -14 -82 10 -20 28 -20 58 0 86 12 18 23 22 65 20
l49 -2 0 -63z m60 2 c0 -37 -4 -65 -10 -65 -6 0 -10 28 -10 65 0 37 4 65 10
65 6 0 10 -28 10 -65z m110 50 c18 -21 5 -31 -15 -12 -8 9 -22 14 -30 11 -26
-10 -16 -32 20 -44 27 -9 35 -17 35 -35 0 -36 -65 -50 -90 -20 -16 19 -5 34
12 17 17 -17 58 -15 58 2 0 8 -15 20 -34 26 -38 12 -52 35 -35 56 15 19 63 18
79 -1z m209 -15 l16 -24 -37 22 -37 23 -20 -20 c-24 -24 -25 -34 -11 -62 11
-20 54 -26 65 -9 3 6 13 10 22 10 14 0 14 -3 -2 -20 -25 -28 -79 -27 -99 2
-20 29 -20 58 0 86 22 32 80 27 103 -8z m111 -35 c0 -37 -4 -65 -10 -65 -6 0
-10 28 -10 65 0 37 4 65 10 65 6 0 10 -28 10 -65z m144 43 c28 -39 21 -48 -39
-48 -30 0 -55 -4 -55 -8 0 -26 61 -44 75 -22 3 6 13 10 22 10 14 0 14 -3 -2
-20 -25 -28 -79 -27 -99 2 -34 49 -7 108 49 108 24 0 39 -7 49 -22z m135 13
c8 -5 16 -32 19 -65 4 -46 2 -56 -11 -56 -12 0 -17 13 -19 53 -3 50 -4 52 -33
52 -29 0 -30 -2 -33 -52 -4 -75 -22 -66 -22 10 l0 64 43 1 c23 1 48 -2 56 -7z
m235 -13 c28 -39 21 -48 -39 -48 -30 0 -55 -4 -55 -8 0 -26 61 -44 75 -22 3 6
13 10 22 10 14 0 14 -3 -2 -20 -25 -28 -79 -27 -99 2 -34 49 -7 108 49 108 24
0 39 -7 49 -22z m126 7 c18 -21 5 -31 -15 -12 -8 9 -22 14 -30 11 -26 -10 -16
-32 20 -44 27 -9 35 -17 35 -35 0 -36 -65 -50 -90 -20 -16 19 -5 34 12 17 17
-17 58 -15 58 2 0 8 -15 20 -34 26 -38 12 -52 35 -35 56 15 19 63 18 79 -1z
m204 -7 c28 -39 21 -48 -39 -48 -30 0 -55 -4 -55 -8 0 -26 61 -44 75 -22 3 6
13 10 22 10 14 0 14 -3 -2 -20 -25 -28 -79 -27 -99 2 -34 49 -7 108 49 108 24
0 39 -7 49 -22z m-2424 -343 c0 -8 -4 -15 -9 -15 -13 0 -22 16 -14 24 11 11
23 6 23 -9z m1420 -75 c0 -53 -4 -90 -10 -90 -5 0 -10 5 -10 12 0 9 -3 9 -12
0 -20 -20 -65 -14 -82 10 -20 29 -20 58 0 87 14 20 23 22 55 18 38 -5 39 -4
39 24 0 16 5 29 10 29 6 0 10 -37 10 -90z m60 75 c0 -8 -4 -15 -9 -15 -13 0
-22 16 -14 24 11 11 23 6 23 -9z m50 -22 c0 -29 3 -34 12 -25 17 17 58 15 80
-5 22 -20 23 -70 1 -95 -18 -20 -63 -24 -81 -6 -9 9 -12 9 -12 0 0 -7 -4 -12
-10 -12 -6 0 -10 37 -10 90 0 53 4 90 10 90 6 0 10 -17 10 -37z m160 22 c0 -8
-4 -15 -9 -15 -13 0 -22 16 -14 24 11 11 23 6 23 -9z m50 -75 c0 -53 -4 -90
-10 -90 -6 0 -10 37 -10 90 0 53 4 90 10 90 6 0 10 -37 10 -90z m60 75 c0 -8
-4 -15 -9 -15 -13 0 -22 16 -14 24 11 11 23 6 23 -9z m150 -75 c0 -53 -4 -90
-10 -90 -5 0 -10 5 -10 12 0 9 -3 9 -12 0 -20 -20 -65 -14 -82 10 -20 29 -20
58 0 87 14 20 23 22 55 18 38 -5 39 -4 39 24 0 16 5 29 10 29 6 0 10 -37 10
-90z m310 0 c0 -53 -4 -90 -10 -90 -5 0 -10 5 -10 12 0 9 -3 9 -12 0 -20 -20
-65 -14 -82 10 -20 29 -20 58 0 87 14 20 23 22 55 18 38 -5 39 -4 39 24 0 16
5 29 10 29 6 0 10 -37 10 -90z m540 0 c0 -53 -4 -90 -10 -90 -6 0 -10 37 -10
90 0 53 4 90 10 90 6 0 10 -37 10 -90z m60 75 c0 -8 -4 -15 -9 -15 -13 0 -22
16 -14 24 11 11 23 6 23 -9z m-2670 -20 c0 -8 7 -15 15 -15 8 0 15 -4 15 -10
0 -5 -7 -10 -15 -10 -11 0 -15 -12 -15 -45 0 -33 4 -45 15 -45 8 0 15 -4 15
-10 0 -14 -36 -12 -48 3 -9 11 -17 84 -13 130 1 21 31 23 31 2z m-831 -45 l16
-24 -37 22 -37 23 -20 -20 c-24 -24 -25 -34 -11 -62 11 -20 54 -26 65 -9 3 6
13 10 22 10 14 0 14 -3 -2 -20 -25 -28 -79 -27 -99 2 -20 29 -20 58 0 86 22
32 80 27 103 -8z m133 13 c22 -20 23 -70 1 -95 -23 -26 -78 -24 -97 4 -33 47
-7 108 46 108 17 0 40 -7 50 -17z m147 8 c8 -5 16 -32 19 -65 4 -46 2 -56 -11
-56 -12 0 -17 13 -19 53 -3 50 -4 52 -33 52 -29 0 -30 -2 -33 -52 -4 -75 -22
-66 -22 10 l0 64 43 1 c23 1 48 -2 56 -7z m161 -88 c0 -55 -4 -93 -10 -93 -5
0 -10 19 -10 42 0 33 -3 39 -12 30 -20 -20 -65 -14 -82 10 -20 28 -20 58 0 86
12 18 23 22 65 20 l49 -2 0 -93z m62 45 c3 -51 4 -53 33 -53 29 0 30 2 33 53
2 37 7 52 18 52 11 0 14 -15 14 -64 l0 -63 -47 -1 c-62 -2 -73 9 -73 74 0 69
18 70 22 2z m138 -13 c0 -37 -4 -65 -10 -65 -6 0 -10 28 -10 65 0 37 4 65 10
65 6 0 10 -28 10 -65z m120 50 c18 -21 5 -31 -15 -12 -8 9 -22 14 -30 11 -26
-10 -16 -32 20 -44 27 -9 35 -17 35 -35 0 -36 -65 -50 -90 -20 -16 19 -5 34
12 17 17 -17 58 -15 58 2 0 8 -15 20 -34 26 -38 12 -52 35 -35 56 15 19 63 18
79 -1z m250 -52 c0 -35 -4 -63 -10 -63 -5 0 -10 5 -10 12 0 9 -3 9 -12 0 -20
-20 -65 -14 -82 10 -20 28 -20 58 0 86 12 18 23 22 65 20 l49 -2 0 -63z m90
56 c0 -5 -6 -9 -14 -9 -18 0 -26 -22 -26 -71 0 -21 -4 -39 -10 -39 -6 0 -10
28 -10 63 l0 64 30 1 c17 0 30 -4 30 -9z m134 -11 c28 -39 21 -48 -39 -48 -30
0 -55 -4 -55 -8 0 -26 61 -44 75 -22 3 6 13 10 22 10 14 0 14 -3 -2 -20 -25
-28 -79 -27 -99 2 -34 49 -7 108 49 108 24 0 39 -7 49 -22z m133 10 c10 -8 17
-8 25 0 19 19 66 14 78 -7 13 -25 13 -111 0 -111 -5 0 -10 19 -10 43 0 53 -11
70 -41 65 -21 -3 -24 -9 -27 -55 -2 -37 -7 -53 -17 -53 -10 0 -15 16 -17 53
-3 50 -4 52 -33 52 -29 0 -30 -2 -33 -52 -4 -75 -22 -66 -22 10 l0 64 41 1
c23 1 48 -3 56 -10z m312 -18 l16 -24 -37 22 -37 23 -20 -20 c-24 -24 -25 -34
-11 -62 11 -20 54 -26 65 -9 3 6 13 10 22 10 14 0 14 -3 -2 -20 -25 -28 -79
-27 -99 2 -20 29 -20 58 0 86 22 32 80 27 103 -8z m91 19 c0 -5 -6 -9 -14 -9
-18 0 -26 -22 -26 -71 0 -21 -4 -39 -10 -39 -6 0 -10 28 -10 63 l0 64 30 1
c17 0 30 -4 30 -9z m134 -11 c28 -39 21 -48 -39 -48 -30 0 -55 -4 -55 -8 0
-26 61 -44 75 -22 3 6 13 10 22 10 14 0 14 -3 -2 -20 -25 -28 -79 -27 -99 2
-34 49 -7 108 49 108 24 0 39 -7 49 -22z m216 -43 c0 -37 -4 -65 -10 -65 -6 0
-10 28 -10 65 0 37 4 65 10 65 6 0 10 -28 10 -65z m210 0 c0 -37 -4 -65 -10
-65 -6 0 -10 28 -10 65 0 37 4 65 10 65 6 0 10 -28 10 -65z m110 0 c0 -37 -4
-65 -10 -65 -6 0 -10 28 -10 65 0 37 4 65 10 65 6 0 10 -28 10 -65z m310 -2
c0 -35 -4 -63 -10 -63 -5 0 -10 5 -10 12 0 9 -3 9 -12 0 -20 -20 -65 -14 -82
10 -20 28 -20 58 0 86 12 18 23 22 65 20 l49 -2 0 -63z m294 45 c28 -39 21
-48 -39 -48 -30 0 -55 -4 -55 -8 0 -26 61 -44 75 -22 3 6 13 10 22 10 14 0 14
-3 -2 -20 -25 -28 -79 -27 -99 2 -34 49 -7 108 49 108 24 0 39 -7 49 -22z
m198 5 c22 -20 23 -70 1 -95 -23 -26 -78 -24 -97 4 -33 47 -7 108 46 108 17 0
40 -7 50 -17z m137 8 c8 -5 16 -32 19 -65 4 -46 2 -56 -11 -56 -12 0 -17 13
-19 53 -3 50 -4 52 -33 52 -29 0 -30 -2 -33 -52 -4 -75 -22 -66 -22 10 l0 64
43 1 c23 1 48 -2 56 -7z m121 -56 c0 -37 -4 -65 -10 -65 -6 0 -10 28 -10 65 0
37 4 65 10 65 6 0 10 -28 10 -65z m129 56 c8 -5 16 -32 19 -65 4 -46 2 -56
-11 -56 -12 0 -17 13 -19 53 -3 50 -4 52 -33 52 -29 0 -30 -2 -33 -52 -4 -75
-22 -66 -22 10 l0 64 43 1 c23 1 48 -2 56 -7z m155 -13 c28 -39 21 -48 -39
-48 -30 0 -55 -4 -55 -8 0 -26 61 -44 75 -22 3 6 13 10 22 10 14 0 14 -3 -2
-20 -25 -28 -79 -27 -99 2 -34 49 -7 108 49 108 24 0 39 -7 49 -22z m5466 -48
c0 -32 -4 -62 -10 -65 -6 -4 -10 20 -10 65 0 45 4 69 10 65 6 -3 10 -33 10
-65z m-5410 -51 c0 -5 -7 -9 -15 -9 -15 0 -20 12 -9 23 8 8 24 -1 24 -14z
m-3493 -1019 c-5 -39 -4 -40 24 -40 17 0 29 -5 29 -13 0 -16 -72 -116 -84
-117 -5 0 -6 18 -2 40 6 39 6 40 -24 40 -16 0 -30 5 -30 11 0 14 73 118 84
119 5 0 6 -18 3 -40z m-77 -10 c0 -5 -16 -10 -35 -10 -19 0 -35 5 -35 10 0 6
16 10 35 10 19 0 35 -4 35 -10z m-30 -55 c0 -16 -45 -21 -54 -6 -8 12 4 21 31
21 14 0 23 -6 23 -15z m30 -55 c0 -5 -18 -10 -40 -10 -22 0 -40 5 -40 10 0 6
18 10 40 10 22 0 40 -4 40 -10z"/>
<path d="M9277 8902 c-35 -38 -9 -102 40 -102 45 0 71 71 37 104 -21 21 -57
20 -77 -2z"/>
<path d="M3704 8886 c-11 -29 0 -51 26 -51 21 0 25 5 25 30 0 24 -5 31 -23 33
-13 2 -24 -3 -28 -12z"/>
<path d="M3987 8871 c-3 -14 0 -21 9 -21 16 0 18 9 5 28 -6 10 -10 9 -14 -7z"/>
<path d="M4230 8865 c0 -32 3 -36 23 -33 17 2 22 10 22 33 0 23 -5 31 -22 33
-20 3 -23 -1 -23 -33z"/>
<path d="M4470 8865 c0 -32 3 -36 23 -33 17 2 22 10 22 33 0 23 -5 31 -22 33
-20 3 -23 -1 -23 -33z"/>
<path d="M4367 8871 c-3 -14 0 -21 9 -21 16 0 18 9 5 28 -6 10 -10 9 -14 -7z"/>
<path d="M6600 8885 c0 -10 7 -15 18 -13 21 4 19 22 -2 26 -10 2 -16 -3 -16
-13z"/>
<path d="M6710 8884 c0 -9 7 -14 17 -12 25 5 28 28 4 28 -12 0 -21 -6 -21 -16z"/>
<path d="M7054 8886 c-11 -29 0 -51 26 -51 21 0 25 5 25 30 0 24 -5 31 -23 33
-13 2 -24 -3 -28 -12z"/>
<path d="M11410 8885 c0 -10 7 -15 18 -13 21 4 19 22 -2 26 -10 2 -16 -3 -16
-13z"/>
<path d="M11610 8884 c0 -9 7 -14 17 -12 25 5 28 28 4 28 -12 0 -21 -6 -21
-16z"/>
<path d="M12237 8871 c-3 -14 0 -21 9 -21 16 0 18 9 5 28 -6 10 -10 9 -14 -7z"/>
<path d="M12580 8884 c0 -9 7 -14 17 -12 25 5 28 28 4 28 -12 0 -21 -6 -21
-16z"/>
<path d="M12794 8886 c-11 -29 0 -51 26 -51 21 0 25 5 25 30 0 24 -5 31 -23
33 -13 2 -24 -3 -28 -12z"/>
<path d="M14794 8886 c-11 -29 0 -51 26 -51 21 0 25 5 25 30 0 24 -5 31 -23
33 -13 2 -24 -3 -28 -12z"/>
<path d="M15187 8871 c-3 -14 0 -21 9 -21 16 0 18 9 5 28 -6 10 -10 9 -14 -7z"/>
<path d="M15404 8886 c-11 -29 0 -51 26 -51 21 0 25 5 25 30 0 24 -5 31 -23
33 -13 2 -24 -3 -28 -12z"/>
<path d="M13220 6915 c0 -5 55 -35 65 -35 3 0 5 5 5 10 0 6 -9 10 -20 10 -11
0 -20 5 -20 10 0 6 -7 10 -15 10 -8 0 -15 -2 -15 -5z"/>
<path d="M13296 6872 c-3 -5 14 -17 37 -27 23 -10 58 -28 77 -40 19 -12 46
-26 60 -30 l25 -7 -25 19 c-14 11 -42 27 -62 37 -21 9 -38 21 -38 27 0 6 -4 8
-9 5 -4 -3 -17 1 -27 9 -22 17 -31 18 -38 7z"/>
<path d="M15260 5731 c0 -5 -15 -19 -33 -30 -53 -32 -94 -71 -76 -71 8 0 24 7
35 15 10 8 30 15 44 15 20 0 29 8 38 33 15 41 15 47 2 47 -5 0 -10 -4 -10 -9z"/>
<path d="M15300 4943 c-8 -3 -17 -9 -20 -12 -6 -8 -58 -43 -80 -54 -9 -4 -5
-5 11 -2 14 2 28 2 31 -1 9 -8 -12 -88 -25 -96 -6 -4 -8 -10 -5 -14 4 -4 -4
-15 -17 -26 -28 -22 -32 -38 -10 -38 8 0 15 -6 15 -13 0 -8 -10 -13 -22 -13
-14 1 -23 -5 -23 -14 0 -8 7 -13 15 -11 8 2 29 5 45 8 61 10 73 36 81 171 3
53 10 102 16 109 11 14 11 14 -12 6z"/>
<path d="M15200 4470 c0 -5 -7 -10 -15 -10 -8 0 -15 -4 -15 -10 0 -6 10 -5 25
2 25 11 34 28 15 28 -5 0 -10 -4 -10 -10z"/>
<path d="M15089 4408 c-30 -18 -67 -39 -83 -46 -16 -7 -26 -15 -23 -18 5 -5
177 84 177 92 0 10 -20 2 -71 -28z"/>
<path d="M3280 6890 c0 -24 29 -38 40 -20 12 19 1 40 -21 40 -12 0 -19 -7 -19
-20z"/>
<path d="M3790 6890 c0 -24 29 -38 40 -20 12 19 1 40 -21 40 -12 0 -19 -7 -19
-20z"/>
<path d="M4220 6885 c0 -20 4 -26 18 -23 9 2 17 12 17 23 0 11 -8 21 -17 23
-14 3 -18 -3 -18 -23z"/>
<path d="M4780 6886 c0 -9 5 -16 10 -16 6 0 10 4 10 9 0 6 -4 13 -10 16 -5 3
-10 -1 -10 -9z"/>
<path d="M5030 6220 l0 -60 44 0 c52 0 76 19 76 60 0 37 -32 60 -82 60 l-38 0
0 -60z"/>
<path d="M10174 5265 c22 -17 40 -20 32 -6 -3 5 -16 11 -28 14 -22 6 -22 5 -4
-8z"/>
<path d="M5652 4278 c-7 -7 -12 -21 -12 -33 0 -12 5 -26 12 -33 7 -7 21 -12
33 -12 12 0 26 5 33 12 7 7 12 21 12 33 0 12 -5 26 -12 33 -7 7 -21 12 -33 12
-12 0 -26 -5 -33 -12z"/>
<path d="M7169 4269 c-17 -33 4 -71 38 -67 33 4 48 27 39 61 -5 22 -12 27 -36
27 -20 0 -33 -7 -41 -21z"/>
<path d="M3489 4269 c-17 -33 4 -71 38 -67 33 4 48 27 39 61 -5 22 -12 27 -36
27 -20 0 -33 -7 -41 -21z"/>
<path d="M3889 4269 c-16 -30 3 -69 34 -69 29 0 47 17 47 45 0 45 -60 63 -81
24z"/>
<path d="M4339 4269 c-16 -30 3 -69 34 -69 29 0 47 17 47 45 0 45 -60 63 -81
24z"/>
<path d="M4829 4269 c-16 -30 3 -69 34 -69 29 0 47 17 47 45 0 45 -60 63 -81
24z"/>
<path d="M4978 4280 l-23 -19 48 -1 c49 0 54 10 17 30 -14 7 -24 5 -42 -10z"/>
<path d="M5498 4280 l-23 -19 48 -1 c49 0 54 10 17 30 -14 7 -24 5 -42 -10z"/>
<path d="M5862 4278 c-7 -7 -12 -21 -12 -33 0 -12 5 -26 12 -33 7 -7 21 -12
33 -12 12 0 26 5 33 12 7 7 12 21 12 33 0 12 -5 26 -12 33 -7 7 -21 12 -33 12
-12 0 -26 -5 -33 -12z"/>
<path d="M6008 4280 l-23 -19 48 -1 c49 0 54 10 17 30 -14 7 -24 5 -42 -10z"/>
<path d="M6359 4269 c-16 -30 3 -69 34 -69 29 0 47 17 47 45 0 45 -60 63 -81
24z"/>
<path d="M6649 4269 c-17 -33 4 -71 38 -67 33 4 48 27 39 61 -5 22 -12 27 -36
27 -20 0 -33 -7 -41 -21z"/>
<path d="M7009 4269 c-17 -33 4 -71 38 -67 33 4 48 27 39 61 -5 22 -12 27 -36
27 -20 0 -33 -7 -41 -21z"/>
<path d="M7319 4269 c-17 -33 4 -71 38 -67 33 4 48 27 39 61 -5 22 -12 27 -36
27 -20 0 -33 -7 -41 -21z"/>
<path d="M11860 3311 c0 -11 79 -51 101 -51 12 0 12 -2 -1 -11 -12 -8 -9 -10
13 -6 15 2 27 0 27 -5 0 -9 58 -47 73 -47 4 -1 30 -13 57 -27 28 -15 53 -24
56 -22 3 3 -30 23 -72 44 -42 21 -86 46 -98 55 -19 15 -143 79 -153 79 -2 0
-3 -4 -3 -9z"/>
<path d="M12235 3110 c3 -5 11 -10 16 -10 6 0 7 5 4 10 -3 6 -11 10 -16 10 -6
0 -7 -4 -4 -10z"/>
<path d="M4129 3879 c-17 -33 4 -71 38 -67 33 4 48 27 39 61 -5 22 -12 27 -36
27 -20 0 -33 -7 -41 -21z"/>
<path d="M3182 3888 c-7 -7 -12 -21 -12 -33 0 -12 5 -26 12 -33 7 -7 21 -12
33 -12 12 0 26 5 33 12 7 7 12 21 12 33 0 12 -5 26 -12 33 -7 7 -21 12 -33 12
-12 0 -26 -5 -33 -12z"/>
<path d="M3319 3879 c-17 -33 4 -71 38 -67 33 4 48 27 39 61 -5 22 -12 27 -36
27 -20 0 -33 -7 -41 -21z"/>
<path d="M3559 3879 c-17 -33 4 -71 38 -67 33 4 48 27 39 61 -5 22 -12 27 -36
27 -20 0 -33 -7 -41 -21z"/>
<path d="M3769 3879 c-17 -33 4 -71 38 -67 33 4 48 27 39 61 -5 22 -12 27 -36
27 -20 0 -33 -7 -41 -21z"/>
<path d="M4279 3879 c-17 -33 4 -71 38 -67 33 4 48 27 39 61 -5 22 -12 27 -36
27 -20 0 -33 -7 -41 -21z"/>
<path d="M4582 3888 c-7 -7 -12 -21 -12 -33 0 -12 5 -26 12 -33 7 -7 21 -12
33 -12 12 0 26 5 33 12 7 7 12 21 12 33 0 12 -5 26 -12 33 -7 7 -21 12 -33 12
-12 0 -26 -5 -33 -12z"/>
<path d="M4738 3890 l-23 -19 48 -1 c49 0 54 10 17 30 -14 7 -24 5 -42 -10z"/>
<path d="M4869 3879 c-17 -33 4 -71 38 -67 33 4 48 27 39 61 -5 22 -12 27 -36
27 -20 0 -33 -7 -41 -21z"/>
<path d="M5178 3890 l-23 -19 48 -1 c49 0 54 10 17 30 -14 7 -24 5 -42 -10z"/>
<path d="M5459 3879 c-16 -30 3 -69 34 -69 29 0 47 17 47 45 0 45 -60 63 -81
24z"/>
<path d="M5938 3890 l-23 -19 48 -1 c49 0 54 10 17 30 -14 7 -24 5 -42 -10z"/>
<path d="M6079 3879 c-17 -33 4 -71 38 -67 33 4 48 27 39 61 -5 22 -12 27 -36
27 -20 0 -33 -7 -41 -21z"/>
<path d="M6229 3879 c-16 -30 3 -69 34 -69 29 0 47 17 47 45 0 45 -60 63 -81
24z"/>
<path d="M6579 3879 c-16 -30 3 -69 34 -69 29 0 47 17 47 45 0 45 -60 63 -81
24z"/>
<path d="M6899 3879 c-17 -33 4 -71 38 -67 33 4 48 27 39 61 -5 22 -12 27 -36
27 -20 0 -33 -7 -41 -21z"/>
<path d="M9465 3440 c3 -5 10 -10 16 -10 5 0 9 5 9 10 0 6 -7 10 -16 10 -8 0
-12 -4 -9 -10z"/>
<path d="M3169 3479 c-17 -33 4 -71 38 -67 33 4 48 27 39 61 -5 22 -12 27 -36
27 -20 0 -33 -7 -41 -21z"/>
<path d="M3519 3479 c-17 -33 4 -71 38 -67 33 4 48 27 39 61 -5 22 -12 27 -36
27 -20 0 -33 -7 -41 -21z"/>
<path d="M3969 3479 c-17 -33 4 -71 38 -67 33 4 48 27 39 61 -5 22 -12 27 -36
27 -20 0 -33 -7 -41 -21z"/>
<path d="M4218 3490 l-23 -19 48 -1 c49 0 54 10 17 30 -14 7 -24 5 -42 -10z"/>
<path d="M4889 3479 c-17 -33 4 -71 38 -67 33 4 48 27 39 61 -5 22 -12 27 -36
27 -20 0 -33 -7 -41 -21z"/>
<path d="M5548 3490 l-23 -19 48 -1 c49 0 54 10 17 30 -14 7 -24 5 -42 -10z"/>
<path d="M5918 3490 l-23 -19 48 -1 c49 0 54 10 17 30 -14 7 -24 5 -42 -10z"/>
<path d="M6248 3490 l-23 -19 48 -1 c49 0 54 10 17 30 -14 7 -24 5 -42 -10z"/>
<path d="M5219 3079 c-17 -33 4 -71 38 -67 33 4 48 27 39 61 -5 22 -12 27 -36
27 -20 0 -33 -7 -41 -21z"/>
<path d="M5442 3088 c-7 -7 -12 -21 -12 -33 0 -12 5 -26 12 -33 7 -7 21 -12
33 -12 12 0 26 5 33 12 7 7 12 21 12 33 0 12 -5 26 -12 33 -7 7 -21 12 -33 12
-12 0 -26 -5 -33 -12z"/>
<path d="M5749 3079 c-17 -33 4 -71 38 -67 33 4 48 27 39 61 -5 22 -12 27 -36
27 -20 0 -33 -7 -41 -21z"/>
<path d="M6059 3079 c-17 -33 4 -71 38 -67 33 4 48 27 39 61 -5 22 -12 27 -36
27 -20 0 -33 -7 -41 -21z"/>
<path d="M3309 3079 c-16 -30 3 -69 34 -69 29 0 47 17 47 45 0 45 -60 63 -81
24z"/>
<path d="M3599 3079 c-17 -33 4 -71 38 -67 33 4 48 27 39 61 -5 22 -12 27 -36
27 -20 0 -33 -7 -41 -21z"/>
<path d="M4169 3079 c-17 -33 4 -71 38 -67 33 4 48 27 39 61 -5 22 -12 27 -36
27 -20 0 -33 -7 -41 -21z"/>
<path d="M4418 3090 l-23 -19 48 -1 c49 0 54 10 17 30 -14 7 -24 5 -42 -10z"/>
<path d="M5088 3090 l-23 -19 48 -1 c49 0 54 10 17 30 -14 7 -24 5 -42 -10z"/>
<path d="M5909 3079 c-17 -33 4 -71 38 -67 33 4 48 27 39 61 -5 22 -12 27 -36
27 -20 0 -33 -7 -41 -21z"/>
<path d="M6228 3090 l-23 -19 48 -1 c49 0 54 10 17 30 -14 7 -24 5 -42 -10z"/>
<path d="M6419 3079 c-16 -30 3 -69 34 -69 29 0 47 17 47 45 0 45 -60 63 -81
24z"/>
<path d="M6968 3090 l-23 -19 48 -1 c49 0 54 10 17 30 -14 7 -24 5 -42 -10z"/>
</g>
</svg>
